<svg xmlns="http://www.w3.org/2000/svg" xmlns:xlink="http://www.w3.org/1999/xlink" width="500" zoomAndPan="magnify" viewBox="0 0 375 374.999991" height="500" preserveAspectRatio="xMidYMid meet" version="1.0"><path fill="#caddff" d="M 271.113281 115.089844 C 239.667969 83.464844 248.671875 63.644531 227.15625 49.003906 C 194.050781 26.472656 132.261719 45.855469 95.808594 76.847656 C 51.164062 114.800781 28.128906 184.101562 54.367188 246.800781 C 82.3125 313.566406 155.839844 348.226562 221.449219 337.785156 C 280.035156 328.453125 337.632812 282.3125 343.402344 226.96875 C 344.027344 220.96875 346.789062 188.542969 327.421875 160.585938 C 311.417969 137.480469 296.039062 140.15625 271.113281 115.089844 " fill-opacity="1" fill-rule="nonzero"/><path fill="#ffffff" d="M 247.160156 307.699219 C 247.019531 307.699219 246.878906 307.644531 246.773438 307.539062 C 246.5625 307.328125 246.5625 306.984375 246.773438 306.773438 L 330.289062 223.3125 C 330.503906 223.101562 330.847656 223.101562 331.058594 223.3125 C 331.269531 223.527344 331.269531 223.871094 331.058594 224.082031 L 247.542969 307.539062 C 247.4375 307.644531 247.296875 307.699219 247.160156 307.699219 " fill-opacity="1" fill-rule="nonzero"/><path fill="#000000" d="M 293.496094 179.820312 L 211.882812 179.820312 C 211.582031 179.820312 211.339844 179.574219 211.339844 179.277344 C 211.339844 178.976562 211.582031 178.734375 211.882812 178.734375 L 293.496094 178.734375 C 301.0625 178.734375 308.238281 175.851562 313.699219 170.628906 C 319.195312 165.367188 322.328125 158.316406 322.519531 150.777344 C 322.527344 150.464844 322.53125 150.148438 322.53125 149.835938 C 322.53125 143.109375 320.6875 136.550781 317.207031 130.867188 C 317.046875 130.613281 317.128906 130.277344 317.382812 130.121094 C 317.636719 129.964844 317.972656 130.042969 318.128906 130.300781 C 321.722656 136.15625 323.621094 142.910156 323.621094 149.835938 C 323.621094 150.15625 323.617188 150.480469 323.605469 150.804688 C 323.40625 158.632812 320.15625 165.949219 314.449219 171.410156 C 308.785156 176.835938 301.34375 179.820312 293.496094 179.820312 " fill-opacity="1" fill-rule="nonzero"/><path fill="#000000" d="M 307.8125 120.472656 C 307.699219 120.472656 307.589844 120.441406 307.492188 120.371094 C 302.398438 116.671875 296.390625 114.355469 290.121094 113.675781 C 289.894531 113.648438 289.707031 113.488281 289.652344 113.273438 C 286.398438 100.894531 280.355469 89.054688 272.175781 79.035156 C 271.988281 78.804688 272.023438 78.460938 272.253906 78.273438 C 272.484375 78.082031 272.828125 78.117188 273.019531 78.351562 C 281.214844 88.390625 287.292969 100.238281 290.605469 112.636719 C 296.9375 113.386719 302.984375 115.753906 308.132812 119.492188 C 308.375 119.667969 308.425781 120.007812 308.253906 120.25 C 308.144531 120.398438 307.980469 120.472656 307.8125 120.472656 " fill-opacity="1" fill-rule="nonzero"/><path fill="#000000" d="M 269.964844 76.15625 C 269.816406 76.15625 269.667969 76.09375 269.5625 75.976562 C 268.28125 74.542969 266.941406 73.132812 265.574219 71.785156 C 265.359375 71.574219 265.355469 71.230469 265.570312 71.015625 C 265.78125 70.804688 266.125 70.800781 266.335938 71.011719 C 267.71875 72.378906 269.078125 73.804688 270.371094 75.253906 C 270.574219 75.476562 270.550781 75.820312 270.328125 76.019531 C 270.222656 76.113281 270.09375 76.15625 269.964844 76.15625 " fill-opacity="1" fill-rule="nonzero"/><path fill="#000000" d="M 235.875 52.289062 C 235.8125 52.289062 235.742188 52.277344 235.675781 52.253906 C 224.890625 47.945312 213.566406 45.757812 202.015625 45.757812 C 201.523438 45.757812 201.035156 45.761719 200.542969 45.769531 C 200.257812 45.777344 199.996094 45.539062 199.992188 45.238281 C 199.988281 44.9375 200.226562 44.691406 200.523438 44.6875 C 201.023438 44.679688 201.519531 44.671875 202.015625 44.671875 C 213.703125 44.671875 225.164062 46.882812 236.078125 51.242188 C 236.355469 51.355469 236.492188 51.671875 236.382812 51.949219 C 236.296875 52.160156 236.09375 52.289062 235.875 52.289062 " fill-opacity="1" fill-rule="nonzero"/><path fill="#000000" d="M 157.628906 57.289062 C 157.4375 57.289062 157.25 57.191406 157.152344 57.011719 C 157.007812 56.75 157.101562 56.417969 157.363281 56.273438 C 166.425781 51.226562 176.207031 47.773438 186.441406 46.007812 C 186.734375 45.957031 187.015625 46.152344 187.066406 46.449219 C 187.117188 46.746094 186.917969 47.027344 186.625 47.078125 C 176.515625 48.820312 166.847656 52.234375 157.890625 57.222656 C 157.808594 57.269531 157.714844 57.289062 157.628906 57.289062 " fill-opacity="1" fill-rule="nonzero"/><path fill="#000000" d="M 152.949219 60.082031 C 152.773438 60.082031 152.597656 59.992188 152.492188 59.832031 C 152.332031 59.578125 152.40625 59.242188 152.660156 59.082031 C 154.191406 58.101562 155.773438 57.160156 157.363281 56.273438 C 157.625 56.128906 157.957031 56.222656 158.101562 56.484375 C 158.25 56.746094 158.152344 57.074219 157.890625 57.222656 C 156.320312 58.097656 154.757812 59.03125 153.242188 59.996094 C 153.152344 60.054688 153.050781 60.082031 152.949219 60.082031 " fill-opacity="1" fill-rule="nonzero"/><path fill="#000000" d="M 98.230469 123.910156 C 98.058594 123.910156 97.886719 123.828125 97.78125 123.671875 C 97.613281 123.421875 97.675781 123.085938 97.925781 122.917969 C 102.316406 119.941406 107.175781 117.949219 112.378906 116.988281 C 114.050781 109.21875 116.746094 101.675781 120.394531 94.5625 C 120.53125 94.296875 120.859375 94.191406 121.125 94.328125 C 121.394531 94.464844 121.5 94.792969 121.363281 95.058594 C 117.703125 102.195312 115.011719 109.765625 113.367188 117.570312 C 113.320312 117.785156 113.148438 117.953125 112.929688 117.992188 C 107.742188 118.902344 102.898438 120.859375 98.535156 123.816406 C 98.441406 123.878906 98.335938 123.910156 98.230469 123.910156 " fill-opacity="1" fill-rule="nonzero"/><path fill="#000000" d="M 128.824219 179.820312 L 106.363281 179.820312 C 92.53125 179.820312 81.199219 168.625 81.105469 154.867188 L 81.105469 154.601562 C 81.105469 145.066406 84.636719 135.933594 91.050781 128.878906 C 91.421875 128.472656 91.804688 128.070312 92.191406 127.679688 C 92.402344 127.464844 92.746094 127.464844 92.960938 127.675781 C 93.171875 127.886719 93.175781 128.230469 92.964844 128.441406 C 92.585938 128.820312 92.214844 129.214844 91.855469 129.609375 C 85.625 136.460938 82.191406 145.335938 82.191406 154.601562 L 82.195312 154.863281 C 82.285156 168.023438 93.125 178.734375 106.363281 178.734375 L 128.824219 178.734375 C 129.125 178.734375 129.371094 178.976562 129.371094 179.277344 C 129.371094 179.574219 129.125 179.820312 128.824219 179.820312 " fill-opacity="1" fill-rule="nonzero"/><path fill="#5479f7" d="M 319.453125 149.832031 C 319.453125 131.828125 305.15625 117.164062 287.292969 116.554688 C 278.339844 77.757812 243.558594 48.835938 202.015625 48.835938 C 159.015625 48.835938 123.257812 79.832031 115.894531 120.683594 C 98.695312 122.433594 85.269531 136.949219 85.269531 154.601562 C 85.269531 154.679688 85.269531 154.761719 85.273438 154.839844 C 85.351562 166.375 94.816406 175.652344 106.363281 175.652344 L 293.496094 175.652344 C 307.453125 175.652344 319.089844 164.640625 319.445312 150.699219 C 319.453125 150.410156 319.453125 150.121094 319.453125 149.832031 " fill-opacity="1" fill-rule="nonzero"/><path fill="#caddff" d="M 214.226562 99.78125 C 220.910156 110.972656 217.246094 125.464844 206.046875 132.140625 C 194.847656 138.820312 180.347656 135.160156 173.664062 123.96875 C 166.980469 112.777344 170.640625 98.289062 181.84375 91.609375 C 193.042969 84.929688 207.539062 88.585938 214.226562 99.78125 Z M 173.5625 68.796875 L 165.683594 73.496094 L 168.800781 83.011719 C 167.171875 84.425781 165.679688 85.953125 164.339844 87.585938 L 154.742188 84.753906 L 150.269531 92.757812 L 157.730469 99.445312 C 157.039062 101.460938 156.515625 103.527344 156.167969 105.628906 L 146.421875 107.972656 L 146.554688 117.140625 L 156.347656 119.203125 C 156.753906 121.273438 157.339844 123.324219 158.101562 125.34375 L 150.839844 132.242188 L 155.539062 140.113281 L 165.0625 137 C 166.476562 138.628906 168.007812 140.121094 169.640625 141.460938 L 166.804688 151.050781 L 174.816406 155.519531 L 181.507812 148.0625 C 183.523438 148.753906 185.59375 149.277344 187.695312 149.625 L 190.042969 159.363281 L 199.214844 159.230469 L 201.277344 149.445312 C 203.351562 149.042969 205.402344 148.453125 207.421875 147.691406 L 214.324219 154.949219 L 222.203125 150.25 L 219.089844 140.734375 C 220.71875 139.324219 222.210938 137.792969 223.550781 136.160156 L 233.148438 138.996094 L 237.621094 130.992188 L 230.160156 124.304688 C 230.851562 122.289062 231.371094 120.222656 231.722656 118.117188 L 241.46875 115.773438 L 241.332031 106.605469 L 231.542969 104.546875 C 231.136719 102.476562 230.550781 100.421875 229.789062 98.40625 L 237.050781 91.507812 L 232.351562 83.632812 L 222.824219 86.746094 C 221.410156 85.117188 219.882812 83.628906 218.25 82.289062 L 221.085938 72.695312 L 213.074219 68.226562 L 206.382812 75.683594 C 204.367188 74.992188 202.296875 74.472656 200.191406 74.121094 L 197.847656 64.386719 L 188.671875 64.515625 L 186.613281 74.304688 C 184.539062 74.707031 182.484375 75.292969 180.464844 76.058594 L 173.5625 68.796875 " fill-opacity="1" fill-rule="nonzero"/><path fill="#000000" d="M 192.800781 93.195312 C 188.78125 93.195312 184.710938 94.242188 181.015625 96.449219 C 170.089844 102.960938 166.503906 117.144531 173.023438 128.066406 C 179.542969 138.980469 193.738281 142.5625 204.660156 136.046875 C 215.589844 129.535156 219.171875 115.351562 212.65625 104.433594 C 208.339844 97.207031 200.664062 93.195312 192.800781 93.195312 Z M 192.878906 140.386719 C 184.644531 140.386719 176.609375 136.1875 172.089844 128.621094 C 165.265625 117.1875 169.019531 102.335938 180.457031 95.515625 C 191.898438 88.695312 206.757812 92.445312 213.585938 103.875 C 220.414062 115.308594 216.660156 130.160156 205.21875 136.980469 C 201.351562 139.289062 197.089844 140.386719 192.878906 140.386719 Z M 180.402344 151.894531 C 180.460938 151.894531 180.519531 151.902344 180.578125 151.921875 C 182.558594 152.605469 184.613281 153.121094 186.679688 153.464844 C 186.894531 153.5 187.066406 153.660156 187.117188 153.871094 L 189.363281 163.1875 L 197.667969 163.070312 L 199.640625 153.707031 C 199.683594 153.492188 199.851562 153.328125 200.066406 153.285156 C 202.09375 152.890625 204.136719 152.308594 206.125 151.558594 C 206.332031 151.480469 206.558594 151.53125 206.710938 151.695312 L 213.316406 158.636719 L 220.445312 154.382812 L 217.464844 145.277344 C 217.398438 145.070312 217.460938 144.84375 217.625 144.699219 C 219.234375 143.304688 220.714844 141.789062 222.023438 140.191406 C 222.164062 140.023438 222.386719 139.953125 222.597656 140.015625 L 231.78125 142.726562 L 235.828125 135.480469 L 228.691406 129.082031 C 228.527344 128.9375 228.46875 128.707031 228.539062 128.503906 C 229.21875 126.519531 229.738281 124.46875 230.078125 122.402344 C 230.117188 122.1875 230.277344 122.015625 230.488281 121.964844 L 239.8125 119.722656 L 239.691406 111.425781 L 230.324219 109.453125 C 230.105469 109.40625 229.941406 109.238281 229.902344 109.023438 C 229.503906 107 228.925781 104.960938 228.171875 102.96875 C 228.097656 102.765625 228.148438 102.535156 228.308594 102.386719 L 235.253906 95.785156 L 231 88.660156 L 221.886719 91.636719 C 221.679688 91.703125 221.453125 91.640625 221.308594 91.476562 C 219.914062 89.871094 218.398438 88.394531 216.796875 87.082031 C 216.628906 86.945312 216.5625 86.71875 216.621094 86.507812 L 219.335938 77.335938 L 212.082031 73.289062 L 205.683594 80.421875 C 205.535156 80.585938 205.308594 80.644531 205.101562 80.574219 C 203.121094 79.894531 201.066406 79.375 199 79.035156 C 198.785156 78.996094 198.613281 78.835938 198.558594 78.625 L 196.316406 69.308594 L 188.007812 69.425781 L 186.039062 78.792969 C 185.992188 79.003906 185.824219 79.171875 185.609375 79.210938 C 183.582031 79.605469 181.542969 80.1875 179.550781 80.941406 C 179.347656 81.015625 179.117188 80.964844 178.964844 80.804688 L 172.363281 73.859375 L 165.230469 78.113281 L 168.210938 87.21875 C 168.28125 87.425781 168.214844 87.652344 168.050781 87.796875 C 166.445312 89.191406 164.964844 90.707031 163.652344 92.304688 C 163.515625 92.472656 163.289062 92.542969 163.078125 92.480469 L 153.898438 89.769531 L 149.847656 97.019531 L 156.988281 103.414062 C 157.148438 103.558594 157.210938 103.789062 157.140625 103.996094 C 156.460938 105.976562 155.941406 108.027344 155.597656 110.09375 C 155.5625 110.308594 155.402344 110.480469 155.1875 110.53125 L 145.867188 112.773438 L 145.984375 121.074219 L 155.355469 123.042969 C 155.566406 123.089844 155.734375 123.257812 155.777344 123.472656 C 156.171875 125.5 156.753906 127.539062 157.503906 129.527344 C 157.582031 129.730469 157.53125 129.960938 157.371094 130.113281 L 150.421875 136.710938 L 154.679688 143.835938 L 163.789062 140.859375 C 163.996094 140.792969 164.222656 140.855469 164.367188 141.019531 C 165.761719 142.625 167.28125 144.101562 168.878906 145.414062 C 169.046875 145.550781 169.117188 145.777344 169.054688 145.988281 L 166.34375 155.164062 L 173.59375 159.210938 L 179.996094 152.074219 C 180.101562 151.957031 180.246094 151.894531 180.402344 151.894531 Z M 188.9375 164.28125 C 188.683594 164.28125 188.464844 164.109375 188.410156 163.863281 L 186.148438 154.476562 C 184.261719 154.144531 182.386719 153.671875 180.566406 153.066406 L 174.113281 160.257812 C 173.941406 160.445312 173.664062 160.492188 173.445312 160.367188 L 165.433594 155.898438 C 165.210938 155.777344 165.105469 155.515625 165.175781 155.269531 L 167.910156 146.023438 C 166.460938 144.808594 165.070312 143.457031 163.785156 142.003906 L 154.601562 145.003906 C 154.359375 145.082031 154.097656 144.984375 153.96875 144.765625 L 149.265625 136.894531 C 149.136719 136.675781 149.175781 136.398438 149.359375 136.222656 L 156.363281 129.574219 C 155.691406 127.75 155.160156 125.886719 154.78125 124.03125 L 145.335938 122.046875 C 145.089844 121.996094 144.910156 121.777344 144.90625 121.523438 L 144.773438 112.355469 C 144.769531 112.105469 144.941406 111.882812 145.191406 111.820312 L 154.585938 109.558594 C 154.917969 107.675781 155.390625 105.800781 155.996094 103.984375 L 148.800781 97.535156 C 148.609375 97.367188 148.566406 97.085938 148.6875 96.867188 L 153.160156 88.863281 C 153.285156 88.640625 153.546875 88.535156 153.789062 88.605469 L 163.042969 91.339844 C 164.257812 89.886719 165.613281 88.5 167.066406 87.214844 L 164.0625 78.039062 C 163.984375 77.796875 164.082031 77.535156 164.300781 77.402344 L 172.179688 72.707031 C 172.398438 72.574219 172.675781 72.613281 172.851562 72.796875 L 179.507812 79.796875 C 181.332031 79.128906 183.195312 78.597656 185.046875 78.214844 L 187.035156 68.78125 C 187.089844 68.53125 187.308594 68.351562 187.5625 68.347656 L 196.734375 68.214844 C 196.734375 68.214844 196.742188 68.214844 196.742188 68.214844 C 196.992188 68.214844 197.210938 68.390625 197.269531 68.632812 L 199.53125 78.023438 C 201.421875 78.355469 203.292969 78.828125 205.113281 79.429688 L 211.5625 72.242188 C 211.734375 72.050781 212.011719 72.003906 212.234375 72.128906 L 220.242188 76.597656 C 220.464844 76.722656 220.574219 76.984375 220.5 77.226562 L 217.765625 86.472656 C 219.21875 87.691406 220.601562 89.039062 221.890625 90.492188 L 231.074219 87.492188 C 231.316406 87.414062 231.582031 87.511719 231.710938 87.730469 L 236.410156 95.601562 C 236.542969 95.820312 236.503906 96.101562 236.320312 96.273438 L 229.316406 102.925781 C 229.984375 104.75 230.515625 106.609375 230.898438 108.464844 L 240.339844 110.449219 C 240.585938 110.5 240.769531 110.71875 240.773438 110.972656 L 240.902344 120.140625 C 240.90625 120.394531 240.734375 120.617188 240.488281 120.675781 L 231.09375 122.9375 C 230.757812 124.820312 230.289062 126.695312 229.683594 128.511719 L 236.878906 134.960938 C 237.066406 135.128906 237.113281 135.410156 236.988281 135.628906 L 232.515625 143.632812 C 232.394531 143.855469 232.132812 143.964844 231.886719 143.890625 L 222.632812 141.160156 C 221.417969 142.609375 220.066406 143.996094 218.613281 145.28125 L 221.617188 154.457031 C 221.695312 154.699219 221.59375 154.964844 221.375 155.09375 L 213.496094 159.789062 C 213.28125 159.921875 213 159.882812 212.828125 159.699219 L 206.171875 152.699219 C 204.34375 153.367188 202.484375 153.898438 200.625 154.28125 L 198.640625 163.714844 C 198.589844 163.964844 198.371094 164.144531 198.117188 164.148438 L 188.945312 164.28125 C 188.941406 164.28125 188.9375 164.28125 188.9375 164.28125 " fill-opacity="1" fill-rule="nonzero"/><path fill="#caddff" d="M 134.257812 139.980469 C 137.242188 144.980469 135.605469 151.449219 130.605469 154.433594 C 125.601562 157.417969 119.125 155.785156 116.140625 150.78125 C 113.15625 145.785156 114.789062 139.3125 119.792969 136.332031 C 124.796875 133.347656 131.269531 134.984375 134.257812 139.980469 Z M 116.097656 126.144531 L 112.578125 128.242188 L 113.96875 132.492188 C 113.242188 133.125 112.574219 133.804688 111.976562 134.535156 L 107.691406 133.269531 L 105.691406 136.84375 L 109.023438 139.832031 C 108.714844 140.730469 108.484375 141.65625 108.328125 142.59375 L 103.976562 143.640625 L 104.035156 147.734375 L 108.40625 148.65625 C 108.589844 149.578125 108.851562 150.496094 109.191406 151.398438 L 105.945312 154.476562 L 108.046875 157.996094 L 112.300781 156.601562 C 112.933594 157.332031 113.613281 158 114.34375 158.59375 L 113.078125 162.878906 L 116.65625 164.875 L 119.644531 161.542969 C 120.542969 161.851562 121.46875 162.085938 122.40625 162.242188 L 123.457031 166.589844 L 127.550781 166.535156 L 128.472656 162.160156 C 129.398438 161.980469 130.316406 161.71875 131.21875 161.378906 L 134.300781 164.621094 L 137.820312 162.523438 L 136.429688 158.273438 C 137.15625 157.640625 137.824219 156.957031 138.421875 156.230469 L 142.707031 157.496094 L 144.703125 153.921875 L 141.371094 150.933594 C 141.679688 150.035156 141.914062 149.109375 142.070312 148.171875 L 146.421875 147.125 L 146.363281 143.03125 L 141.988281 142.109375 C 141.808594 141.183594 141.546875 140.269531 141.207031 139.367188 L 144.449219 136.285156 L 142.351562 132.769531 L 138.097656 134.160156 C 137.464844 133.433594 136.78125 132.765625 136.054688 132.167969 L 137.320312 127.886719 L 133.742188 125.886719 L 130.753906 129.21875 C 129.851562 128.910156 128.929688 128.675781 127.988281 128.519531 L 126.941406 124.171875 L 122.84375 124.234375 L 121.925781 128.601562 C 120.996094 128.785156 120.082031 129.046875 119.179688 129.386719 L 116.097656 126.144531 " fill-opacity="1" fill-rule="nonzero"/><path fill="#000000" d="M 124.6875 137.339844 C 122.945312 137.339844 121.183594 137.792969 119.578125 138.75 C 114.839844 141.574219 113.289062 147.722656 116.113281 152.457031 C 118.941406 157.191406 125.09375 158.746094 129.832031 155.921875 C 134.570312 153.097656 136.125 146.945312 133.296875 142.210938 C 131.425781 139.078125 128.097656 137.339844 124.6875 137.339844 Z M 124.722656 158.414062 C 120.945312 158.414062 117.253906 156.488281 115.179688 153.011719 C 112.046875 147.765625 113.769531 140.949219 119.023438 137.816406 C 124.273438 134.683594 131.097656 136.40625 134.230469 141.652344 C 137.363281 146.902344 135.640625 153.722656 130.390625 156.851562 C 128.613281 157.910156 126.65625 158.414062 124.722656 158.414062 Z M 119.152344 162.953125 C 119.210938 162.953125 119.269531 162.964844 119.328125 162.984375 C 120.195312 163.28125 121.097656 163.507812 122.003906 163.660156 C 122.21875 163.695312 122.390625 163.855469 122.441406 164.066406 L 123.390625 167.996094 L 126.617188 167.945312 L 127.449219 164.003906 C 127.492188 163.789062 127.664062 163.621094 127.875 163.582031 C 128.765625 163.40625 129.660156 163.152344 130.535156 162.824219 C 130.738281 162.746094 130.96875 162.796875 131.117188 162.957031 L 133.902344 165.882812 L 136.675781 164.230469 L 135.417969 160.394531 C 135.351562 160.183594 135.414062 159.957031 135.578125 159.8125 C 136.285156 159.203125 136.933594 158.535156 137.507812 157.839844 C 137.648438 157.667969 137.871094 157.597656 138.082031 157.660156 L 141.953125 158.804688 L 143.527344 155.984375 L 140.515625 153.289062 C 140.355469 153.144531 140.296875 152.914062 140.367188 152.710938 C 140.664062 151.839844 140.890625 150.941406 141.042969 150.035156 C 141.078125 149.820312 141.238281 149.644531 141.449219 149.59375 L 145.378906 148.648438 L 145.332031 145.421875 L 141.382812 144.59375 C 141.171875 144.546875 141.003906 144.378906 140.964844 144.164062 C 140.789062 143.277344 140.535156 142.382812 140.207031 141.511719 C 140.128906 141.304688 140.179688 141.074219 140.339844 140.925781 L 143.269531 138.144531 L 141.613281 135.375 L 137.773438 136.628906 C 137.566406 136.695312 137.335938 136.632812 137.195312 136.46875 C 136.582031 135.761719 135.917969 135.117188 135.214844 134.539062 C 135.046875 134.402344 134.976562 134.175781 135.039062 133.96875 L 136.183594 130.101562 L 133.363281 128.527344 L 130.664062 131.535156 C 130.519531 131.695312 130.289062 131.753906 130.085938 131.6875 C 129.214844 131.386719 128.3125 131.160156 127.40625 131.007812 C 127.191406 130.972656 127.019531 130.8125 126.96875 130.601562 L 126.023438 126.675781 L 122.792969 126.71875 L 121.960938 130.667969 C 121.917969 130.878906 121.75 131.046875 121.535156 131.085938 C 120.644531 131.261719 119.753906 131.515625 118.878906 131.847656 C 118.671875 131.921875 118.441406 131.867188 118.292969 131.710938 L 115.507812 128.785156 L 112.734375 130.4375 L 113.992188 134.273438 C 114.0625 134.484375 113.996094 134.710938 113.832031 134.855469 C 113.128906 135.464844 112.476562 136.132812 111.902344 136.832031 C 111.765625 137 111.539062 137.070312 111.328125 137.007812 L 107.460938 135.863281 L 105.886719 138.683594 L 108.894531 141.378906 C 109.054688 141.523438 109.117188 141.753906 109.046875 141.960938 C 108.746094 142.828125 108.519531 143.726562 108.371094 144.632812 C 108.332031 144.847656 108.171875 145.023438 107.960938 145.074219 L 104.03125 146.019531 L 104.078125 149.246094 L 108.027344 150.074219 C 108.238281 150.121094 108.40625 150.289062 108.449219 150.503906 C 108.621094 151.390625 108.875 152.285156 109.207031 153.15625 C 109.285156 153.363281 109.230469 153.589844 109.074219 153.742188 L 106.144531 156.523438 L 107.796875 159.296875 L 111.636719 158.039062 C 111.84375 157.972656 112.074219 158.035156 112.21875 158.199219 C 112.828125 158.902344 113.496094 159.550781 114.195312 160.128906 C 114.363281 160.265625 114.433594 160.492188 114.371094 160.703125 L 113.226562 164.566406 L 116.046875 166.140625 L 118.746094 163.132812 C 118.851562 163.019531 119 162.953125 119.152344 162.953125 Z M 122.960938 169.085938 C 122.710938 169.085938 122.492188 168.914062 122.433594 168.671875 L 121.46875 164.667969 C 120.742188 164.53125 120.023438 164.351562 119.316406 164.125 L 116.566406 167.191406 C 116.398438 167.378906 116.117188 167.425781 115.898438 167.300781 L 112.320312 165.304688 C 112.097656 165.183594 111.992188 164.921875 112.0625 164.675781 L 113.230469 160.734375 C 112.671875 160.257812 112.136719 159.738281 111.636719 159.183594 L 107.722656 160.460938 C 107.480469 160.542969 107.214844 160.441406 107.085938 160.222656 L 104.988281 156.710938 C 104.855469 156.492188 104.894531 156.210938 105.078125 156.039062 L 108.066406 153.203125 C 107.816406 152.496094 107.609375 151.78125 107.453125 151.0625 L 103.429688 150.21875 C 103.179688 150.164062 103 149.949219 102.996094 149.695312 L 102.9375 145.601562 C 102.933594 145.347656 103.109375 145.125 103.355469 145.066406 L 107.359375 144.101562 C 107.496094 143.375 107.679688 142.652344 107.902344 141.949219 L 104.835938 139.199219 C 104.648438 139.03125 104.601562 138.753906 104.726562 138.53125 L 106.722656 134.957031 C 106.847656 134.734375 107.105469 134.628906 107.351562 134.699219 L 111.296875 135.867188 C 111.773438 135.308594 112.292969 134.777344 112.847656 134.273438 L 111.566406 130.363281 C 111.488281 130.121094 111.589844 129.859375 111.804688 129.726562 L 115.324219 127.628906 C 115.542969 127.5 115.820312 127.539062 115.996094 127.722656 L 118.832031 130.707031 C 119.539062 130.453125 120.257812 130.25 120.972656 130.09375 L 121.820312 126.074219 C 121.871094 125.824219 122.089844 125.644531 122.34375 125.640625 L 126.441406 125.582031 C 126.441406 125.582031 126.445312 125.582031 126.449219 125.582031 C 126.699219 125.582031 126.917969 125.753906 126.976562 126 L 127.941406 130 C 128.667969 130.136719 129.390625 130.320312 130.09375 130.542969 L 132.84375 127.480469 C 133.015625 127.289062 133.292969 127.246094 133.515625 127.367188 L 137.09375 129.363281 C 137.3125 129.488281 137.417969 129.746094 137.347656 129.988281 L 136.183594 133.933594 C 136.738281 134.410156 137.273438 134.929688 137.773438 135.484375 L 141.6875 134.207031 C 141.929688 134.125 142.195312 134.226562 142.324219 134.445312 L 144.425781 137.960938 C 144.554688 138.175781 144.515625 138.457031 144.332031 138.632812 L 141.347656 141.46875 C 141.597656 142.171875 141.800781 142.886719 141.957031 143.605469 L 145.980469 144.453125 C 146.230469 144.503906 146.410156 144.71875 146.414062 144.972656 L 146.472656 149.066406 C 146.476562 149.320312 146.304688 149.542969 146.058594 149.605469 L 142.050781 150.566406 C 141.914062 151.292969 141.734375 152.015625 141.507812 152.71875 L 144.574219 155.46875 C 144.765625 155.636719 144.808594 155.914062 144.6875 156.136719 L 142.6875 159.710938 C 142.566406 159.933594 142.304688 160.039062 142.058594 159.96875 L 138.117188 158.804688 C 137.636719 159.359375 137.117188 159.890625 136.5625 160.394531 L 137.84375 164.304688 C 137.921875 164.546875 137.824219 164.8125 137.605469 164.941406 L 134.085938 167.039062 C 133.867188 167.167969 133.589844 167.128906 133.414062 166.949219 L 130.578125 163.964844 C 129.871094 164.214844 129.15625 164.417969 128.4375 164.574219 L 127.589844 168.597656 C 127.539062 168.84375 127.320312 169.023438 127.066406 169.027344 L 122.96875 169.085938 C 122.96875 169.085938 122.964844 169.085938 122.960938 169.085938 " fill-opacity="1" fill-rule="nonzero"/><path fill="#000000" d="M 323.910156 324.054688 L 281.496094 324.054688 C 281.199219 324.054688 280.953125 323.8125 280.953125 323.511719 C 280.953125 323.210938 281.199219 322.96875 281.496094 322.96875 L 323.910156 322.96875 C 327.339844 322.96875 330.132812 320.179688 330.132812 316.75 L 330.132812 301.558594 C 330.132812 298.128906 327.339844 295.339844 323.910156 295.339844 L 252.035156 295.339844 C 248.003906 295.339844 244.726562 292.0625 244.726562 288.035156 L 244.726562 277.078125 C 244.726562 273.648438 241.933594 270.859375 238.5 270.859375 L 233.203125 270.859375 C 229.171875 270.859375 225.894531 267.582031 225.894531 263.554688 L 225.894531 194.402344 C 225.894531 190.972656 223.101562 188.183594 219.671875 188.183594 L 159.40625 188.183594 C 159.105469 188.183594 158.863281 187.9375 158.863281 187.640625 C 158.863281 187.339844 159.105469 187.097656 159.40625 187.097656 L 219.671875 187.097656 C 223.703125 187.097656 226.980469 190.371094 226.980469 194.402344 L 226.980469 263.554688 C 226.980469 266.984375 229.773438 269.773438 233.203125 269.773438 L 238.5 269.773438 C 242.53125 269.773438 245.808594 273.050781 245.808594 277.078125 L 245.808594 288.035156 C 245.808594 291.464844 248.605469 294.253906 252.035156 294.253906 L 323.910156 294.253906 C 327.9375 294.253906 331.21875 297.53125 331.21875 301.558594 L 331.21875 316.75 C 331.21875 320.777344 327.9375 324.054688 323.910156 324.054688 " fill-opacity="1" fill-rule="nonzero"/><path fill="#000000" d="M 151.378906 183.722656 C 149.21875 183.722656 147.457031 185.480469 147.457031 187.640625 C 147.457031 189.800781 149.21875 191.558594 151.378906 191.558594 C 153.539062 191.558594 155.296875 189.800781 155.296875 187.640625 C 155.296875 185.480469 153.539062 183.722656 151.378906 183.722656 Z M 151.378906 192.644531 C 148.617188 192.644531 146.371094 190.398438 146.371094 187.640625 C 146.371094 184.882812 148.617188 182.636719 151.378906 182.636719 C 154.136719 182.636719 156.386719 184.882812 156.386719 187.640625 C 156.386719 190.398438 154.136719 192.644531 151.378906 192.644531 " fill-opacity="1" fill-rule="nonzero"/><path fill="#99b9ff" d="M 116.804688 314.828125 C 120.421875 311.875 124.21875 309.125 128.105469 306.496094 C 135.996094 301.167969 144.3125 296.40625 152.71875 291.789062 C 157.140625 289.363281 161.730469 287.164062 166.261719 284.90625 C 170.820312 282.632812 175.394531 280.378906 179.964844 278.128906 C 184.144531 276.070312 188.320312 274.015625 192.492188 271.945312 C 201.972656 239.917969 212.269531 203.605469 210.226562 203.605469 L 54.78125 199.222656 C 51.125 199.222656 48.667969 202.199219 49.3125 205.855469 L 68.148438 313.183594 C 68.789062 316.839844 72.289062 319.816406 75.949219 319.816406 L 110.539062 319.816406 C 112.578125 318.101562 114.742188 316.515625 116.804688 314.828125 " fill-opacity="1" fill-rule="nonzero"/><path fill="#000000" d="M 210.203125 204.152344 C 210.210938 204.152344 210.214844 204.152344 210.226562 204.152344 Z M 54.765625 199.765625 C 53.195312 199.765625 51.808594 200.375 50.878906 201.480469 C 49.925781 202.617188 49.558594 204.132812 49.84375 205.761719 L 68.683594 313.09375 C 69.28125 316.5 72.539062 319.273438 75.949219 319.273438 L 110.339844 319.273438 C 111.449219 318.347656 112.609375 317.445312 113.726562 316.570312 C 114.632812 315.867188 115.566406 315.140625 116.460938 314.40625 C 119.808594 311.675781 123.519531 308.941406 127.800781 306.046875 C 136.148438 300.410156 144.949219 295.4375 152.457031 291.3125 C 155.890625 289.429688 159.476562 287.65625 162.945312 285.941406 C 163.972656 285.4375 164.996094 284.929688 166.019531 284.417969 C 170.542969 282.164062 175.082031 279.925781 179.726562 277.640625 C 183.832031 275.621094 187.9375 273.597656 192.039062 271.566406 C 208.507812 215.90625 210.152344 205.738281 209.945312 204.140625 Z M 110.738281 320.359375 L 75.949219 320.359375 C 72.035156 320.359375 68.296875 317.183594 67.613281 313.28125 L 48.773438 205.949219 C 48.433594 204 48.886719 202.164062 50.046875 200.78125 C 51.1875 199.429688 52.867188 198.679688 54.78125 198.679688 L 210.238281 203.066406 C 210.449219 203.066406 210.65625 203.171875 210.796875 203.359375 C 211.296875 204.03125 212.632812 205.816406 193.015625 272.097656 L 192.949219 272.324219 L 192.734375 272.429688 C 188.5625 274.5 184.382812 276.558594 180.207031 278.613281 C 175.566406 280.902344 171.023438 283.136719 166.507812 285.390625 C 165.480469 285.902344 164.453125 286.410156 163.425781 286.917969 C 159.96875 288.625 156.394531 290.390625 152.980469 292.265625 C 145.496094 296.375 136.722656 301.335938 128.410156 306.945312 C 124.152344 309.824219 120.46875 312.539062 117.148438 315.25 C 116.242188 315.988281 115.304688 316.71875 114.398438 317.425781 C 113.234375 318.335938 112.027344 319.273438 110.886719 320.234375 L 110.738281 320.359375 " fill-opacity="1" fill-rule="nonzero"/><path fill="#ffffff" d="M 214.660156 199.597656 L 58.003906 199.597656 C 54.546875 199.597656 52.234375 202.398438 52.84375 205.855469 L 71.679688 313.183594 C 72.285156 316.640625 75.582031 319.441406 79.039062 319.441406 L 235.691406 319.441406 C 239.152344 319.441406 241.464844 316.640625 240.855469 313.183594 L 222.019531 205.855469 C 221.414062 202.398438 218.117188 199.597656 214.660156 199.597656 " fill-opacity="1" fill-rule="nonzero"/><path fill="#000000" d="M 58.003906 200.140625 C 56.515625 200.140625 55.214844 200.710938 54.34375 201.746094 C 53.453125 202.808594 53.109375 204.234375 53.378906 205.761719 L 72.214844 313.09375 C 72.777344 316.292969 75.835938 318.898438 79.039062 318.898438 L 235.691406 318.898438 C 237.183594 318.898438 238.484375 318.328125 239.355469 317.292969 C 240.246094 316.234375 240.589844 314.808594 240.320312 313.28125 L 221.484375 205.949219 C 220.921875 202.746094 217.859375 200.140625 214.660156 200.140625 Z M 235.691406 319.984375 L 79.039062 319.984375 C 75.335938 319.984375 71.792969 316.976562 71.144531 313.28125 L 52.308594 205.949219 C 51.984375 204.097656 52.410156 202.359375 53.511719 201.046875 C 54.589844 199.761719 56.1875 199.054688 58.003906 199.054688 L 214.660156 199.054688 C 218.363281 199.054688 221.90625 202.0625 222.554688 205.761719 L 241.390625 313.09375 C 241.714844 314.941406 241.289062 316.683594 240.1875 317.992188 C 239.109375 319.277344 237.511719 319.984375 235.691406 319.984375 " fill-opacity="1" fill-rule="nonzero"/><path fill="#99b9ff" d="M 142.457031 319.921875 L 78.503906 319.921875 C 75.925781 319.921875 73.828125 322.015625 73.828125 324.59375 C 73.828125 327.171875 75.925781 329.265625 78.503906 329.265625 L 144.367188 329.265625 C 146.945312 329.265625 142.457031 319.921875 142.457031 319.921875 " fill-opacity="1" fill-rule="nonzero"/><path fill="#000000" d="M 78.503906 320.464844 C 76.226562 320.464844 74.371094 322.316406 74.371094 324.59375 C 74.371094 326.871094 76.226562 328.722656 78.503906 328.722656 L 144.367188 328.722656 C 144.476562 328.722656 144.496094 328.695312 144.519531 328.660156 C 145.039062 327.832031 143.695312 323.832031 142.113281 320.464844 Z M 144.367188 329.808594 L 78.503906 329.808594 C 75.628906 329.808594 73.285156 327.46875 73.285156 324.59375 C 73.285156 321.71875 75.628906 319.378906 78.503906 319.378906 L 142.796875 319.378906 L 142.945312 319.6875 C 143.5625 320.964844 146.570312 327.441406 145.4375 329.238281 C 145.207031 329.605469 144.824219 329.808594 144.367188 329.808594 " fill-opacity="1" fill-rule="nonzero"/><path fill="#ffffff" d="M 271.980469 319.921875 L 121.015625 319.921875 C 118.433594 319.921875 116.339844 322.011719 116.339844 324.59375 C 116.339844 327.171875 118.433594 329.265625 121.015625 329.265625 L 271.980469 329.265625 C 274.5625 329.265625 276.65625 327.171875 276.65625 324.59375 C 276.65625 322.011719 274.5625 319.921875 271.980469 319.921875 " fill-opacity="1" fill-rule="nonzero"/><path fill="#000000" d="M 121.015625 320.464844 C 118.738281 320.464844 116.882812 322.316406 116.882812 324.59375 C 116.882812 326.871094 118.738281 328.722656 121.015625 328.722656 L 271.980469 328.722656 C 274.257812 328.722656 276.113281 326.871094 276.113281 324.59375 C 276.113281 322.316406 274.257812 320.464844 271.980469 320.464844 Z M 271.980469 329.808594 L 121.015625 329.808594 C 118.140625 329.808594 115.796875 327.46875 115.796875 324.59375 C 115.796875 321.71875 118.140625 319.378906 121.015625 319.378906 L 271.980469 319.378906 C 274.859375 319.378906 277.199219 321.71875 277.199219 324.59375 C 277.199219 327.46875 274.859375 329.808594 271.980469 329.808594 " fill-opacity="1" fill-rule="nonzero"/><path fill="#99b9ff" d="M 210.984375 208.566406 L 64.828125 208.566406 C 63.3125 208.566406 62.296875 209.796875 62.566406 211.308594 L 62.917969 213.328125 C 63.183594 214.84375 64.628906 216.074219 66.148438 216.074219 L 212.304688 216.074219 C 213.816406 216.074219 214.832031 214.84375 214.566406 213.328125 L 214.210938 211.308594 C 213.945312 209.796875 212.5 208.566406 210.984375 208.566406 " fill-opacity="1" fill-rule="nonzero"/><path fill="#ffffff" d="M 210.933594 212.320312 C 211.109375 213.316406 210.441406 214.128906 209.441406 214.128906 C 208.445312 214.128906 207.492188 213.316406 207.316406 212.320312 C 207.140625 211.320312 207.808594 210.511719 208.808594 210.511719 C 209.808594 210.511719 210.761719 211.320312 210.933594 212.320312 " fill-opacity="1" fill-rule="nonzero"/><path fill="#99b9ff" d="M 146.578125 223.125 C 146.554688 223.125 146.53125 223.125 146.503906 223.121094 C 145.082031 222.929688 143.644531 222.808594 142.230469 222.761719 C 141.929688 222.75 141.695312 222.5 141.707031 222.199219 C 141.714844 221.898438 141.964844 221.664062 142.269531 221.675781 C 143.71875 221.726562 145.191406 221.851562 146.648438 222.046875 C 146.945312 222.085938 147.15625 222.355469 147.117188 222.65625 C 147.078125 222.929688 146.84375 223.125 146.578125 223.125 Z M 133.59375 223.339844 C 133.332031 223.339844 133.105469 223.152344 133.058594 222.890625 C 133.007812 222.59375 133.203125 222.3125 133.5 222.261719 C 134.921875 222.011719 136.394531 221.835938 137.867188 221.738281 C 138.164062 221.71875 138.425781 221.945312 138.445312 222.246094 C 138.464844 222.542969 138.238281 222.800781 137.941406 222.820312 C 136.503906 222.917969 135.074219 223.085938 133.6875 223.328125 C 133.65625 223.335938 133.625 223.339844 133.59375 223.339844 Z M 155.035156 225.0625 C 154.980469 225.0625 154.925781 225.050781 154.867188 225.035156 C 153.503906 224.589844 152.109375 224.203125 150.726562 223.886719 C 150.4375 223.820312 150.253906 223.527344 150.320312 223.238281 C 150.386719 222.941406 150.679688 222.761719 150.972656 222.828125 C 152.386719 223.152344 153.808594 223.546875 155.203125 224.003906 C 155.488281 224.097656 155.644531 224.402344 155.554688 224.6875 C 155.476562 224.917969 155.265625 225.0625 155.035156 225.0625 Z M 125.285156 225.8125 C 125.078125 225.8125 124.875 225.691406 124.785156 225.488281 C 124.667969 225.214844 124.792969 224.894531 125.070312 224.773438 C 126.402344 224.195312 127.796875 223.6875 129.210938 223.269531 C 129.5 223.183594 129.800781 223.347656 129.886719 223.632812 C 129.972656 223.921875 129.808594 224.222656 129.519531 224.308594 C 128.148438 224.714844 126.796875 225.207031 125.503906 225.769531 C 125.429688 225.800781 125.359375 225.8125 125.285156 225.8125 Z M 163.027344 228.445312 C 162.945312 228.445312 162.859375 228.425781 162.777344 228.382812 C 161.507812 227.714844 160.199219 227.09375 158.890625 226.542969 C 158.617188 226.425781 158.488281 226.105469 158.605469 225.832031 C 158.722656 225.554688 159.039062 225.425781 159.316406 225.542969 C 160.652344 226.105469 161.988281 226.742188 163.28125 227.421875 C 163.550781 227.5625 163.652344 227.890625 163.511719 228.15625 C 163.414062 228.339844 163.222656 228.445312 163.027344 228.445312 Z M 117.839844 230.238281 C 117.675781 230.238281 117.515625 230.167969 117.410156 230.03125 C 117.226562 229.796875 117.265625 229.457031 117.503906 229.269531 C 118.652344 228.367188 119.875 227.53125 121.140625 226.777344 C 121.398438 226.625 121.734375 226.710938 121.886719 226.96875 C 122.039062 227.226562 121.957031 227.558594 121.695312 227.710938 C 120.472656 228.441406 119.285156 229.253906 118.171875 230.121094 C 118.074219 230.203125 117.957031 230.238281 117.839844 230.238281 Z M 170.363281 233.085938 C 170.25 233.085938 170.136719 233.050781 170.039062 232.980469 C 168.894531 232.121094 167.703125 231.296875 166.5 230.535156 C 166.246094 230.375 166.171875 230.039062 166.332031 229.789062 C 166.492188 229.535156 166.828125 229.460938 167.082031 229.621094 C 168.308594 230.394531 169.523438 231.234375 170.691406 232.113281 C 170.929688 232.289062 170.980469 232.632812 170.800781 232.871094 C 170.691406 233.011719 170.53125 233.085938 170.363281 233.085938 Z M 111.785156 236.425781 C 111.671875 236.425781 111.554688 236.394531 111.457031 236.320312 C 111.21875 236.140625 111.167969 235.800781 111.347656 235.558594 C 112.230469 234.386719 113.195312 233.257812 114.21875 232.210938 C 114.429688 231.996094 114.773438 231.992188 114.988281 232.203125 C 115.203125 232.410156 115.207031 232.757812 114.996094 232.96875 C 114.003906 233.984375 113.070312 235.074219 112.21875 236.210938 C 112.113281 236.351562 111.949219 236.425781 111.785156 236.425781 Z M 176.882812 238.824219 C 176.742188 238.824219 176.601562 238.769531 176.496094 238.660156 C 175.5 237.636719 174.449219 236.636719 173.378906 235.691406 C 173.152344 235.496094 173.132812 235.152344 173.328125 234.925781 C 173.527344 234.703125 173.871094 234.679688 174.097656 234.878906 C 175.1875 235.839844 176.257812 236.859375 177.273438 237.902344 C 177.480469 238.117188 177.476562 238.460938 177.261719 238.667969 C 177.15625 238.773438 177.019531 238.824219 176.882812 238.824219 Z M 107.53125 243.976562 C 107.460938 243.976562 107.394531 243.964844 107.328125 243.9375 C 107.046875 243.824219 106.914062 243.507812 107.027344 243.230469 C 107.578125 241.867188 108.222656 240.527344 108.941406 239.253906 C 109.085938 238.992188 109.417969 238.902344 109.679688 239.046875 C 109.941406 239.195312 110.035156 239.527344 109.886719 239.785156 C 109.191406 241.019531 108.570312 242.316406 108.035156 243.636719 C 107.949219 243.847656 107.746094 243.976562 107.53125 243.976562 Z M 182.421875 245.503906 C 182.253906 245.503906 182.085938 245.425781 181.980469 245.273438 C 181.160156 244.109375 180.285156 242.960938 179.367188 241.855469 C 179.175781 241.628906 179.207031 241.285156 179.4375 241.09375 C 179.671875 240.902344 180.011719 240.933594 180.203125 241.164062 C 181.136719 242.289062 182.035156 243.464844 182.867188 244.652344 C 183.039062 244.894531 182.980469 245.234375 182.734375 245.40625 C 182.640625 245.472656 182.53125 245.503906 182.421875 245.503906 Z M 105.285156 252.34375 C 105.257812 252.34375 105.230469 252.339844 105.203125 252.335938 C 104.910156 252.292969 104.703125 252.019531 104.746094 251.71875 C 104.957031 250.261719 105.253906 248.8125 105.628906 247.410156 C 105.707031 247.117188 106.003906 246.949219 106.292969 247.023438 C 106.582031 247.101562 106.753906 247.398438 106.679688 247.6875 C 106.3125 249.050781 106.023438 250.460938 105.820312 251.875 C 105.78125 252.148438 105.550781 252.34375 105.285156 252.34375 Z M 186.808594 252.992188 C 186.609375 252.992188 186.414062 252.878906 186.320312 252.683594 C 185.707031 251.402344 185.03125 250.125 184.304688 248.890625 C 184.152344 248.628906 184.238281 248.296875 184.5 248.144531 C 184.757812 247.992188 185.089844 248.082031 185.242188 248.339844 C 185.984375 249.605469 186.675781 250.910156 187.300781 252.214844 C 187.429688 252.484375 187.3125 252.808594 187.042969 252.941406 C 186.96875 252.972656 186.886719 252.992188 186.808594 252.992188 Z M 105.003906 261.003906 C 104.71875 261.003906 104.484375 260.789062 104.460938 260.503906 C 104.382812 259.457031 104.34375 258.40625 104.34375 257.375 C 104.34375 256.949219 104.351562 256.527344 104.363281 256.105469 C 104.371094 255.804688 104.617188 255.566406 104.921875 255.578125 C 105.222656 255.589844 105.460938 255.839844 105.449219 256.136719 C 105.4375 256.546875 105.429688 256.960938 105.429688 257.375 C 105.429688 258.378906 105.46875 259.40625 105.542969 260.421875 C 105.566406 260.71875 105.34375 260.980469 105.042969 261.003906 C 105.03125 261.003906 105.015625 261.003906 105.003906 261.003906 Z M 189.84375 261.117188 C 189.605469 261.117188 189.386719 260.960938 189.320312 260.71875 C 188.945312 259.351562 188.503906 257.976562 188 256.632812 C 187.894531 256.355469 188.039062 256.039062 188.320312 255.933594 C 188.597656 255.832031 188.914062 255.972656 189.015625 256.253906 C 189.53125 257.628906 189.984375 259.03125 190.367188 260.429688 C 190.449219 260.71875 190.277344 261.019531 189.988281 261.097656 C 189.941406 261.109375 189.890625 261.117188 189.84375 261.117188 Z M 106.492188 269.546875 C 106.253906 269.546875 106.035156 269.390625 105.96875 269.148438 C 105.582031 267.738281 105.257812 266.300781 105.007812 264.875 C 104.957031 264.582031 105.152344 264.296875 105.445312 264.242188 C 105.734375 264.1875 106.019531 264.371094 106.074219 264.664062 C 106.324219 266.082031 106.640625 267.484375 107.015625 268.863281 C 107.09375 269.148438 106.925781 269.449219 106.636719 269.527344 C 106.585938 269.539062 106.539062 269.546875 106.492188 269.546875 Z M 191.328125 269.632812 C 191.046875 269.632812 190.808594 269.414062 190.789062 269.128906 C 190.683594 267.726562 190.503906 266.296875 190.253906 264.875 C 190.199219 264.582031 190.398438 264.300781 190.695312 264.25 C 190.992188 264.195312 191.269531 264.394531 191.324219 264.6875 C 191.578125 266.144531 191.765625 267.609375 191.871094 269.050781 C 191.894531 269.347656 191.671875 269.609375 191.371094 269.632812 C 191.355469 269.632812 191.34375 269.632812 191.328125 269.632812 Z M 109.53125 277.671875 C 109.328125 277.671875 109.132812 277.558594 109.039062 277.363281 C 108.40625 276.042969 107.828125 274.683594 107.320312 273.324219 C 107.214844 273.042969 107.359375 272.730469 107.640625 272.625 C 107.921875 272.519531 108.234375 272.664062 108.335938 272.945312 C 108.835938 274.273438 109.402344 275.601562 110.019531 276.894531 C 110.148438 277.164062 110.035156 277.488281 109.765625 277.621094 C 109.6875 277.65625 109.609375 277.671875 109.53125 277.671875 Z M 191.054688 278.296875 C 191.027344 278.296875 191.003906 278.292969 190.976562 278.289062 C 190.679688 278.246094 190.472656 277.972656 190.515625 277.675781 C 190.714844 276.28125 190.839844 274.847656 190.882812 273.414062 C 190.894531 273.113281 191.136719 272.878906 191.445312 272.886719 C 191.746094 272.898438 191.980469 273.144531 191.972656 273.445312 C 191.925781 274.921875 191.796875 276.394531 191.589844 277.828125 C 191.550781 278.101562 191.320312 278.296875 191.054688 278.296875 Z M 113.917969 285.15625 C 113.746094 285.15625 113.578125 285.078125 113.472656 284.925781 C 112.628906 283.730469 111.832031 282.488281 111.097656 281.238281 C 110.949219 280.980469 111.035156 280.644531 111.292969 280.496094 C 111.550781 280.34375 111.882812 280.429688 112.035156 280.6875 C 112.753906 281.914062 113.535156 283.128906 114.363281 284.300781 C 114.535156 284.546875 114.476562 284.886719 114.230469 285.058594 C 114.136719 285.125 114.027344 285.15625 113.917969 285.15625 Z M 188.808594 286.664062 C 188.742188 286.664062 188.671875 286.648438 188.605469 286.621094 C 188.328125 286.511719 188.191406 286.195312 188.304688 285.914062 C 188.835938 284.609375 189.289062 283.246094 189.660156 281.863281 C 189.738281 281.574219 190.035156 281.402344 190.324219 281.480469 C 190.613281 281.558594 190.785156 281.855469 190.707031 282.144531 C 190.328125 283.566406 189.859375 284.972656 189.3125 286.324219 C 189.226562 286.535156 189.023438 286.664062 188.808594 286.664062 Z M 119.460938 291.839844 C 119.316406 291.839844 119.175781 291.785156 119.070312 291.675781 C 118.054688 290.628906 117.066406 289.53125 116.136719 288.410156 C 115.945312 288.179688 115.976562 287.839844 116.210938 287.648438 C 116.441406 287.457031 116.78125 287.488281 116.972656 287.71875 C 117.886719 288.816406 118.851562 289.890625 119.847656 290.917969 C 120.058594 291.132812 120.054688 291.476562 119.839844 291.683594 C 119.734375 291.789062 119.597656 291.839844 119.460938 291.839844 Z M 184.558594 294.210938 C 184.445312 294.210938 184.332031 294.179688 184.234375 294.105469 C 183.992188 293.925781 183.945312 293.582031 184.121094 293.34375 C 184.972656 292.210938 185.757812 291.007812 186.453125 289.765625 C 186.597656 289.507812 186.929688 289.414062 187.191406 289.558594 C 187.453125 289.707031 187.546875 290.039062 187.402344 290.296875 C 186.679688 291.582031 185.867188 292.824219 184.992188 293.992188 C 184.886719 294.136719 184.722656 294.210938 184.558594 294.210938 Z M 125.976562 297.570312 C 125.863281 297.570312 125.75 297.535156 125.652344 297.464844 C 124.488281 296.589844 123.34375 295.660156 122.25 294.695312 C 122.023438 294.496094 122 294.15625 122.199219 293.929688 C 122.398438 293.707031 122.742188 293.683594 122.964844 293.882812 C 124.039062 294.824219 125.164062 295.738281 126.304688 296.59375 C 126.542969 296.773438 126.59375 297.113281 126.414062 297.355469 C 126.308594 297.496094 126.144531 297.570312 125.976562 297.570312 Z M 178.507812 300.402344 C 178.347656 300.402344 178.1875 300.332031 178.078125 300.195312 C 177.894531 299.960938 177.9375 299.621094 178.171875 299.433594 C 179.289062 298.554688 180.355469 297.597656 181.347656 296.585938 C 181.558594 296.371094 181.902344 296.367188 182.117188 296.578125 C 182.332031 296.785156 182.332031 297.128906 182.125 297.34375 C 181.101562 298.390625 179.996094 299.382812 178.84375 300.285156 C 178.742188 300.367188 178.625 300.402344 178.507812 300.402344 Z M 133.316406 302.210938 C 133.230469 302.210938 133.144531 302.191406 133.0625 302.152344 C 131.777344 301.472656 130.5 300.734375 129.265625 299.953125 C 129.011719 299.792969 128.933594 299.457031 129.09375 299.207031 C 129.257812 298.953125 129.59375 298.875 129.84375 299.035156 C 131.058594 299.800781 132.308594 300.527344 133.570312 301.1875 C 133.835938 301.328125 133.9375 301.65625 133.796875 301.921875 C 133.699219 302.109375 133.511719 302.210938 133.316406 302.210938 Z M 171.0625 304.832031 C 170.851562 304.832031 170.652344 304.710938 170.5625 304.507812 C 170.441406 304.230469 170.570312 303.910156 170.84375 303.789062 C 172.152344 303.222656 173.433594 302.566406 174.648438 301.847656 C 174.90625 301.691406 175.238281 301.777344 175.394531 302.035156 C 175.546875 302.292969 175.460938 302.625 175.203125 302.777344 C 173.949219 303.523438 172.628906 304.199219 171.277344 304.785156 C 171.207031 304.816406 171.132812 304.832031 171.0625 304.832031 Z M 141.308594 305.59375 C 141.253906 305.59375 141.199219 305.585938 141.140625 305.566406 C 139.761719 305.121094 138.378906 304.601562 137.03125 304.027344 C 136.753906 303.910156 136.625 303.59375 136.742188 303.316406 C 136.859375 303.042969 137.175781 302.914062 137.453125 303.03125 C 138.773438 303.589844 140.128906 304.097656 141.476562 304.535156 C 141.761719 304.628906 141.917969 304.933594 141.828125 305.21875 C 141.753906 305.449219 141.539062 305.59375 141.308594 305.59375 Z M 162.753906 307.308594 C 162.496094 307.308594 162.265625 307.125 162.21875 306.863281 C 162.167969 306.566406 162.363281 306.285156 162.660156 306.230469 C 164.074219 305.984375 165.476562 305.65625 166.824219 305.253906 C 167.113281 305.167969 167.417969 305.332031 167.5 305.617188 C 167.585938 305.90625 167.421875 306.207031 167.136719 306.292969 C 165.746094 306.707031 164.300781 307.046875 162.847656 307.300781 C 162.816406 307.308594 162.785156 307.308594 162.753906 307.308594 Z M 149.773438 307.527344 C 149.746094 307.527344 149.722656 307.527344 149.699219 307.523438 C 148.261719 307.332031 146.808594 307.070312 145.375 306.742188 C 145.082031 306.671875 144.898438 306.382812 144.96875 306.089844 C 145.035156 305.796875 145.324219 305.613281 145.617188 305.683594 C 147.015625 306.003906 148.4375 306.261719 149.84375 306.445312 C 150.140625 306.484375 150.347656 306.757812 150.308594 307.054688 C 150.273438 307.328125 150.039062 307.527344 149.773438 307.527344 Z M 155.640625 307.917969 C 155.121094 307.917969 154.597656 307.910156 154.078125 307.890625 C 153.777344 307.878906 153.542969 307.628906 153.554688 307.328125 C 153.566406 307.027344 153.816406 306.792969 154.117188 306.804688 C 155.550781 306.855469 157 306.835938 158.40625 306.742188 C 158.703125 306.722656 158.964844 306.949219 158.984375 307.25 C 159.003906 307.546875 158.777344 307.808594 158.476562 307.824219 C 157.546875 307.886719 156.589844 307.917969 155.640625 307.917969 " fill-opacity="1" fill-rule="nonzero"/><path fill="#caddff" d="M 153.355469 294.363281 C 137.011719 294.363281 121.433594 281.117188 118.566406 264.785156 C 115.699219 248.445312 126.628906 235.207031 142.976562 235.207031 C 159.320312 235.207031 174.898438 248.445312 177.765625 264.785156 C 180.632812 281.117188 169.703125 294.363281 153.355469 294.363281 Z M 141.78125 228.398438 C 121.671875 228.398438 108.230469 244.6875 111.757812 264.785156 C 115.285156 284.875 134.445312 301.167969 154.550781 301.167969 C 174.660156 301.167969 188.101562 284.875 184.578125 264.785156 C 181.050781 244.6875 161.890625 228.398438 141.78125 228.398438 " fill-opacity="1" fill-rule="nonzero"/><path fill="#5479f7" d="M 122.960938 244.636719 L 117.296875 239.820312 C 115.957031 241.566406 114.816406 243.472656 113.894531 245.519531 L 120.382812 248.953125 C 121.089844 247.410156 121.957031 245.964844 122.960938 244.636719 " fill-opacity="1" fill-rule="nonzero"/><path fill="#99b9ff" d="M 142.851562 228.414062 L 144.046875 235.226562 C 151.164062 235.476562 158.085938 238.207031 163.820312 242.578125 L 167.636719 237.628906 C 160.472656 232.109375 151.78125 228.667969 142.851562 228.414062 " fill-opacity="1" fill-rule="nonzero"/><path fill="#5479f7" d="M 165.625 244.039062 C 171.816406 249.378906 176.347656 256.699219 177.765625 264.785156 C 178.214844 267.339844 178.324219 269.824219 178.128906 272.191406 L 184.996094 274.183594 C 185.269531 271.183594 185.148438 268.03125 184.578125 264.785156 C 182.816406 254.753906 177.164062 245.675781 169.441406 239.09375 L 165.625 244.039062 " fill-opacity="1" fill-rule="nonzero"/><path fill="#99b9ff" d="M 173.371094 284.929688 L 179.035156 289.746094 C 181.96875 285.925781 183.953125 281.324219 184.746094 276.222656 L 177.882812 274.230469 C 177.230469 278.253906 175.667969 281.890625 173.371094 284.929688 " fill-opacity="1" fill-rule="nonzero"/><path fill="#99b9ff" d="M 130.707031 285.523438 C 124.515625 280.1875 119.984375 272.863281 118.566406 264.785156 C 117.679688 259.722656 118.117188 254.957031 119.628906 250.789062 L 113.140625 247.355469 C 111.214844 252.53125 110.648438 258.46875 111.757812 264.785156 C 113.515625 274.8125 119.171875 283.890625 126.894531 290.472656 L 130.707031 285.523438 " fill-opacity="1" fill-rule="nonzero"/><path fill="#5479f7" d="M 172.128906 286.433594 C 167.90625 291.128906 161.742188 294.078125 154.417969 294.339844 L 155.617188 301.152344 C 164.816406 300.886719 172.550781 297.171875 177.792969 291.25 L 172.128906 286.433594 " fill-opacity="1" fill-rule="nonzero"/><path fill="#5479f7" d="M 124.207031 243.128906 C 128.425781 238.4375 134.589844 235.484375 141.914062 235.226562 L 140.71875 228.414062 C 131.515625 228.679688 123.78125 232.394531 118.542969 238.3125 L 124.207031 243.128906 " fill-opacity="1" fill-rule="nonzero"/><path fill="#5479f7" d="M 153.484375 301.152344 L 152.289062 294.339844 C 145.167969 294.089844 138.246094 291.359375 132.511719 286.988281 L 128.699219 291.9375 C 135.859375 297.457031 144.550781 300.894531 153.484375 301.152344 " fill-opacity="1" fill-rule="nonzero"/><path fill="#000000" d="M 152.257812 288.632812 C 149.207031 288.632812 146.132812 288.066406 143.128906 286.945312 C 142.851562 286.839844 142.707031 286.527344 142.8125 286.246094 C 142.917969 285.964844 143.230469 285.824219 143.511719 285.929688 C 146.390625 287.003906 149.335938 287.546875 152.257812 287.546875 C 162.152344 287.546875 169.722656 281.234375 171.09375 271.835938 C 171.136719 271.539062 171.414062 271.335938 171.707031 271.378906 C 172.003906 271.421875 172.210938 271.699219 172.167969 271.996094 C 170.714844 281.945312 162.714844 288.632812 152.257812 288.632812 " fill-opacity="1" fill-rule="nonzero"/><path fill="#000000" d="M 169.890625 259.871094 C 169.675781 259.871094 169.476562 259.742188 169.386719 259.535156 C 168.574219 257.574219 167.511719 255.683594 166.226562 253.914062 C 166.050781 253.671875 166.109375 253.332031 166.351562 253.15625 C 166.59375 252.980469 166.933594 253.03125 167.109375 253.277344 C 168.441406 255.117188 169.546875 257.082031 170.394531 259.121094 C 170.507812 259.394531 170.375 259.714844 170.097656 259.828125 C 170.03125 259.855469 169.960938 259.871094 169.890625 259.871094 " fill-opacity="1" fill-rule="nonzero"/><path fill="#000000" d="M 136.304688 283.179688 C 136.191406 283.179688 136.082031 283.144531 135.984375 283.074219 C 129.800781 278.546875 125.542969 271.914062 124.308594 264.875 C 123.175781 258.421875 124.652344 252.367188 128.46875 247.828125 C 132.207031 243.382812 137.75 240.933594 144.074219 240.933594 C 146.554688 240.933594 149.066406 241.3125 151.535156 242.058594 C 151.820312 242.144531 151.984375 242.449219 151.898438 242.734375 C 151.8125 243.023438 151.507812 243.183594 151.222656 243.097656 C 148.855469 242.378906 146.449219 242.019531 144.074219 242.019531 C 138.074219 242.019531 132.828125 244.328125 129.300781 248.523438 C 125.695312 252.816406 124.300781 258.554688 125.378906 264.6875 C 126.566406 271.453125 130.664062 277.835938 136.625 282.199219 C 136.867188 282.375 136.921875 282.714844 136.742188 282.957031 C 136.636719 283.101562 136.472656 283.179688 136.304688 283.179688 " fill-opacity="1" fill-rule="nonzero"/><path fill="#99b9ff" d="M 281.800781 243.46875 L 199.5 243.46875 C 196.46875 243.46875 194.011719 245.925781 194.011719 248.953125 C 194.011719 251.980469 196.46875 254.4375 199.5 254.4375 L 281.800781 254.4375 C 284.832031 254.4375 287.285156 251.980469 287.285156 248.953125 C 287.285156 245.925781 284.832031 243.46875 281.800781 243.46875 " fill-opacity="1" fill-rule="nonzero"/><path fill="#99b9ff" d="M 227.339844 226.007812 L 181.882812 226.007812 C 179.070312 226.007812 176.789062 228.285156 176.789062 231.097656 C 176.789062 233.90625 179.070312 236.1875 181.882812 236.1875 L 227.339844 236.1875 C 230.152344 236.1875 232.433594 233.90625 232.433594 231.097656 C 232.433594 228.285156 230.152344 226.007812 227.339844 226.007812 " fill-opacity="1" fill-rule="nonzero"/><path fill="#99b9ff" d="M 248.042969 231.097656 C 248.042969 233.90625 245.761719 236.1875 242.945312 236.1875 C 240.132812 236.1875 237.851562 233.90625 237.851562 231.097656 C 237.851562 228.285156 240.132812 226.007812 242.945312 226.007812 C 245.761719 226.007812 248.042969 228.285156 248.042969 231.097656 " fill-opacity="1" fill-rule="nonzero"/><path fill="#000000" d="M 241.804688 170.472656 C 241.804688 170.472656 239.964844 176.78125 267.441406 178.316406 C 294.917969 179.855469 290.320312 172.054688 290.320312 172.054688 L 261.472656 163.65625 L 241.804688 170.472656 " fill-opacity="1" fill-rule="nonzero"/><path fill="#ffffff" d="M 273.117188 268.894531 C 272.378906 268.863281 275.628906 285.207031 275.628906 285.207031 L 268.671875 286.035156 L 264.886719 267.640625 L 273.117188 268.894531 " fill-opacity="1" fill-rule="nonzero"/><path fill="#000000" d="M 273.089844 269.4375 Z M 265.574219 268.296875 L 269.101562 285.4375 L 274.980469 284.738281 C 274.742188 283.503906 274.152344 280.457031 273.609375 277.398438 C 272.707031 272.320312 272.46875 270.253906 272.472656 269.347656 Z M 268.671875 286.578125 C 268.417969 286.578125 268.191406 286.398438 268.136719 286.144531 L 264.355469 267.75 C 264.320312 267.578125 264.371094 267.394531 264.496094 267.265625 C 264.617188 267.140625 264.796875 267.078125 264.96875 267.105469 L 273.199219 268.359375 C 273.484375 268.402344 273.683594 268.664062 273.65625 268.949219 C 273.648438 269.050781 273.609375 269.144531 273.550781 269.222656 C 273.441406 270.449219 274.792969 278.207031 276.160156 285.101562 C 276.191406 285.25 276.15625 285.402344 276.070312 285.527344 C 275.980469 285.648438 275.84375 285.726562 275.691406 285.746094 L 268.734375 286.574219 C 268.714844 286.578125 268.691406 286.578125 268.671875 286.578125 " fill-opacity="1" fill-rule="nonzero"/><path fill="#5479f7" d="M 278.726562 290.972656 C 278.136719 287.457031 277.226562 282.726562 276.460938 281.769531 C 275.214844 280.203125 271.828125 283.617188 271.828125 283.617188 C 271.828125 283.617188 270.285156 278.566406 266.933594 279.230469 C 264.414062 279.734375 255.949219 285.878906 251.488281 290.765625 C 250.03125 292.363281 251.183594 294.9375 253.347656 294.9375 L 275.371094 294.9375 C 277.472656 294.9375 279.074219 293.046875 278.726562 290.972656 " fill-opacity="1" fill-rule="nonzero"/><path fill="#000000" d="M 267.523438 279.714844 C 267.367188 279.714844 267.207031 279.730469 267.042969 279.765625 C 264.683594 280.234375 256.296875 286.304688 251.890625 291.132812 C 251.359375 291.714844 251.230469 292.496094 251.550781 293.21875 C 251.800781 293.785156 252.40625 294.390625 253.347656 294.390625 L 275.371094 294.390625 C 276.214844 294.390625 277.011719 294.023438 277.554688 293.378906 C 278.097656 292.738281 278.328125 291.894531 278.191406 291.0625 C 276.992188 283.914062 276.285156 282.417969 276.035156 282.105469 C 275.933594 281.976562 275.804688 281.910156 275.625 281.902344 C 274.710938 281.847656 273.042969 283.160156 272.214844 284 C 272.078125 284.136719 271.882812 284.1875 271.699219 284.144531 C 271.511719 284.097656 271.363281 283.957031 271.308594 283.773438 C 271.292969 283.734375 270.027344 279.714844 267.523438 279.714844 Z M 275.371094 295.480469 L 253.347656 295.480469 C 252.125 295.480469 251.054688 294.78125 250.558594 293.65625 C 250.066406 292.542969 250.269531 291.296875 251.085938 290.398438 C 255.371094 285.703125 264.050781 279.253906 266.828125 278.699219 C 269.765625 278.113281 271.421875 281.160156 272.054688 282.664062 C 272.902344 281.921875 274.445312 280.75 275.683594 280.816406 C 276.171875 280.84375 276.589844 281.054688 276.886719 281.429688 C 277.136719 281.742188 277.886719 282.6875 279.261719 290.882812 C 279.453125 292.027344 279.132812 293.195312 278.386719 294.082031 C 277.632812 294.96875 276.535156 295.480469 275.371094 295.480469 " fill-opacity="1" fill-rule="nonzero"/><path fill="#ffffff" d="M 276.460938 291.683594 L 254.585938 291.683594 C 254.289062 291.683594 254.042969 291.441406 254.042969 291.140625 C 254.042969 290.84375 254.289062 290.597656 254.585938 290.597656 L 276.460938 290.597656 C 276.761719 290.597656 277.003906 290.84375 277.003906 291.140625 C 277.003906 291.441406 276.761719 291.683594 276.460938 291.683594 " fill-opacity="1" fill-rule="nonzero"/><path fill="#ffffff" d="M 302.152344 270.027344 L 310.113281 285.796875 L 314.566406 285.335938 L 310.609375 268.449219 L 302.152344 270.027344 " fill-opacity="1" fill-rule="nonzero"/><path fill="#000000" d="M 302.964844 270.429688 L 310.429688 285.214844 L 313.894531 284.863281 L 310.195312 269.078125 Z M 310.113281 286.335938 C 309.910156 286.335938 309.722656 286.222656 309.628906 286.039062 L 301.667969 270.273438 C 301.59375 270.121094 301.59375 269.941406 301.667969 269.789062 C 301.742188 269.636719 301.886719 269.527344 302.054688 269.496094 L 310.507812 267.914062 C 310.792969 267.859375 311.070312 268.039062 311.136719 268.324219 L 315.09375 285.214844 C 315.128906 285.367188 315.097656 285.527344 315.007812 285.652344 C 314.917969 285.78125 314.777344 285.863281 314.621094 285.878906 L 310.167969 286.335938 C 310.152344 286.335938 310.132812 286.335938 310.113281 286.335938 " fill-opacity="1" fill-rule="nonzero"/><path fill="#5479f7" d="M 310.742188 283.457031 C 310.742188 283.457031 313.007812 280.011719 316.710938 282.640625 C 316.710938 282.640625 322.132812 294.78125 323.230469 304.167969 C 323.539062 306.824219 320.539062 308.601562 318.34375 307.070312 C 313.210938 303.488281 305.421875 296.523438 302.246094 285.734375 C 302.246094 285.734375 304.566406 281.976562 307.414062 280.574219 L 310.742188 283.457031 " fill-opacity="1" fill-rule="nonzero"/><path fill="#000000" d="M 302.835938 285.820312 C 305.921875 296.035156 313.128906 302.769531 318.652344 306.625 C 319.496094 307.210938 320.566406 307.25 321.453125 306.71875 C 322.335938 306.195312 322.804688 305.242188 322.6875 304.234375 C 321.671875 295.5625 316.867188 284.363281 316.273438 283 C 315.289062 282.335938 314.34375 282.078125 313.457031 282.242188 C 312.046875 282.503906 311.207031 283.746094 311.199219 283.757812 C 311.109375 283.886719 310.96875 283.976562 310.816406 283.996094 C 310.664062 284.015625 310.507812 283.972656 310.390625 283.867188 L 307.335938 281.226562 C 305.164062 282.453125 303.328125 285.074219 302.835938 285.820312 Z M 320.117188 308.179688 C 319.390625 308.179688 318.664062 307.957031 318.03125 307.515625 C 312.320312 303.53125 304.859375 296.542969 301.722656 285.886719 C 301.679688 285.738281 301.703125 285.578125 301.78125 285.449219 C 301.878906 285.289062 304.21875 281.539062 307.171875 280.085938 C 307.367188 279.988281 307.601562 280.019531 307.765625 280.164062 L 310.671875 282.679688 C 311.136719 282.171875 312.015625 281.410156 313.246094 281.179688 C 314.472656 280.949219 315.746094 281.289062 317.023438 282.199219 C 317.101562 282.257812 317.164062 282.332031 317.203125 282.421875 C 317.261719 282.542969 322.671875 294.742188 323.765625 304.109375 C 323.933594 305.546875 323.261719 306.90625 322.011719 307.652344 C 321.417969 308.003906 320.769531 308.179688 320.117188 308.179688 " fill-opacity="1" fill-rule="nonzero"/><path fill="#ffffff" d="M 321.257812 305.335938 C 321.253906 305.335938 321.246094 305.335938 321.238281 305.332031 C 320.871094 305.320312 312.15625 304.777344 303.566406 286.628906 C 303.4375 286.359375 303.550781 286.035156 303.824219 285.90625 C 304.09375 285.777344 304.417969 285.894531 304.546875 286.164062 C 312.8125 303.628906 321.199219 304.246094 321.28125 304.25 C 321.582031 304.265625 321.8125 304.515625 321.800781 304.816406 C 321.785156 305.105469 321.546875 305.335938 321.257812 305.335938 " fill-opacity="1" fill-rule="nonzero"/><path fill="#000000" d="M 300.710938 272.664062 L 314.0625 272.21875 L 295.851562 200.285156 C 292.933594 188.765625 288.203125 177.785156 281.832031 167.753906 L 253.921875 167.734375 C 253.921875 167.734375 243.628906 207.003906 262.503906 271.621094 L 276.460938 271.621094 C 276.460938 271.621094 271.023438 212.667969 271.476562 195.726562 C 271.476562 195.726562 284.59375 244.152344 300.710938 272.664062 " fill-opacity="1" fill-rule="nonzero"/><path fill="#caddff" d="M 273.003906 204.136719 C 272.769531 204.136719 272.546875 203.980469 272.480469 203.742188 L 267.636719 186.535156 L 264.152344 185.472656 C 263.863281 185.382812 263.699219 185.082031 263.789062 184.792969 C 263.875 184.507812 264.179688 184.34375 264.46875 184.433594 L 268.238281 185.585938 C 268.417969 185.636719 268.554688 185.777344 268.601562 185.957031 L 273.527344 203.449219 C 273.609375 203.734375 273.441406 204.039062 273.152344 204.117188 C 273.101562 204.132812 273.054688 204.136719 273.003906 204.136719 " fill-opacity="1" fill-rule="nonzero"/><path fill="#ffffff" d="M 201.273438 121.324219 L 211.585938 126.886719 C 211.585938 126.886719 217.90625 143.363281 226.957031 144.355469 C 236.003906 145.347656 244.953125 132.839844 244.953125 132.839844 L 250.960938 145.683594 C 250.960938 145.683594 242.140625 159.308594 228.15625 157.113281 C 214.167969 154.917969 210.355469 133.921875 210.355469 133.921875 C 210.363281 133.933594 207.042969 134.246094 205.796875 131.019531 C 204.730469 128.273438 205.175781 126.65625 205.175781 126.65625 C 205.175781 126.65625 200.207031 124.003906 201.273438 121.324219 " fill-opacity="1" fill-rule="nonzero"/><path fill="#000000" d="M 210.355469 133.375 C 210.386719 133.375 210.414062 133.378906 210.445312 133.382812 C 210.671875 133.421875 210.851562 133.597656 210.890625 133.824219 C 210.925781 134.03125 214.796875 154.464844 228.238281 156.578125 C 240.695312 158.53125 249.070312 147.433594 250.339844 145.632812 L 244.847656 133.886719 C 242.824219 136.488281 235.660156 144.949219 228 144.953125 C 227.632812 144.953125 227.265625 144.933594 226.898438 144.894531 C 218.050781 143.925781 211.925781 129.214844 211.152344 127.269531 L 201.671875 122.15625 C 201.734375 123.820312 204.316406 125.578125 205.433594 126.175781 C 205.65625 126.296875 205.765625 126.554688 205.703125 126.800781 C 205.699219 126.808594 205.328125 128.308594 206.304688 130.824219 C 207.359375 133.554688 210.082031 133.398438 210.265625 133.386719 C 210.292969 133.378906 210.324219 133.375 210.355469 133.375 Z M 231.164062 157.890625 C 230.164062 157.894531 229.132812 157.816406 228.070312 157.648438 C 214.867188 155.574219 210.578125 137.6875 209.914062 134.480469 C 209.765625 134.472656 209.59375 134.457031 209.390625 134.429688 C 208.265625 134.285156 206.238281 133.667969 205.289062 131.214844 C 204.480469 129.125 204.5 127.628906 204.578125 126.9375 C 203.402344 126.242188 199.707031 123.792969 200.769531 121.125 C 200.824219 120.980469 200.941406 120.867188 201.085938 120.816406 C 201.234375 120.761719 201.394531 120.773438 201.53125 120.847656 L 211.84375 126.410156 C 211.960938 126.472656 212.046875 126.570312 212.09375 126.691406 C 212.15625 126.855469 218.398438 142.871094 227.015625 143.8125 C 235.640625 144.757812 244.425781 132.644531 244.515625 132.523438 C 244.625 132.367188 244.816406 132.28125 245.003906 132.300781 C 245.195312 132.316406 245.367188 132.433594 245.449219 132.609375 L 251.453125 145.449219 C 251.535156 145.621094 251.519531 145.820312 251.417969 145.976562 C 251.335938 146.105469 243.550781 157.890625 231.164062 157.890625 " fill-opacity="1" fill-rule="nonzero"/><path fill="#000000" d="M 210.648438 132.710938 C 210.597656 132.710938 210.542969 132.703125 210.488281 132.6875 C 210.398438 132.660156 208.230469 131.972656 207.964844 130.042969 C 207.863281 129.328125 207.429688 128.765625 207.085938 128.417969 C 206.511719 127.851562 206.195312 127.09375 206.195312 126.28125 L 206.195312 125.882812 C 206.195312 125.703125 206.289062 125.535156 206.4375 125.433594 C 206.585938 125.332031 206.773438 125.3125 206.941406 125.378906 L 210.421875 126.765625 C 210.699219 126.875 210.835938 127.191406 210.722656 127.46875 C 210.613281 127.746094 210.296875 127.882812 210.015625 127.773438 L 207.332031 126.699219 C 207.40625 127.058594 207.585938 127.386719 207.851562 127.652344 C 208.316406 128.113281 208.898438 128.878906 209.039062 129.894531 C 209.210938 131.144531 210.792969 131.644531 210.808594 131.648438 C 211.097656 131.738281 211.257812 132.042969 211.167969 132.328125 C 211.097656 132.5625 210.882812 132.710938 210.648438 132.710938 " fill-opacity="1" fill-rule="nonzero"/><path fill="#ffffff" d="M 280.242188 146.441406 C 280.242188 146.441406 286.601562 160.738281 296.96875 163.65625 C 307.339844 166.578125 314.558594 157.75 314.515625 148.644531 L 310.992188 147.476562 C 310.992188 147.476562 307.371094 156.8125 299.304688 154.382812 C 291.234375 151.953125 287.492188 132.964844 287.492188 132.964844 L 280.242188 146.441406 " fill-opacity="1" fill-rule="nonzero"/><path fill="#000000" d="M 280.847656 146.457031 C 281.734375 148.324219 287.84375 160.523438 297.121094 163.132812 C 302.265625 164.582031 305.945312 162.910156 308.128906 161.25 C 311.664062 158.558594 313.882812 153.90625 313.972656 149.035156 L 311.289062 148.144531 C 310.378906 150.074219 306.503906 157.117188 299.148438 154.902344 C 292.109375 152.78125 288.34375 139.070312 287.277344 134.511719 Z M 300.957031 164.773438 C 299.691406 164.773438 298.316406 164.597656 296.824219 164.179688 C 286.328125 161.222656 280.011719 147.253906 279.746094 146.660156 C 279.679688 146.507812 279.683594 146.332031 279.765625 146.183594 L 287.015625 132.707031 C 287.125 132.503906 287.347656 132.390625 287.574219 132.425781 C 287.800781 132.460938 287.980469 132.632812 288.027344 132.859375 C 288.0625 133.046875 291.800781 151.554688 299.460938 153.859375 C 306.949219 156.113281 310.34375 147.640625 310.484375 147.277344 C 310.589844 147.007812 310.886719 146.867188 311.164062 146.957031 L 314.6875 148.125 C 314.910156 148.199219 315.058594 148.40625 315.058594 148.640625 C 315.085938 153.984375 312.683594 159.152344 308.785156 162.113281 C 307.042969 163.4375 304.425781 164.773438 300.957031 164.773438 " fill-opacity="1" fill-rule="nonzero"/><path fill="#ffffff" d="M 241.804688 132.648438 C 241.804688 132.648438 248.179688 124.332031 266.195312 125.886719 C 287.703125 127.742188 289.34375 131.988281 289.34375 131.988281 L 283.730469 143.359375 L 290.316406 172.054688 C 290.316406 172.054688 285.816406 175.78125 275.269531 173.6875 C 264.722656 171.597656 246.597656 169.027344 241.804688 170.472656 L 248.484375 143.09375 L 241.804688 132.648438 " fill-opacity="1" fill-rule="nonzero"/><path fill="#000000" d="M 246.203125 169.515625 C 253.625 169.515625 266.59375 171.414062 275.378906 173.152344 C 284.117188 174.886719 288.617188 172.519531 289.710938 171.820312 L 283.203125 143.480469 C 283.171875 143.355469 283.191406 143.226562 283.242188 143.117188 L 288.722656 132.023438 C 288.070312 131.269531 284.261719 127.988281 266.148438 126.425781 C 250.574219 125.082031 243.808594 131.285156 242.484375 132.699219 L 248.945312 142.796875 C 249.027344 142.921875 249.050781 143.078125 249.015625 143.21875 L 242.542969 169.75 C 243.5 169.589844 244.746094 169.515625 246.203125 169.515625 Z M 281.378906 174.871094 C 279.59375 174.871094 277.527344 174.6875 275.164062 174.21875 C 264.484375 172.101562 246.546875 169.609375 241.964844 170.992188 C 241.777344 171.046875 241.578125 171 241.433594 170.867188 C 241.289062 170.734375 241.234375 170.53125 241.28125 170.34375 L 247.90625 143.1875 L 241.347656 132.9375 C 241.226562 132.746094 241.234375 132.5 241.371094 132.316406 C 241.640625 131.96875 248.140625 123.78125 266.242188 125.34375 C 287.476562 127.175781 289.671875 131.324219 289.855469 131.792969 C 289.90625 131.933594 289.902344 132.089844 289.835938 132.226562 L 284.304688 143.425781 L 290.851562 171.929688 C 290.894531 172.132812 290.824219 172.339844 290.664062 172.472656 C 290.519531 172.59375 287.675781 174.871094 281.378906 174.871094 " fill-opacity="1" fill-rule="nonzero"/><path fill="#caddff" d="M 309.132812 158.496094 L 283.460938 159.535156 C 282.589844 159.535156 282.058594 158.582031 282.511719 157.84375 L 299.140625 127.480469 C 299.457031 126.964844 300.023438 126.648438 300.628906 126.648438 L 326.582031 127.242188 L 309.132812 158.496094 " fill-opacity="1" fill-rule="nonzero"/><path fill="#99b9ff" d="M 310.984375 159.53125 L 283.269531 159.53125 L 301.449219 126.648438 L 329.160156 126.648438 L 310.984375 159.53125 " fill-opacity="1" fill-rule="nonzero"/><path fill="#000000" d="M 284.191406 158.992188 L 310.664062 158.992188 L 328.238281 127.191406 L 301.765625 127.191406 Z M 310.984375 160.074219 L 283.269531 160.074219 C 283.078125 160.074219 282.898438 159.976562 282.800781 159.808594 C 282.707031 159.644531 282.703125 159.441406 282.792969 159.269531 L 300.96875 126.386719 C 301.066406 126.214844 301.25 126.105469 301.445312 126.105469 L 329.160156 126.105469 C 329.351562 126.105469 329.53125 126.207031 329.628906 126.375 C 329.722656 126.539062 329.730469 126.742188 329.632812 126.914062 L 311.460938 159.796875 C 311.363281 159.96875 311.179688 160.074219 310.984375 160.074219 " fill-opacity="1" fill-rule="nonzero"/><path fill="#ffffff" d="M 311.621094 158.496094 C 311.621094 158.496094 311.097656 155.769531 311.621094 153.949219 C 312.140625 152.132812 315.371094 146.722656 316.292969 145.589844 C 317.214844 144.457031 318 156.546875 311.621094 158.496094 " fill-opacity="1" fill-rule="nonzero"/><path fill="#000000" d="M 316.261719 146.550781 C 315.03125 148.359375 312.570312 152.609375 312.140625 154.101562 C 311.808594 155.265625 311.941406 156.875 312.054688 157.753906 C 313.535156 157.089844 314.671875 155.710938 315.433594 153.648438 C 316.464844 150.871094 316.457031 147.863281 316.261719 146.550781 Z M 311.621094 159.039062 C 311.523438 159.039062 311.425781 159.015625 311.339844 158.960938 C 311.207031 158.882812 311.113281 158.75 311.085938 158.601562 C 311.0625 158.484375 310.546875 155.722656 311.097656 153.800781 C 311.625 151.953125 314.882812 146.457031 315.871094 145.246094 C 316.109375 144.953125 316.425781 144.933594 316.640625 145.011719 C 317.386719 145.289062 317.488281 147.152344 317.445312 148.660156 C 317.320312 152.867188 315.761719 157.800781 311.777344 159.019531 C 311.726562 159.035156 311.671875 159.039062 311.621094 159.039062 " fill-opacity="1" fill-rule="nonzero"/><path fill="#000000" d="M 214.367188 100.15625 C 210.871094 102.28125 210.320312 106.34375 210.28125 106.679688 C 209.734375 111.289062 213.015625 116.054688 216.597656 116.769531 C 219.664062 117.375 220.722656 114.574219 224.570312 114.757812 C 228.863281 114.960938 229.285156 118.523438 233.375 119.421875 C 239.410156 120.75 241.867188 113.738281 248.796875 114.226562 C 254.128906 114.605469 254.828125 118.910156 260.636719 118.960938 C 261.296875 118.96875 266.503906 118.933594 269.972656 114.902344 C 273.449219 110.859375 273.53125 104.726562 270.953125 100.644531 C 270.6875 100.226562 267.855469 95.859375 264.101562 95.964844 C 261.742188 96.03125 261.277344 97.796875 259.035156 97.757812 C 255.585938 97.699219 254.894531 93.496094 251.875 93.316406 C 248.382812 93.113281 247.605469 98.625 242.910156 99.40625 C 239.363281 99.996094 238.359375 97.097656 234.550781 97.765625 C 230.605469 98.457031 230.414062 101.796875 227.066406 101.902344 C 223.859375 102.003906 222.976562 98.980469 218.824219 98.953125 C 217.945312 98.949219 216.148438 99.070312 214.367188 100.15625 " fill-opacity="1" fill-rule="nonzero"/><path fill="#ffffff" d="M 277.632812 116.628906 C 277.875 116.25 276.738281 114.203125 276.695312 113.457031 C 276.65625 112.707031 277.242188 112.082031 277.484375 111.296875 C 277.730469 110.511719 277.457031 109.117188 277.457031 109.117188 C 277.125 99.761719 266.925781 101.980469 266.925781 101.980469 C 264.582031 102.691406 263.203125 105.320312 262.75 107.066406 C 261.878906 110.453125 263.488281 114.546875 263.488281 114.546875 C 263.421875 114.699219 261.746094 125.65625 261.671875 125.796875 C 260.613281 127.832031 267.714844 129.164062 269.949219 127.113281 C 270.703125 126.421875 269.738281 121.332031 269.949219 121.324219 C 270.785156 121.304688 271.8125 122.203125 272.867188 121.921875 C 274.421875 121.511719 275.59375 117.621094 275.8125 117.332031 C 275.921875 117.191406 276.28125 117.113281 276.65625 117.03125 C 277.074219 116.933594 277.507812 116.832031 277.632812 116.628906 " fill-opacity="1" fill-rule="nonzero"/><path fill="#000000" d="M 277.125 116.480469 Z M 264.011719 114.695312 C 263.949219 114.980469 263.539062 117.617188 263.171875 119.945312 C 262.234375 125.894531 262.226562 125.914062 262.15625 126.046875 C 262.105469 126.140625 262.015625 126.320312 262.429688 126.640625 C 263.800781 127.6875 268.078125 128.097656 269.585938 126.710938 C 269.867188 126.292969 269.59375 123.71875 269.488281 122.746094 C 269.34375 121.417969 269.320312 121.210938 269.535156 120.972656 C 269.632812 120.859375 269.785156 120.785156 269.9375 120.78125 C 270.390625 120.769531 270.847656 120.945312 271.28125 121.117188 C 271.796875 121.320312 272.285156 121.511719 272.730469 121.394531 C 273.683594 121.140625 274.664062 118.679688 275.039062 117.753906 C 275.230469 117.273438 275.296875 117.113281 275.386719 117 C 275.609375 116.710938 276.003906 116.617188 276.507812 116.503906 C 276.675781 116.464844 276.945312 116.402344 277.105469 116.34375 C 277.039062 116.0625 276.824219 115.523438 276.6875 115.175781 C 276.425781 114.523438 276.179688 113.90625 276.15625 113.480469 C 276.125 112.871094 276.382812 112.371094 276.632812 111.886719 C 276.765625 111.632812 276.890625 111.386719 276.96875 111.136719 C 277.136719 110.601562 276.996094 109.570312 276.925781 109.21875 C 276.921875 109.191406 276.917969 109.164062 276.917969 109.132812 C 276.832031 106.714844 276.042969 104.914062 274.574219 103.773438 C 271.78125 101.605469 267.390625 102.441406 267.0625 102.507812 C 264.859375 103.1875 263.648438 105.773438 263.28125 107.203125 C 262.460938 110.378906 263.980469 114.304688 263.996094 114.34375 C 264.039062 114.457031 264.042969 114.578125 264.011719 114.695312 Z M 266.355469 128.683594 C 264.542969 128.683594 262.695312 128.210938 261.769531 127.5 C 261.066406 126.960938 260.847656 126.277344 261.160156 125.609375 C 261.25 125.167969 261.71875 122.1875 262.097656 119.777344 C 262.660156 116.183594 262.847656 115.011719 262.929688 114.589844 C 262.636719 113.789062 261.40625 110.113281 262.230469 106.929688 C 262.652344 105.277344 264.089844 102.269531 266.769531 101.460938 C 266.785156 101.457031 266.796875 101.453125 266.8125 101.449219 C 267.015625 101.402344 271.957031 100.367188 275.238281 102.914062 C 276.964844 104.253906 277.894531 106.320312 278 109.054688 C 278.054688 109.339844 278.269531 110.621094 278.007812 111.457031 C 277.898438 111.800781 277.738281 112.113281 277.597656 112.386719 C 277.398438 112.773438 277.226562 113.109375 277.242188 113.425781 C 277.253906 113.671875 277.5 114.28125 277.695312 114.773438 C 278.15625 115.921875 278.363281 116.496094 278.09375 116.917969 C 277.84375 117.3125 277.304688 117.4375 276.78125 117.554688 C 276.589844 117.601562 276.351562 117.652344 276.234375 117.699219 C 276.1875 117.800781 276.113281 117.988281 276.046875 118.15625 C 275.5 119.519531 274.488281 122.050781 273.007812 122.445312 C 272.21875 122.652344 271.476562 122.363281 270.882812 122.128906 C 270.75 122.074219 270.625 122.027344 270.5 121.980469 C 270.519531 122.183594 270.546875 122.414062 270.566406 122.632812 C 270.875 125.5 270.917969 126.960938 270.320312 127.511719 C 269.417969 128.339844 267.898438 128.683594 266.355469 128.683594 " fill-opacity="1" fill-rule="nonzero"/><path fill="#000000" d="M 281.722656 102.59375 C 280.699219 101.554688 279.65625 102.589844 275.582031 102.019531 C 272.191406 101.546875 271.214844 100.589844 268.648438 101.011719 C 267.925781 101.132812 266.640625 101.34375 265.367188 102.273438 C 263.484375 103.652344 262.78125 105.585938 262.410156 107.027344 C 261.683594 109.84375 262.59375 113.125 263.003906 114.367188 C 263.105469 114.671875 263.402344 114.867188 263.722656 114.839844 C 264.578125 114.769531 265.335938 114.652344 266.011719 114.507812 C 266.328125 114.441406 266.511719 114.105469 266.390625 113.800781 C 266.355469 113.71875 266.324219 113.632812 266.300781 113.542969 C 265.960938 112.355469 266.53125 111.152344 267.570312 110.859375 C 268.613281 110.5625 269.726562 111.28125 270.066406 112.46875 C 270.089844 112.554688 270.109375 112.636719 270.121094 112.71875 C 271.621094 111.585938 272.386719 110.304688 273.773438 109.613281 C 273.9375 109.53125 274.667969 109.199219 275.777344 109.160156 C 278.179688 109.078125 278.980469 110.5 280.117188 110.226562 C 282.101562 109.742188 283.5625 104.460938 281.722656 102.59375 " fill-opacity="1" fill-rule="nonzero"/><path fill="#000000" d="M 270.195312 121.867188 C 270.140625 121.867188 270.085938 121.859375 270.03125 121.84375 C 266.257812 120.65625 265.675781 118.136719 265.652344 118.03125 C 265.585938 117.738281 265.773438 117.449219 266.066406 117.386719 C 266.359375 117.324219 266.644531 117.507812 266.710938 117.796875 C 266.734375 117.890625 267.230469 119.824219 270.359375 120.808594 C 270.644531 120.898438 270.804688 121.203125 270.714844 121.488281 C 270.640625 121.71875 270.425781 121.867188 270.195312 121.867188 " fill-opacity="1" fill-rule="nonzero"/><path fill="#000000" d="M 70.109375 224.222656 C 69.972656 224.222656 69.832031 224.171875 69.726562 224.0625 C 69.515625 223.851562 69.515625 223.507812 69.726562 223.296875 L 107.628906 185.417969 C 107.84375 185.207031 108.1875 185.207031 108.398438 185.417969 C 108.609375 185.632812 108.609375 185.976562 108.398438 186.1875 L 70.496094 224.0625 C 70.386719 224.171875 70.25 224.222656 70.109375 224.222656 " fill-opacity="1" fill-rule="nonzero"/><path fill="#000000" d="M 300.613281 88.457031 C 300.472656 88.457031 300.332031 88.40625 300.226562 88.300781 C 300.015625 88.085938 300.015625 87.746094 300.226562 87.53125 L 333.785156 53.996094 C 334 53.785156 334.339844 53.785156 334.554688 53.996094 C 334.765625 54.207031 334.765625 54.550781 334.554688 54.765625 L 300.996094 88.300781 C 300.890625 88.40625 300.75 88.457031 300.613281 88.457031 " fill-opacity="1" fill-rule="nonzero"/><path fill="#000000" d="M 293.953125 84.234375 C 293.816406 84.234375 293.679688 84.183594 293.574219 84.078125 C 293.359375 83.867188 293.359375 83.519531 293.574219 83.308594 L 320.539062 56.359375 C 320.753906 56.144531 321.097656 56.144531 321.308594 56.359375 C 321.523438 56.570312 321.523438 56.914062 321.308594 57.128906 L 294.339844 84.078125 C 294.234375 84.183594 294.09375 84.234375 293.953125 84.234375 " fill-opacity="1" fill-rule="nonzero"/><path fill="#000000" d="M 196.496094 308.851562 C 196.359375 308.851562 196.222656 308.796875 196.113281 308.691406 C 195.902344 308.480469 195.902344 308.136719 196.113281 307.925781 L 216.824219 287.230469 C 217.035156 287.019531 217.378906 287.019531 217.589844 287.230469 C 217.804688 287.441406 217.804688 287.785156 217.589844 288 L 196.882812 308.691406 C 196.777344 308.796875 196.636719 308.851562 196.496094 308.851562 " fill-opacity="1" fill-rule="nonzero"/><path fill="#000000" d="M 319.453125 115.582031 C 319.15625 115.582031 318.910156 115.339844 318.910156 115.039062 L 318.910156 112.230469 C 318.910156 111.929688 319.15625 111.6875 319.453125 111.6875 C 319.753906 111.6875 319.996094 111.929688 319.996094 112.230469 L 319.996094 115.039062 C 319.996094 115.339844 319.753906 115.582031 319.453125 115.582031 " fill-opacity="1" fill-rule="nonzero"/><path fill="#000000" d="M 319.453125 122.121094 C 319.15625 122.121094 318.910156 121.878906 318.910156 121.578125 L 318.910156 118.773438 C 318.910156 118.472656 319.15625 118.230469 319.453125 118.230469 C 319.753906 118.230469 319.996094 118.472656 319.996094 118.773438 L 319.996094 121.578125 C 319.996094 121.878906 319.753906 122.121094 319.453125 122.121094 " fill-opacity="1" fill-rule="nonzero"/><path fill="#000000" d="M 317.589844 117.445312 L 314.777344 117.445312 C 314.480469 117.445312 314.234375 117.203125 314.234375 116.90625 C 314.234375 116.605469 314.480469 116.359375 314.777344 116.359375 L 317.589844 116.359375 C 317.886719 116.359375 318.132812 116.605469 318.132812 116.90625 C 318.132812 117.203125 317.886719 117.445312 317.589844 117.445312 " fill-opacity="1" fill-rule="nonzero"/><path fill="#000000" d="M 324.132812 117.445312 L 321.324219 117.445312 C 321.023438 117.445312 320.777344 117.203125 320.777344 116.90625 C 320.777344 116.605469 321.023438 116.359375 321.324219 116.359375 L 324.132812 116.359375 C 324.433594 116.359375 324.675781 116.605469 324.675781 116.90625 C 324.675781 117.203125 324.433594 117.445312 324.132812 117.445312 " fill-opacity="1" fill-rule="nonzero"/><path fill="#000000" d="M 223.695312 277.285156 C 223.394531 277.285156 223.152344 277.042969 223.152344 276.742188 L 223.152344 273.933594 C 223.152344 273.636719 223.394531 273.390625 223.695312 273.390625 C 223.992188 273.390625 224.238281 273.636719 224.238281 273.933594 L 224.238281 276.742188 C 224.238281 277.042969 223.992188 277.285156 223.695312 277.285156 " fill-opacity="1" fill-rule="nonzero"/><path fill="#000000" d="M 223.695312 283.824219 C 223.394531 283.824219 223.152344 283.582031 223.152344 283.28125 L 223.152344 280.476562 C 223.152344 280.175781 223.394531 279.933594 223.695312 279.933594 C 223.992188 279.933594 224.238281 280.175781 224.238281 280.476562 L 224.238281 283.28125 C 224.238281 283.582031 223.992188 283.824219 223.695312 283.824219 " fill-opacity="1" fill-rule="nonzero"/><path fill="#000000" d="M 221.828125 279.152344 L 219.015625 279.152344 C 218.714844 279.152344 218.472656 278.910156 218.472656 278.609375 C 218.472656 278.308594 218.714844 278.066406 219.015625 278.066406 L 221.828125 278.066406 C 222.125 278.066406 222.371094 278.308594 222.371094 278.609375 C 222.371094 278.910156 222.125 279.152344 221.828125 279.152344 " fill-opacity="1" fill-rule="nonzero"/><path fill="#000000" d="M 228.371094 279.152344 L 225.5625 279.152344 C 225.261719 279.152344 225.019531 278.910156 225.019531 278.609375 C 225.019531 278.308594 225.261719 278.066406 225.5625 278.066406 L 228.371094 278.066406 C 228.671875 278.066406 228.914062 278.308594 228.914062 278.609375 C 228.914062 278.910156 228.671875 279.152344 228.371094 279.152344 " fill-opacity="1" fill-rule="nonzero"/><path fill="#000000" d="M 96.9375 101.6875 C 95.304688 102.417969 94.566406 104.371094 95.285156 106.035156 C 95.636719 106.847656 96.277344 107.472656 97.089844 107.785156 C 97.882812 108.09375 98.746094 108.070312 99.523438 107.722656 C 101.15625 106.992188 101.894531 105.042969 101.175781 103.375 C 100.824219 102.5625 100.1875 101.941406 99.375 101.625 C 98.582031 101.316406 97.714844 101.339844 96.9375 101.6875 Z M 98.230469 109.085938 C 97.714844 109.085938 97.191406 108.992188 96.695312 108.796875 C 95.609375 108.375 94.753906 107.546875 94.285156 106.46875 C 93.335938 104.261719 94.324219 101.671875 96.492188 100.699219 C 97.535156 100.230469 98.699219 100.199219 99.765625 100.613281 C 100.851562 101.035156 101.707031 101.863281 102.175781 102.945312 C 103.128906 105.152344 102.136719 107.738281 99.96875 108.710938 C 99.414062 108.960938 98.824219 109.085938 98.230469 109.085938 " fill-opacity="1" fill-rule="nonzero"/><path fill="#ffffff" d="M 335.871094 215.515625 C 334.890625 215.957031 334.445312 217.128906 334.878906 218.132812 C 335.089844 218.625 335.476562 218.996094 335.960938 219.1875 C 336.4375 219.371094 336.957031 219.359375 337.421875 219.148438 C 338.402344 218.707031 338.847656 217.535156 338.417969 216.53125 C 338.203125 216.042969 337.820312 215.667969 337.332031 215.476562 C 336.855469 215.292969 336.335938 215.304688 335.871094 215.515625 Z M 336.648438 220.402344 C 336.285156 220.402344 335.917969 220.335938 335.566406 220.199219 C 334.804688 219.902344 334.207031 219.324219 333.878906 218.566406 C 333.210938 217.019531 333.90625 215.207031 335.425781 214.523438 C 336.160156 214.195312 336.976562 214.175781 337.726562 214.464844 C 338.488281 214.761719 339.085938 215.34375 339.414062 216.101562 C 340.082031 217.644531 339.390625 219.457031 337.867188 220.140625 C 337.476562 220.316406 337.066406 220.402344 336.648438 220.402344 " fill-opacity="1" fill-rule="nonzero"/><path fill="#99b9ff" d="M 97.03125 300.128906 C 94.175781 295.03125 94.53125 292.644531 95.347656 291.402344 C 96.792969 289.195312 100.035156 290.128906 101.472656 287.730469 C 102.953125 285.265625 100.273438 283.023438 101.269531 279.863281 C 102.449219 276.125 108.292969 272.597656 112.046875 274.714844 C 115.253906 276.527344 116.097656 281.996094 114.191406 284.820312 C 112.070312 287.957031 107.40625 286.585938 106.089844 289.507812 C 104.882812 292.195312 108.207031 294.742188 107.140625 297.222656 C 106.53125 298.648438 104.402344 300.222656 97.03125 300.128906 " fill-opacity="1" fill-rule="nonzero"/><path fill="#ffffff" d="M 96.496094 302.753906 C 96.433594 302.753906 96.375 302.746094 96.316406 302.722656 C 96.03125 302.625 95.882812 302.316406 95.980469 302.03125 C 101.234375 286.863281 108.132812 281.945312 108.421875 281.742188 C 108.667969 281.574219 109.007812 281.632812 109.179688 281.878906 C 109.347656 282.125 109.289062 282.464844 109.042969 282.632812 C 108.972656 282.683594 102.132812 287.597656 97.007812 302.386719 C 96.929688 302.613281 96.71875 302.753906 96.496094 302.753906 " fill-opacity="1" fill-rule="nonzero"/><path fill="#5479f7" d="M 92.605469 298.371094 C 92.574219 293.609375 93.9375 290.710938 95.191406 288.941406 C 97.476562 285.71875 100.007812 285.386719 100.878906 282.273438 C 101.703125 279.328125 99.773438 278.4375 100.417969 275.125 C 101.1875 271.175781 104.21875 270.90625 105 267.65625 C 105.949219 263.703125 102.039062 261.703125 100.074219 256.148438 C 97.535156 248.964844 101.746094 245.71875 100.785156 239.007812 C 99.222656 228.121094 85.457031 218.089844 79.570312 220.824219 C 74.015625 223.402344 73.613281 238.199219 78.097656 248.945312 C 82.882812 260.40625 90.289062 260.238281 91.367188 269.816406 C 92.109375 276.433594 89 280.316406 90.601562 290.484375 C 91.140625 293.929688 92 296.667969 92.605469 298.371094 " fill-opacity="1" fill-rule="nonzero"/><path fill="#99b9ff" d="M 94.0625 302.96875 C 93.859375 302.96875 93.660156 302.851562 93.570312 302.652344 C 90.683594 296.363281 91.851562 289.496094 93.324219 280.804688 C 94.097656 276.257812 94.972656 271.105469 95.308594 265.4375 C 96.25 249.675781 83.054688 230.574219 82.921875 230.382812 C 82.75 230.136719 82.808594 229.796875 83.054688 229.628906 C 83.304688 229.457031 83.640625 229.515625 83.8125 229.761719 C 83.949219 229.957031 97.355469 249.363281 96.394531 265.503906 C 96.050781 271.230469 95.171875 276.410156 94.398438 280.988281 C 92.953125 289.496094 91.8125 296.214844 94.558594 302.199219 C 94.679688 302.472656 94.5625 302.796875 94.289062 302.921875 C 94.214844 302.953125 94.140625 302.96875 94.0625 302.96875 " fill-opacity="1" fill-rule="nonzero"/><path fill="#99b9ff" d="M 89.09375 299.53125 C 88.449219 296.503906 87.777344 292.039062 88 286.660156 C 88.367188 277.882812 90.804688 274.148438 88.355469 270.871094 C 85.65625 267.253906 81.109375 269.675781 77.890625 265.378906 C 75.695312 262.445312 76.796875 259.96875 73.78125 257.207031 C 73.207031 256.683594 71.335938 255.015625 68.699219 254.8125 C 66.25 254.621094 65.382812 255.867188 62.261719 256.953125 C 56.601562 258.925781 54.078125 256.71875 51.996094 258.792969 C 50.15625 260.628906 49.789062 264.699219 51.546875 266.945312 C 54.855469 271.171875 63.609375 266.25 66.890625 270.257812 C 69.695312 273.683594 64.863281 279.167969 67.929688 282.984375 C 70.695312 286.421875 76.234375 283.976562 78.503906 287.578125 C 80.238281 290.328125 77.808594 293.039062 79.417969 295.910156 C 81.09375 298.902344 85.710938 299.472656 89.09375 299.53125 " fill-opacity="1" fill-rule="nonzero"/><path fill="#ffffff" d="M 91.195312 302.839844 C 91.082031 302.839844 90.964844 302.804688 90.867188 302.726562 C 87.9375 300.464844 86.9375 296.746094 85.421875 291.117188 C 84.289062 286.902344 82.875 281.65625 80.148438 275.234375 C 74.078125 260.941406 57.488281 262.570312 57.320312 262.589844 C 57.023438 262.621094 56.753906 262.40625 56.722656 262.109375 C 56.6875 261.808594 56.902344 261.542969 57.203125 261.507812 C 57.378906 261.488281 74.757812 259.765625 81.148438 274.808594 C 83.90625 281.300781 85.328125 286.589844 86.472656 290.835938 C 87.929688 296.25 88.890625 299.828125 91.53125 301.867188 C 91.765625 302.050781 91.8125 302.390625 91.628906 302.628906 C 91.519531 302.765625 91.359375 302.839844 91.195312 302.839844 " fill-opacity="1" fill-rule="nonzero"/><path fill="#5479f7" d="M 80.648438 302.210938 C 81.121094 302.421875 105.53125 302.210938 105.53125 302.210938 L 102.484375 327.101562 C 102.402344 327.773438 102.253906 328.4375 102.007812 329.070312 C 100.808594 332.128906 97.839844 334.210938 94.460938 334.210938 C 90.679688 334.210938 87.402344 331.601562 86.554688 327.921875 L 80.648438 302.210938 " fill-opacity="1" fill-rule="nonzero"/></svg>