<svg xmlns="http://www.w3.org/2000/svg" xmlns:xlink="http://www.w3.org/1999/xlink" width="500" zoomAndPan="magnify" viewBox="0 0 375 374.999991" height="500" preserveAspectRatio="xMidYMid meet" version="1.0"><defs><clipPath id="9dd3ce537f"><path d="M 33.128906 173 L 307 173 L 307 344 L 33.128906 344 Z M 33.128906 173 " clip-rule="nonzero"/></clipPath><clipPath id="fc8d6b79d2"><path d="M 33.128906 172 L 308 172 L 308 344 L 33.128906 344 Z M 33.128906 172 " clip-rule="nonzero"/></clipPath></defs><path fill="#caddff" d="M 79.167969 199.152344 C 99.859375 176.277344 60.871094 133.664062 70.566406 102.875 C 83.617188 61.429688 189.78125 25.894531 261.238281 71.015625 C 321.078125 108.804688 341.859375 193.863281 315.714844 228.242188 C 307.890625 238.535156 298.15625 241.269531 285.367188 252.03125 C 273.46875 262.042969 272.132812 264.597656 271.273438 266.339844 C 262.8125 283.53125 280.605469 298.613281 277.023438 313.359375 C 271.367188 336.65625 214.785156 349.082031 167.46875 341.199219 C 154.707031 339.074219 90.046875 326.710938 66.265625 275.34375 C 64.425781 271.367188 47.011719 232.976562 63.398438 211.621094 C 69.078125 204.214844 73.652344 205.253906 79.167969 199.152344 " fill-opacity="1" fill-rule="nonzero"/><path fill="#23c7ac" d="M 290.097656 105.265625 C 284.105469 99.351562 284.015625 89.667969 289.898438 83.636719 C 295.78125 77.609375 305.414062 77.519531 311.40625 83.4375 C 317.398438 89.359375 317.488281 99.039062 311.601562 105.070312 C 305.71875 111.097656 296.089844 111.1875 290.097656 105.265625 " fill-opacity="1" fill-rule="nonzero"/><path fill="#ffffff" d="M 311.054688 93.535156 L 300.722656 104.117188 C 300.179688 104.675781 299.28125 104.683594 298.726562 104.136719 L 291.460938 96.960938 C 290.902344 96.410156 290.894531 95.511719 291.441406 94.949219 L 301.769531 84.367188 C 302.320312 83.808594 303.210938 83.800781 303.769531 84.347656 L 311.039062 91.523438 C 311.597656 92.074219 311.605469 92.972656 311.054688 93.535156 " fill-opacity="1" fill-rule="nonzero"/><path fill="#000000" d="M 302.777344 84.472656 C 302.777344 84.472656 302.773438 84.472656 302.769531 84.472656 C 302.535156 84.476562 302.316406 84.570312 302.148438 84.738281 L 291.820312 95.320312 C 291.476562 95.671875 291.480469 96.238281 291.828125 96.585938 L 299.097656 103.757812 C 299.265625 103.925781 299.5 104.007812 299.722656 104.015625 C 299.957031 104.011719 300.179688 103.917969 300.34375 103.746094 L 310.675781 93.164062 C 311.015625 92.816406 311.011719 92.246094 310.660156 91.902344 L 303.398438 84.726562 C 303.230469 84.5625 303.011719 84.472656 302.777344 84.472656 Z M 299.714844 105.074219 C 299.199219 105.074219 298.71875 104.875 298.351562 104.515625 L 291.085938 97.339844 C 290.320312 96.585938 290.308594 95.347656 291.058594 94.582031 L 301.390625 84 C 301.753906 83.625 302.238281 83.417969 302.761719 83.410156 C 303.296875 83.410156 303.773438 83.605469 304.144531 83.972656 L 311.410156 91.148438 C 312.171875 91.902344 312.183594 93.140625 311.433594 93.90625 L 301.105469 104.488281 C 300.738281 104.863281 300.25 105.070312 299.730469 105.074219 C 299.726562 105.074219 299.722656 105.074219 299.714844 105.074219 " fill-opacity="1" fill-rule="nonzero"/><path fill="#000000" d="M 295.113281 96.574219 C 294.867188 96.574219 294.648438 96.40625 294.59375 96.15625 C 294.53125 95.871094 294.714844 95.589844 295 95.523438 L 301.59375 94.082031 C 301.882812 94.019531 302.164062 94.203125 302.226562 94.488281 C 302.289062 94.773438 302.105469 95.054688 301.820312 95.121094 L 295.226562 96.5625 C 295.191406 96.570312 295.152344 96.574219 295.113281 96.574219 " fill-opacity="1" fill-rule="nonzero"/><path fill="#000000" d="M 301.734375 95.105469 C 301.703125 95.105469 301.667969 95.101562 301.632812 95.09375 C 301.34375 95.039062 301.15625 94.757812 301.214844 94.472656 L 302.527344 87.8125 C 302.585938 87.527344 302.867188 87.339844 303.152344 87.394531 C 303.4375 87.453125 303.625 87.730469 303.570312 88.019531 L 302.257812 94.675781 C 302.207031 94.929688 301.980469 95.105469 301.734375 95.105469 " fill-opacity="1" fill-rule="nonzero"/><path fill="#23c7ac" d="M 285.945312 69.707031 C 285.945312 77.40625 279.703125 83.648438 272.003906 83.648438 C 264.304688 83.648438 258.0625 77.40625 258.0625 69.707031 C 258.0625 62.007812 264.304688 55.765625 272.003906 55.765625 C 279.703125 55.765625 285.945312 62.007812 285.945312 69.707031 " fill-opacity="1" fill-rule="nonzero"/><path fill="#ffffff" d="M 277.84375 68.566406 L 270.378906 63.507812 C 269.460938 62.886719 268.226562 63.542969 268.226562 64.648438 L 268.226562 74.765625 C 268.226562 75.875 269.460938 76.53125 270.378906 75.90625 L 277.84375 70.847656 C 278.648438 70.300781 278.648438 69.113281 277.84375 68.566406 " fill-opacity="1" fill-rule="nonzero"/><g clip-path="url(#9dd3ce537f)"><path fill="#ffffff" d="M 267.738281 173.40625 L 41.523438 173.40625 C 36.53125 173.40625 33.214844 177.371094 34.113281 182.257812 L 62.039062 334.15625 C 62.941406 339.046875 67.714844 343.007812 72.707031 343.007812 L 298.925781 343.007812 C 303.917969 343.007812 307.234375 339.046875 306.335938 334.15625 L 278.40625 182.257812 C 277.507812 177.371094 272.730469 173.40625 267.738281 173.40625 " fill-opacity="1" fill-rule="nonzero"/></g><g clip-path="url(#fc8d6b79d2)"><path fill="#000000" d="M 41.523438 173.9375 C 39.261719 173.9375 37.300781 174.792969 36.003906 176.355469 C 34.714844 177.902344 34.230469 179.964844 34.632812 182.164062 L 62.5625 334.058594 C 63.414062 338.703125 67.96875 342.480469 72.707031 342.480469 L 298.921875 342.480469 C 301.183594 342.480469 303.144531 341.621094 304.441406 340.0625 C 305.730469 338.515625 306.21875 336.453125 305.8125 334.25 L 277.882812 182.355469 C 277.03125 177.714844 272.480469 173.9375 267.738281 173.9375 Z M 298.921875 343.539062 L 72.707031 343.539062 C 67.480469 343.539062 62.460938 339.371094 61.519531 334.25 L 33.589844 182.355469 C 33.128906 179.839844 33.695312 177.46875 35.191406 175.675781 C 36.691406 173.871094 38.941406 172.878906 41.523438 172.878906 L 267.738281 172.878906 C 272.96875 172.878906 277.988281 177.042969 278.929688 182.164062 L 306.855469 334.058594 C 307.316406 336.578125 306.75 338.949219 305.257812 340.742188 C 303.753906 342.546875 301.503906 343.539062 298.921875 343.539062 " fill-opacity="1" fill-rule="nonzero"/></g><path fill="#5479f7" d="M 72.960938 338.050781 C 69.957031 338.050781 67.074219 335.671875 66.539062 332.746094 L 39.070312 183.367188 C 38.535156 180.445312 40.542969 178.066406 43.546875 178.066406 L 267.429688 178.066406 C 270.433594 178.066406 273.316406 180.445312 273.855469 183.367188 L 301.320312 332.746094 C 301.859375 335.671875 299.851562 338.050781 296.847656 338.050781 L 72.960938 338.050781 " fill-opacity="1" fill-rule="nonzero"/><path fill="#ffffff" d="M 236.757812 231.476562 L 186.511719 231.476562 C 182.15625 231.476562 179.277344 235.007812 180.078125 239.363281 C 180.878906 243.714844 185.054688 247.246094 189.410156 247.246094 L 239.660156 247.246094 C 244.011719 247.246094 246.894531 243.714844 246.09375 239.363281 C 245.292969 235.007812 241.113281 231.476562 236.757812 231.476562 " fill-opacity="1" fill-rule="nonzero"/><path fill="#caddff" d="M 258.558594 272.523438 L 179.808594 272.523438 L 177.664062 260.863281 L 256.417969 260.863281 L 258.558594 272.523438 " fill-opacity="1" fill-rule="nonzero"/><path fill="#caddff" d="M 262.039062 291.449219 L 183.289062 291.449219 L 181.144531 279.792969 L 259.898438 279.792969 L 262.039062 291.449219 " fill-opacity="1" fill-rule="nonzero"/><path fill="#ffffff" d="M 129.925781 105.867188 C 127.511719 105.867188 125.414062 106.792969 124.015625 108.472656 C 122.582031 110.195312 122.042969 112.507812 122.496094 114.984375 L 140.136719 210.925781 C 141.082031 216.058594 146.019531 220.234375 151.148438 220.234375 L 209.460938 220.234375 C 211.875 220.234375 213.972656 219.308594 215.371094 217.628906 C 216.804688 215.90625 217.34375 213.59375 216.890625 211.121094 L 199.25 115.171875 C 198.304688 110.042969 193.367188 105.867188 188.238281 105.867188 Z M 209.460938 221.292969 L 151.148438 221.292969 C 145.53125 221.292969 140.125 216.730469 139.09375 211.121094 L 121.453125 115.175781 C 120.941406 112.386719 121.5625 109.761719 123.203125 107.792969 C 124.804688 105.867188 127.191406 104.808594 129.925781 104.808594 L 188.238281 104.808594 C 193.855469 104.808594 199.261719 109.371094 200.292969 114.984375 L 217.933594 210.925781 C 218.445312 213.71875 217.828125 216.339844 216.183594 218.308594 C 214.582031 220.234375 212.195312 221.292969 209.460938 221.292969 " fill-opacity="1" fill-rule="nonzero"/><path fill="#23c7ac" d="M 209.460938 221.292969 L 207.070312 221.292969 C 206.777344 221.292969 206.539062 221.058594 206.539062 220.765625 C 206.539062 220.472656 206.777344 220.234375 207.070312 220.234375 L 209.460938 220.234375 C 211.871094 220.234375 213.972656 219.308594 215.371094 217.628906 C 216.804688 215.90625 217.34375 213.59375 216.886719 211.121094 L 212.632812 187.964844 C 212.578125 187.675781 212.769531 187.398438 213.058594 187.347656 C 213.347656 187.292969 213.621094 187.484375 213.675781 187.773438 L 217.933594 210.925781 C 218.445312 213.71875 217.824219 216.339844 216.183594 218.308594 C 214.582031 220.234375 212.191406 221.292969 209.460938 221.292969 " fill-opacity="1" fill-rule="nonzero"/><path fill="#23c7ac" d="M 208.90625 165.292969 C 208.65625 165.292969 208.429688 165.113281 208.382812 164.855469 L 199.25 115.175781 C 198.304688 110.042969 193.367188 105.867188 188.238281 105.867188 L 129.925781 105.867188 C 127.511719 105.867188 125.414062 106.792969 124.015625 108.472656 C 122.582031 110.195312 122.042969 112.507812 122.496094 114.984375 L 126.902344 138.941406 C 126.957031 139.230469 126.765625 139.507812 126.476562 139.558594 C 126.1875 139.613281 125.910156 139.421875 125.859375 139.132812 L 121.453125 115.175781 C 120.941406 112.386719 121.5625 109.761719 123.203125 107.792969 C 124.804688 105.867188 127.191406 104.808594 129.925781 104.808594 L 188.238281 104.808594 C 193.855469 104.808594 199.261719 109.371094 200.292969 114.984375 L 209.429688 164.664062 C 209.480469 164.953125 209.289062 165.226562 209 165.28125 C 208.96875 165.289062 208.9375 165.292969 208.90625 165.292969 " fill-opacity="1" fill-rule="nonzero"/><path fill="#ffffff" d="M 146.101562 135.515625 C 144.214844 125.261719 150.996094 116.945312 161.246094 116.945312 C 171.492188 116.945312 181.332031 125.261719 183.214844 135.515625 C 185.101562 145.777344 178.324219 154.089844 168.074219 154.089844 C 157.828125 154.089844 147.988281 145.777344 146.101562 135.515625 " fill-opacity="1" fill-rule="nonzero"/><path fill="#caddff" d="M 168.074219 154.621094 C 157.597656 154.621094 147.507812 146.09375 145.582031 135.613281 C 145.164062 133.363281 145.148438 131.152344 145.53125 129.050781 C 145.582031 128.765625 145.859375 128.574219 146.144531 128.625 C 146.433594 128.675781 146.628906 128.953125 146.574219 129.242188 C 146.214844 131.214844 146.234375 133.296875 146.625 135.421875 C 148.460938 145.421875 158.085938 153.558594 168.074219 153.558594 C 172.8125 153.558594 176.9375 151.734375 179.695312 148.425781 C 182.523438 145.027344 183.589844 140.480469 182.695312 135.613281 C 180.855469 125.613281 171.234375 117.476562 161.246094 117.476562 C 155.859375 117.476562 151.25 119.859375 148.601562 124.011719 C 148.445312 124.257812 148.117188 124.332031 147.867188 124.171875 C 147.621094 124.015625 147.546875 123.6875 147.707031 123.441406 C 150.554688 118.976562 155.488281 116.414062 161.246094 116.414062 C 171.71875 116.414062 181.8125 124.941406 183.738281 135.421875 C 184.691406 140.601562 183.542969 145.460938 180.507812 149.105469 C 177.546875 152.664062 173.128906 154.621094 168.074219 154.621094 " fill-opacity="1" fill-rule="nonzero"/><path fill="#caddff" d="M 162.128906 123.300781 C 162.128906 123.300781 158.214844 120.480469 154.84375 126.378906 C 151.863281 131.589844 157.761719 136.257812 156.664062 139.5 C 155.566406 142.742188 150.148438 144.507812 150.148438 144.507812 C 150.148438 144.507812 152.664062 148.195312 155.246094 149.816406 L 179.472656 149.816406 C 179.472656 149.816406 183.480469 144.363281 183.195312 142.816406 C 183.195312 142.816406 177.765625 142.519531 176.546875 137.878906 C 175.320312 133.234375 176.835938 130.335938 171.285156 125.089844 C 165.535156 119.660156 162.128906 123.300781 162.128906 123.300781 " fill-opacity="1" fill-rule="nonzero"/><path fill="#5479f7" d="M 154.414062 149.027344 C 158.3125 152.164062 163.144531 154.089844 168.074219 154.089844 C 173.003906 154.089844 177.125 152.164062 179.875 149.027344 C 175.808594 147.832031 171.367188 147.164062 166.800781 147.164062 C 162.234375 147.164062 158.039062 147.832031 154.414062 149.027344 " fill-opacity="1" fill-rule="nonzero"/><path fill="#caddff" d="M 155.542969 149.226562 C 159.339844 152.027344 163.753906 153.558594 168.074219 153.558594 C 172.359375 153.558594 176.164062 152.054688 178.894531 149.300781 C 174.984375 148.234375 170.917969 147.695312 166.800781 147.695312 C 162.773438 147.695312 158.992188 148.207031 155.542969 149.226562 Z M 168.074219 154.621094 C 163.203125 154.621094 158.234375 152.78125 154.078125 149.4375 C 153.929688 149.316406 153.855469 149.121094 153.890625 148.929688 C 153.925781 148.738281 154.0625 148.582031 154.246094 148.519531 C 158.058594 147.269531 162.28125 146.632812 166.800781 146.632812 C 171.3125 146.632812 175.761719 147.265625 180.023438 148.515625 C 180.195312 148.566406 180.332031 148.703125 180.382812 148.875 C 180.433594 149.050781 180.390625 149.238281 180.273438 149.375 C 177.3125 152.757812 172.980469 154.621094 168.074219 154.621094 " fill-opacity="1" fill-rule="nonzero"/><path fill="#ffffff" d="M 167.488281 150.300781 C 165.871094 150.300781 164.316406 148.988281 164.019531 147.371094 L 161.273438 132.421875 L 167.128906 132.421875 L 169.878906 147.371094 C 170.175781 148.988281 169.105469 150.300781 167.488281 150.300781 " fill-opacity="1" fill-rule="nonzero"/><path fill="#caddff" d="M 161.910156 132.953125 L 164.542969 147.273438 C 164.796875 148.652344 166.117188 149.769531 167.488281 149.769531 C 168.101562 149.769531 168.628906 149.542969 168.980469 149.121094 C 169.339844 148.6875 169.472656 148.101562 169.355469 147.464844 L 166.6875 132.953125 Z M 167.488281 150.832031 C 165.628906 150.832031 163.839844 149.320312 163.5 147.464844 L 160.75 132.519531 C 160.722656 132.363281 160.765625 132.207031 160.867188 132.082031 C 160.964844 131.964844 161.113281 131.890625 161.273438 131.890625 L 167.128906 131.890625 C 167.386719 131.890625 167.605469 132.074219 167.652344 132.328125 L 170.398438 147.273438 C 170.574219 148.222656 170.359375 149.121094 169.792969 149.800781 C 169.238281 150.464844 168.421875 150.832031 167.488281 150.832031 " fill-opacity="1" fill-rule="nonzero"/><path fill="#ffffff" d="M 166.199219 142.816406 C 169.492188 142.816406 171.667969 140.140625 171.066406 136.84375 L 170.417969 133.328125 C 169.832031 130.140625 166.777344 127.558594 163.59375 127.558594 L 157.425781 127.558594 L 159.136719 136.84375 C 159.578125 139.261719 161.394531 141.339844 163.632812 142.28125 L 166.199219 142.816406 " fill-opacity="1" fill-rule="nonzero"/><path fill="#caddff" d="M 166.199219 143.347656 C 165.902344 143.347656 165.664062 143.105469 165.664062 142.816406 C 165.664062 142.523438 165.902344 142.285156 166.199219 142.285156 C 167.609375 142.285156 168.835938 141.742188 169.65625 140.765625 C 170.496094 139.753906 170.8125 138.398438 170.542969 136.941406 L 169.894531 133.425781 C 169.355469 130.484375 166.527344 128.089844 163.59375 128.089844 L 158.066406 128.089844 L 159.65625 136.75 C 160.054688 138.914062 161.695312 140.890625 163.835938 141.792969 C 164.105469 141.90625 164.230469 142.214844 164.117188 142.484375 C 164.003906 142.757812 163.695312 142.882812 163.425781 142.769531 C 160.960938 141.734375 159.074219 139.445312 158.613281 136.941406 L 156.90625 127.652344 C 156.875 127.5 156.917969 127.339844 157.019531 127.21875 C 157.121094 127.097656 157.269531 127.027344 157.425781 127.027344 L 163.59375 127.027344 C 167.015625 127.027344 170.308594 129.8125 170.9375 133.234375 L 171.585938 136.75 C 171.910156 138.519531 171.515625 140.1875 170.472656 141.441406 C 169.449219 142.671875 167.929688 143.347656 166.199219 143.347656 " fill-opacity="1" fill-rule="nonzero"/><path fill="#caddff" d="M 163.800781 127.777344 L 158.761719 133.601562 L 157.648438 127.558594 C 157.648438 127.558594 163.828125 127.925781 163.800781 127.777344 " fill-opacity="1" fill-rule="nonzero"/><path fill="#caddff" d="M 195.152344 187.59375 L 148.859375 187.59375 C 147.792969 187.59375 146.769531 186.726562 146.574219 185.660156 L 146.574219 185.65625 C 146.378906 184.589844 147.082031 183.726562 148.148438 183.726562 L 194.441406 183.726562 C 195.507812 183.726562 196.535156 184.589844 196.730469 185.65625 L 196.730469 185.660156 C 196.925781 186.726562 196.21875 187.59375 195.152344 187.59375 " fill-opacity="1" fill-rule="nonzero"/><path fill="#caddff" d="M 204.90625 197.710938 L 150.363281 197.710938 C 149.296875 197.710938 148.273438 196.84375 148.078125 195.777344 C 147.882812 194.707031 148.585938 193.84375 149.65625 193.84375 L 204.195312 193.84375 C 205.261719 193.84375 206.285156 194.707031 206.480469 195.777344 L 206.484375 195.777344 C 206.679688 196.84375 205.972656 197.710938 204.90625 197.710938 " fill-opacity="1" fill-rule="nonzero"/><path fill="#5479f7" d="M 184.933594 169.527344 L 161.226562 169.527344 C 159.652344 169.527344 158.136719 168.25 157.847656 166.671875 L 157.847656 166.667969 C 157.554688 165.09375 158.601562 163.816406 160.175781 163.816406 L 183.882812 163.816406 C 185.460938 163.816406 186.976562 165.09375 187.265625 166.667969 L 187.265625 166.671875 C 187.554688 168.25 186.511719 169.527344 184.933594 169.527344 " fill-opacity="1" fill-rule="nonzero"/><path fill="#23c7ac" d="M 115.824219 67.128906 C 115.132812 67.128906 46.804688 67.15625 45.753906 67.207031 C 43.273438 67.503906 41.117188 68.71875 39.71875 70.617188 C 38.242188 72.621094 37.707031 75.234375 38.210938 77.976562 L 58.972656 190.902344 C 60.09375 196.988281 65.953125 201.941406 72.035156 201.941406 L 140.808594 201.941406 C 143.675781 201.941406 146.175781 200.839844 147.839844 198.835938 C 149.546875 196.785156 150.191406 194.035156 149.652344 191.089844 L 128.886719 78.167969 C 127.769531 72.082031 121.910156 67.128906 115.824219 67.128906 Z M 140.808594 203 L 72.035156 203 C 65.464844 203 59.136719 197.65625 57.929688 191.089844 L 37.167969 78.167969 C 36.609375 75.136719 37.210938 72.230469 38.863281 69.988281 C 40.441406 67.847656 42.851562 66.488281 45.65625 66.152344 C 46.097656 66.097656 104.183594 66.074219 115.824219 66.070312 C 122.394531 66.070312 128.722656 71.410156 129.933594 77.976562 L 150.691406 190.902344 C 151.292969 194.160156 150.570312 197.21875 148.65625 199.515625 C 146.785156 201.765625 143.996094 203 140.808594 203 " fill-opacity="1" fill-rule="nonzero"/><path fill="#23c7ac" d="M 49.949219 145.285156 C 49.699219 145.285156 49.472656 145.105469 49.425781 144.851562 L 37.167969 78.167969 C 36.609375 75.136719 37.210938 72.230469 38.863281 69.988281 C 40.441406 67.847656 42.851562 66.488281 45.65625 66.152344 C 46.097656 66.097656 104.183594 66.074219 115.824219 66.070312 C 122.394531 66.070312 128.722656 71.410156 129.933594 77.976562 L 133.996094 100.085938 C 134.050781 100.375 133.859375 100.652344 133.570312 100.707031 C 133.28125 100.757812 133.003906 100.566406 132.953125 100.28125 L 128.886719 78.167969 C 127.769531 72.082031 121.910156 67.128906 115.824219 67.128906 C 115.132812 67.128906 46.804688 67.15625 45.753906 67.207031 C 43.273438 67.503906 41.117188 68.71875 39.71875 70.617188 C 38.242188 72.625 37.707031 75.234375 38.210938 77.976562 L 50.472656 144.660156 C 50.523438 144.949219 50.332031 145.226562 50.042969 145.277344 C 50.011719 145.28125 49.980469 145.285156 49.949219 145.285156 " fill-opacity="1" fill-rule="nonzero"/><path fill="#ffffff" d="M 110.191406 203 L 82.484375 203 C 82.191406 203 81.953125 202.765625 81.953125 202.472656 C 81.953125 202.179688 82.191406 201.941406 82.484375 201.941406 L 110.191406 201.941406 C 110.484375 201.941406 110.722656 202.179688 110.722656 202.472656 C 110.722656 202.765625 110.484375 203 110.191406 203 " fill-opacity="1" fill-rule="nonzero"/><path fill="#5479f7" d="M 105.675781 141.011719 L 86.816406 141.011719 C 85.5625 141.011719 84.359375 139.996094 84.128906 138.742188 C 83.898438 137.488281 84.726562 136.472656 85.980469 136.472656 L 104.839844 136.472656 C 106.09375 136.472656 107.300781 137.488281 107.53125 138.742188 C 107.757812 139.996094 106.929688 141.011719 105.675781 141.011719 " fill-opacity="1" fill-rule="nonzero"/><path fill="#5479f7" d="M 130.597656 153.464844 L 66.476562 153.464844 C 65.222656 153.464844 64.019531 152.449219 63.789062 151.195312 C 63.558594 149.941406 64.386719 148.925781 65.640625 148.925781 L 129.761719 148.925781 C 131.015625 148.925781 132.21875 149.941406 132.449219 151.195312 C 132.679688 152.449219 131.851562 153.464844 130.597656 153.464844 " fill-opacity="1" fill-rule="nonzero"/><path fill="#5479f7" d="M 132.203125 162.207031 L 68.082031 162.207031 C 66.828125 162.207031 65.625 161.191406 65.394531 159.9375 C 65.164062 158.683594 65.996094 157.664062 67.25 157.664062 L 131.367188 157.664062 C 132.621094 157.664062 133.824219 158.683594 134.054688 159.9375 C 134.285156 161.191406 133.457031 162.207031 132.203125 162.207031 " fill-opacity="1" fill-rule="nonzero"/><path fill="#5479f7" d="M 74.847656 116.546875 C 79.441406 120.242188 85.132812 122.507812 90.941406 122.507812 C 96.75 122.507812 101.605469 120.242188 104.84375 116.546875 C 100.054688 115.144531 94.820312 114.355469 89.441406 114.355469 C 84.0625 114.355469 79.117188 115.144531 74.847656 116.546875 " fill-opacity="1" fill-rule="nonzero"/><path fill="#5479f7" d="M 94.625 101.773438 L 95.414062 94.894531 C 95.710938 92.292969 94.160156 89.488281 91.605469 88.019531 C 90.503906 87.382812 89.296875 87.046875 88.121094 87.046875 L 81.222656 87.046875 C 79.683594 87.046875 78.308594 87.628906 77.371094 88.679688 L 77.058594 89.027344 C 75.574219 90.691406 75.421875 93.265625 76.671875 95.566406 L 80.097656 101.863281 L 94.625 101.773438 " fill-opacity="1" fill-rule="nonzero"/><path fill="#ffffff" d="M 85.5 90.277344 L 77.863281 90.277344 L 79.945312 101.589844 C 80.375 103.929688 81.746094 106.011719 83.976562 107.359375 L 85.121094 113.589844 C 85.574219 116.054688 87.9375 118.046875 90.398438 118.046875 C 92.863281 118.046875 94.492188 116.054688 94.039062 113.589844 L 92.921875 107.53125 C 94.328125 106.191406 95.25 104.027344 94.804688 101.589844 L 94.007812 97.253906 C 93.285156 93.324219 89.429688 90.277344 85.5 90.277344 " fill-opacity="1" fill-rule="nonzero"/><path fill="#caddff" d="M 90.253906 118.582031 C 87.550781 118.582031 84.945312 116.382812 84.449219 113.6875 L 83.316406 107.511719 C 83.261719 107.222656 83.453125 106.949219 83.742188 106.894531 C 84.03125 106.839844 84.308594 107.035156 84.359375 107.324219 L 85.496094 113.496094 C 85.902344 115.714844 88.035156 117.519531 90.253906 117.519531 C 91.269531 117.519531 92.152344 117.132812 92.734375 116.429688 C 93.335938 115.707031 93.5625 114.734375 93.371094 113.6875 L 92.28125 107.769531 C 92.230469 107.480469 92.417969 107.203125 92.707031 107.152344 C 92.996094 107.097656 93.273438 107.289062 93.324219 107.574219 L 94.414062 113.496094 C 94.664062 114.855469 94.359375 116.140625 93.550781 117.109375 C 92.761719 118.058594 91.589844 118.582031 90.253906 118.582031 " fill-opacity="1" fill-rule="nonzero"/><path fill="#5479f7" d="M 88.6875 109.484375 C 88.394531 109.484375 88.15625 109.246094 88.15625 108.953125 C 88.15625 108.660156 88.394531 108.425781 88.6875 108.425781 C 90.472656 108.425781 92.019531 107.742188 93.054688 106.5 C 94.113281 105.230469 94.511719 103.519531 94.175781 101.6875 L 93.375 97.351562 C 92.699219 93.667969 89.15625 90.667969 85.472656 90.667969 L 78.503906 90.667969 L 80.492188 101.496094 C 80.992188 104.203125 83.042969 106.679688 85.726562 107.804688 C 85.996094 107.917969 86.121094 108.230469 86.007812 108.503906 C 85.894531 108.769531 85.582031 108.898438 85.3125 108.785156 C 82.3125 107.523438 80.011719 104.738281 79.449219 101.6875 L 77.34375 90.234375 C 77.316406 90.078125 77.355469 89.921875 77.457031 89.800781 C 77.558594 89.679688 77.707031 89.609375 77.867188 89.609375 L 85.472656 89.609375 C 89.640625 89.609375 93.65625 92.996094 94.421875 97.160156 L 95.21875 101.496094 C 95.613281 103.644531 95.132812 105.664062 93.867188 107.183594 C 92.632812 108.667969 90.792969 109.484375 88.6875 109.484375 " fill-opacity="1" fill-rule="nonzero"/><path fill="#5479f7" d="M 89.980469 89.863281 L 79.507812 97.589844 L 78.140625 90.136719 C 78.140625 90.136719 90.015625 90.046875 89.980469 89.863281 " fill-opacity="1" fill-rule="nonzero"/><path fill="#caddff" d="M 90.917969 123.023438 C 85.375 123.023438 79.644531 120.972656 74.808594 117.1875 C 64.1875 108.882812 60.96875 94.703125 67.628906 85.574219 C 73.988281 76.859375 87.203125 75.777344 97.71875 83.109375 C 97.957031 83.277344 98.015625 83.605469 97.847656 83.847656 C 97.679688 84.089844 97.351562 84.148438 97.109375 83.980469 C 87.074219 76.976562 74.5 77.953125 68.488281 86.195312 C 62.160156 94.867188 65.289062 108.398438 75.460938 116.351562 C 80.953125 120.648438 87.628906 122.625 93.773438 121.765625 C 98.5625 121.097656 102.667969 118.71875 105.335938 115.0625 C 108.640625 110.527344 109.492188 104.417969 107.667969 98.292969 C 107.582031 98.011719 107.742188 97.71875 108.023438 97.632812 C 108.304688 97.550781 108.597656 97.710938 108.683594 97.992188 C 110.601562 104.433594 109.695312 110.886719 106.191406 115.6875 C 103.355469 119.578125 98.996094 122.109375 93.921875 122.816406 C 92.929688 122.957031 91.925781 123.023438 90.917969 123.023438 " fill-opacity="1" fill-rule="nonzero"/><path fill="#ffffff" d="M 151.910156 316.84375 C 153.105469 323.335938 149.445312 328.601562 143.738281 328.601562 L 81.804688 328.601562 C 76.097656 328.601562 70.503906 323.335938 69.308594 316.84375 L 47.1875 196.527344 C 45.992188 190.035156 49.652344 184.769531 55.359375 184.769531 L 117.292969 184.769531 C 123 184.769531 128.59375 190.035156 129.789062 196.527344 L 151.910156 316.84375 " fill-opacity="1" fill-rule="nonzero"/><path fill="#000000" d="M 143.738281 329.132812 L 81.804688 329.132812 C 75.863281 329.132812 70.023438 323.664062 68.789062 316.941406 L 46.664062 196.625 C 46.007812 193.050781 46.757812 189.648438 48.722656 187.289062 C 50.363281 185.320312 52.71875 184.238281 55.359375 184.238281 L 117.292969 184.238281 C 123.234375 184.238281 129.074219 189.707031 130.308594 196.429688 L 142.359375 261.964844 C 142.414062 262.253906 142.222656 262.53125 141.933594 262.582031 C 141.644531 262.636719 141.367188 262.445312 141.316406 262.15625 L 129.265625 196.625 C 128.117188 190.378906 122.746094 185.300781 117.292969 185.300781 L 55.359375 185.300781 C 53.039062 185.300781 50.972656 186.246094 49.539062 187.96875 C 47.777344 190.082031 47.109375 193.167969 47.710938 196.429688 L 69.832031 316.746094 C 70.980469 322.992188 76.351562 328.070312 81.804688 328.070312 L 143.738281 328.070312 C 146.058594 328.070312 148.125 327.121094 149.558594 325.402344 C 151.324219 323.289062 151.988281 320.203125 151.386719 316.941406 L 144.074219 277.171875 C 144.023438 276.882812 144.214844 276.605469 144.503906 276.554688 C 144.792969 276.5 145.066406 276.691406 145.121094 276.976562 L 152.433594 316.746094 C 153.089844 320.320312 152.339844 323.722656 150.375 326.082031 C 148.738281 328.050781 146.378906 329.132812 143.738281 329.132812 " fill-opacity="1" fill-rule="nonzero"/><path fill="#5479f7" d="M 106.558594 251.488281 L 89.535156 251.488281 C 88.40625 251.488281 87.316406 250.570312 87.109375 249.4375 C 86.902344 248.308594 87.652344 247.390625 88.78125 247.390625 L 105.804688 247.390625 C 106.933594 247.390625 108.019531 248.308594 108.230469 249.4375 C 108.4375 250.570312 107.6875 251.488281 106.558594 251.488281 " fill-opacity="1" fill-rule="nonzero"/><path fill="#caddff" d="M 129.191406 263.511719 L 71.324219 263.511719 C 70.191406 263.511719 69.105469 262.597656 68.898438 261.464844 C 68.691406 260.332031 69.4375 259.414062 70.570312 259.414062 L 128.4375 259.414062 C 129.570312 259.414062 130.65625 260.332031 130.863281 261.464844 C 131.070312 262.597656 130.320312 263.511719 129.191406 263.511719 " fill-opacity="1" fill-rule="nonzero"/><path fill="#caddff" d="M 130.832031 272.445312 L 72.964844 272.445312 C 71.835938 272.445312 70.75 271.527344 70.539062 270.394531 C 70.332031 269.265625 71.082031 268.347656 72.210938 268.347656 L 130.078125 268.347656 C 131.210938 268.347656 132.296875 269.265625 132.503906 270.394531 C 132.714844 271.527344 131.964844 272.445312 130.832031 272.445312 " fill-opacity="1" fill-rule="nonzero"/><path fill="#caddff" d="M 125.828125 299.390625 L 77.773438 299.390625 C 76.640625 299.390625 75.554688 298.472656 75.347656 297.34375 C 75.136719 296.210938 75.886719 295.292969 77.019531 295.292969 L 125.074219 295.292969 C 126.207031 295.292969 127.292969 296.210938 127.5 297.34375 C 127.707031 298.472656 126.960938 299.390625 125.828125 299.390625 " fill-opacity="1" fill-rule="nonzero"/><path fill="#caddff" d="M 137.28125 308.324219 L 79.414062 308.324219 C 78.28125 308.324219 77.195312 307.40625 76.988281 306.277344 C 76.78125 305.144531 77.53125 304.226562 78.660156 304.226562 L 136.527344 304.226562 C 137.660156 304.226562 138.746094 305.144531 138.953125 306.277344 C 139.160156 307.40625 138.414062 308.324219 137.28125 308.324219 " fill-opacity="1" fill-rule="nonzero"/><path fill="#caddff" d="M 116.480469 316.5625 L 80.929688 316.5625 C 79.796875 316.5625 78.710938 315.644531 78.503906 314.515625 C 78.296875 313.382812 79.042969 312.464844 80.175781 312.464844 L 115.726562 312.464844 C 116.855469 312.464844 117.941406 313.382812 118.152344 314.515625 C 118.359375 315.644531 117.609375 316.5625 116.480469 316.5625 " fill-opacity="1" fill-rule="nonzero"/><path fill="#caddff" d="M 113.34375 281.378906 L 74.609375 281.378906 C 73.476562 281.378906 72.390625 280.460938 72.183594 279.328125 C 71.976562 278.199219 72.722656 277.28125 73.855469 277.28125 L 112.589844 277.28125 C 113.722656 277.28125 114.808594 278.199219 115.015625 279.328125 C 115.222656 280.460938 114.476562 281.378906 113.34375 281.378906 " fill-opacity="1" fill-rule="nonzero"/><path fill="#caddff" d="M 134.117188 290.3125 L 76.25 290.3125 C 75.121094 290.3125 74.035156 289.394531 73.824219 288.261719 C 73.617188 287.132812 74.367188 286.214844 75.496094 286.214844 L 133.363281 286.214844 C 134.496094 286.214844 135.582031 287.132812 135.789062 288.261719 C 136 289.394531 135.25 290.3125 134.117188 290.3125 " fill-opacity="1" fill-rule="nonzero"/><path fill="#000000" d="M 86.46875 225.695312 C 82.546875 225.695312 78.953125 222.019531 79.199219 218.214844 C 79.605469 211.957031 81.535156 203.875 88.667969 202.730469 C 96.105469 201.542969 101.953125 210.878906 105.285156 218.003906 C 107.085938 221.867188 104.867188 225.695312 100.855469 225.695312 L 86.46875 225.695312 " fill-opacity="1" fill-rule="nonzero"/><path fill="#23c7ac" d="M 94.871094 238.035156 C 100.507812 237.898438 104.074219 236.679688 107.449219 232.828125 C 102.457031 231.367188 100.113281 231.304688 94.507812 231.304688 C 88.902344 231.304688 85.550781 231.582031 81.097656 233.046875 C 81.097656 233.046875 87.40625 238.21875 94.871094 238.035156 " fill-opacity="1" fill-rule="nonzero"/><path fill="#000000" d="M 81 233.597656 C 80.769531 233.597656 80.554688 233.445312 80.492188 233.210938 C 80.410156 232.929688 80.574219 232.636719 80.855469 232.558594 C 85.074219 231.371094 89.667969 230.769531 94.507812 230.769531 C 98.863281 230.769531 103.214844 231.261719 107.4375 232.226562 C 107.722656 232.292969 107.902344 232.574219 107.835938 232.863281 C 107.769531 233.148438 107.488281 233.324219 107.199219 233.261719 C 103.054688 232.3125 98.785156 231.832031 94.507812 231.832031 C 89.765625 231.832031 85.265625 232.417969 81.144531 233.578125 C 81.097656 233.59375 81.046875 233.597656 81 233.597656 " fill-opacity="1" fill-rule="nonzero"/><path fill="#ffffff" d="M 95.375 235.269531 C 93.386719 235.269531 91.480469 233.65625 91.117188 231.671875 L 87.15625 210.148438 L 94.347656 210.148438 L 98.308594 231.671875 C 98.671875 233.65625 97.359375 235.269531 95.375 235.269531 " fill-opacity="1" fill-rule="nonzero"/><path fill="#000000" d="M 87.796875 210.675781 L 91.636719 231.578125 C 91.957031 233.320312 93.632812 234.738281 95.371094 234.738281 C 96.160156 234.738281 96.84375 234.441406 97.296875 233.898438 C 97.761719 233.339844 97.933594 232.582031 97.785156 231.765625 L 93.90625 210.675781 Z M 95.371094 235.796875 C 93.148438 235.796875 91.003906 233.992188 90.59375 231.765625 L 86.636719 210.242188 C 86.609375 210.085938 86.648438 209.925781 86.75 209.808594 C 86.851562 209.6875 87 209.613281 87.15625 209.613281 L 94.347656 209.613281 C 94.605469 209.613281 94.824219 209.800781 94.871094 210.050781 L 98.828125 231.578125 C 99.035156 232.707031 98.78125 233.773438 98.113281 234.578125 C 97.453125 235.363281 96.480469 235.796875 95.371094 235.796875 " fill-opacity="1" fill-rule="nonzero"/><path fill="#ffffff" d="M 90.289062 222.238281 C 87.746094 221.085938 85.65625 218.535156 85.113281 215.570312 L 84.410156 211.746094 C 83.640625 207.566406 86.136719 204.179688 89.988281 204.179688 C 93.585938 204.179688 97.089844 207.347656 97.808594 211.257812 L 98.601562 215.570312 C 99.34375 219.617188 96.925781 222.894531 93.203125 222.894531 L 90.289062 222.238281 " fill-opacity="1" fill-rule="nonzero"/><path fill="#000000" d="M 93.203125 223.425781 C 92.910156 223.425781 92.671875 223.1875 92.671875 222.894531 C 92.671875 222.601562 92.910156 222.363281 93.203125 222.363281 C 94.71875 222.363281 96.058594 221.757812 96.972656 220.660156 C 98.027344 219.394531 98.429688 217.574219 98.078125 215.667969 L 97.285156 211.351562 C 96.613281 207.691406 93.339844 204.710938 89.988281 204.710938 C 88.414062 204.710938 87.027344 205.335938 86.078125 206.476562 C 84.984375 207.785156 84.566406 209.675781 84.929688 211.652344 L 85.632812 215.476562 C 86.128906 218.171875 88.042969 220.640625 90.511719 221.757812 C 90.777344 221.878906 90.894531 222.191406 90.773438 222.457031 C 90.652344 222.726562 90.339844 222.84375 90.070312 222.722656 C 87.300781 221.464844 85.148438 218.695312 84.589844 215.667969 L 83.886719 211.84375 C 83.46875 209.554688 83.96875 207.351562 85.261719 205.796875 C 86.417969 204.410156 88.09375 203.648438 89.988281 203.648438 C 93.824219 203.648438 97.566406 207.019531 98.328125 211.160156 L 99.121094 215.476562 C 99.53125 217.695312 99.042969 219.832031 97.789062 221.339844 C 96.667969 222.683594 95.039062 223.425781 93.203125 223.425781 " fill-opacity="1" fill-rule="nonzero"/><path fill="#000000" d="M 83.980469 209.691406 L 97.992188 209.691406 C 97.992188 209.691406 97.203125 206.929688 94.355469 205.078125 C 91.933594 203.503906 89.058594 203.351562 86.84375 204.4375 C 85.335938 205.175781 83.886719 206.5 84.007812 208.859375 L 83.980469 209.691406 " fill-opacity="1" fill-rule="nonzero"/><path fill="#000000" d="M 92.199219 218.730469 C 91.328125 218.730469 90.515625 218.378906 89.921875 217.742188 C 89.71875 217.527344 89.730469 217.191406 89.945312 216.992188 C 90.15625 216.792969 90.492188 216.800781 90.695312 217.015625 C 91.089844 217.4375 91.625 217.667969 92.199219 217.667969 C 92.777344 217.667969 93.3125 217.4375 93.707031 217.015625 C 93.910156 216.800781 94.246094 216.789062 94.457031 216.992188 C 94.671875 217.191406 94.683594 217.527344 94.480469 217.742188 C 93.882812 218.378906 93.074219 218.730469 92.199219 218.730469 " fill-opacity="1" fill-rule="nonzero"/><path fill="#000000" d="M 94.984375 238.507812 C 88.902344 238.507812 82.398438 235.828125 77.425781 230.699219 C 72.785156 225.914062 70.222656 219.738281 70.398438 213.761719 C 70.535156 209.050781 72.402344 204.808594 75.65625 201.820312 C 83.296875 194.808594 96.519531 196.332031 105.136719 205.222656 C 107.996094 208.171875 110.105469 211.695312 111.234375 215.40625 C 111.316406 215.6875 111.160156 215.984375 110.878906 216.070312 C 110.601562 216.152344 110.300781 215.996094 110.214844 215.714844 C 109.140625 212.164062 107.117188 208.789062 104.375 205.957031 C 96.15625 197.480469 83.59375 195.972656 76.375 202.605469 C 73.332031 205.394531 71.585938 209.371094 71.457031 213.792969 C 71.292969 219.484375 73.746094 225.378906 78.1875 229.960938 C 86.410156 238.441406 98.96875 239.945312 106.1875 233.316406 C 109.292969 230.46875 111.039062 226.40625 111.109375 221.878906 C 111.117188 221.589844 111.351562 221.355469 111.640625 221.355469 C 111.644531 221.355469 111.648438 221.355469 111.648438 221.355469 C 111.941406 221.363281 112.175781 221.601562 112.171875 221.894531 C 112.097656 226.71875 110.226562 231.050781 106.90625 234.101562 C 103.675781 237.066406 99.445312 238.507812 94.984375 238.507812 " fill-opacity="1" fill-rule="nonzero"/><path fill="#23c7ac" d="M 193.863281 266.695312 C 193.863281 267.929688 192.859375 268.933594 191.625 268.933594 C 190.386719 268.933594 189.382812 267.929688 189.382812 266.695312 C 189.382812 265.457031 190.386719 264.453125 191.625 264.453125 C 192.859375 264.453125 193.863281 265.457031 193.863281 266.695312 " fill-opacity="1" fill-rule="nonzero"/><path fill="#23c7ac" d="M 202.351562 266.695312 C 202.351562 267.929688 201.347656 268.933594 200.113281 268.933594 C 198.875 268.933594 197.871094 267.929688 197.871094 266.695312 C 197.871094 265.457031 198.875 264.453125 200.113281 264.453125 C 201.347656 264.453125 202.351562 265.457031 202.351562 266.695312 " fill-opacity="1" fill-rule="nonzero"/><path fill="#23c7ac" d="M 210.839844 266.695312 C 210.839844 267.929688 209.835938 268.933594 208.601562 268.933594 C 207.363281 268.933594 206.359375 267.929688 206.359375 266.695312 C 206.359375 265.457031 207.363281 264.453125 208.601562 264.453125 C 209.835938 264.453125 210.839844 265.457031 210.839844 266.695312 " fill-opacity="1" fill-rule="nonzero"/><path fill="#23c7ac" d="M 219.328125 266.695312 C 219.328125 267.929688 218.328125 268.933594 217.089844 268.933594 C 215.851562 268.933594 214.847656 267.929688 214.847656 266.695312 C 214.847656 265.457031 215.851562 264.453125 217.089844 264.453125 C 218.328125 264.453125 219.328125 265.457031 219.328125 266.695312 " fill-opacity="1" fill-rule="nonzero"/><path fill="#23c7ac" d="M 198.109375 285.476562 C 198.109375 286.714844 197.105469 287.71875 195.867188 287.71875 C 194.632812 287.71875 193.628906 286.714844 193.628906 285.476562 C 193.628906 284.238281 194.632812 283.234375 195.867188 283.234375 C 197.105469 283.234375 198.109375 284.238281 198.109375 285.476562 " fill-opacity="1" fill-rule="nonzero"/><path fill="#23c7ac" d="M 206.597656 285.476562 C 206.597656 286.714844 205.59375 287.71875 204.355469 287.71875 C 203.121094 287.71875 202.117188 286.714844 202.117188 285.476562 C 202.117188 284.238281 203.121094 283.234375 204.355469 283.234375 C 205.59375 283.234375 206.597656 284.238281 206.597656 285.476562 " fill-opacity="1" fill-rule="nonzero"/><path fill="#23c7ac" d="M 215.085938 285.476562 C 215.085938 286.714844 214.082031 287.71875 212.84375 287.71875 C 211.609375 287.71875 210.605469 286.714844 210.605469 285.476562 C 210.605469 284.238281 211.609375 283.234375 212.84375 283.234375 C 214.082031 283.234375 215.085938 284.238281 215.085938 285.476562 " fill-opacity="1" fill-rule="nonzero"/><path fill="#23c7ac" d="M 223.574219 285.476562 C 223.574219 286.714844 222.570312 287.71875 221.335938 287.71875 C 220.097656 287.71875 219.09375 286.714844 219.09375 285.476562 C 219.09375 284.238281 220.097656 283.234375 221.335938 283.234375 C 222.570312 283.234375 223.574219 284.238281 223.574219 285.476562 " fill-opacity="1" fill-rule="nonzero"/><path fill="#000000" d="M 230.128906 89.542969 L 213.074219 89.542969 C 209.582031 89.542969 207.136719 86.089844 208.300781 82.796875 L 212.4375 71.050781 L 233.871094 74.335938 L 233.871094 85.800781 C 233.871094 87.867188 232.195312 89.542969 230.128906 89.542969 " fill-opacity="1" fill-rule="nonzero"/><path fill="#000000" d="M 233.871094 74.335938 C 233.871094 80.390625 228.960938 85.304688 222.90625 85.304688 C 216.847656 85.304688 211.9375 80.390625 211.9375 74.335938 C 211.9375 68.277344 216.847656 63.367188 222.90625 63.367188 C 228.960938 63.367188 233.871094 68.277344 233.871094 74.335938 " fill-opacity="1" fill-rule="nonzero"/><path fill="#ffffff" d="M 268.171875 162.496094 L 266.210938 177.550781 L 273.761719 183.292969 L 277.800781 167.144531 L 268.171875 162.496094 " fill-opacity="1" fill-rule="nonzero"/><path fill="#000000" d="M 266.773438 177.320312 L 273.4375 182.386719 L 277.179688 167.4375 L 268.605469 163.292969 Z M 273.757812 183.824219 C 273.640625 183.824219 273.53125 183.785156 273.4375 183.71875 L 265.886719 177.976562 C 265.734375 177.859375 265.65625 177.675781 265.679688 177.484375 L 267.644531 162.429688 C 267.667969 162.257812 267.769531 162.109375 267.917969 162.03125 C 268.070312 161.949219 268.25 161.945312 268.402344 162.019531 L 278.03125 166.667969 C 278.257812 166.777344 278.375 167.027344 278.316406 167.273438 L 274.273438 183.425781 C 274.230469 183.597656 274.101562 183.734375 273.933594 183.796875 C 273.875 183.8125 273.816406 183.824219 273.757812 183.824219 " fill-opacity="1" fill-rule="nonzero"/><path fill="#000000" d="M 230.949219 152.53125 C 230.949219 152.53125 265.644531 107.742188 278.628906 113.269531 C 291.617188 118.792969 286.359375 155.285156 278.355469 169.648438 L 266.605469 166.59375 L 266.605469 159.515625 L 259.164062 172.675781 L 230.949219 152.53125 " fill-opacity="1" fill-rule="nonzero"/><path fill="#23c7ac" d="M 277.773438 172.339844 C 282.238281 175.453125 293.023438 183.257812 297.734375 189.871094 C 298.882812 191.484375 297.875 193.742188 295.902344 193.941406 C 288.847656 194.65625 274.550781 193.605469 264.492188 185.164062 C 264.492188 185.164062 264.625 181.933594 266.679688 176.183594 L 272.03125 178.382812 L 271.625 177.570312 C 271.015625 176.351562 271.320312 174.875 272.359375 173.992188 L 274.09375 172.515625 C 275.140625 171.625 276.648438 171.554688 277.773438 172.339844 " fill-opacity="1" fill-rule="nonzero"/><path fill="#ffffff" d="M 289.730469 191.59375 C 277.273438 191.59375 266.050781 184.449219 265.921875 184.363281 C 265.675781 184.203125 265.605469 183.875 265.761719 183.632812 C 265.921875 183.382812 266.25 183.3125 266.496094 183.472656 C 266.644531 183.566406 281.304688 192.894531 295.457031 189.964844 C 295.742188 189.90625 296.027344 190.089844 296.082031 190.378906 C 296.144531 190.664062 295.960938 190.945312 295.671875 191.003906 C 293.6875 191.414062 291.691406 191.59375 289.730469 191.59375 " fill-opacity="1" fill-rule="nonzero"/><path fill="#ffffff" d="M 280.375 181.382812 C 280.25 181.382812 280.121094 181.339844 280.019531 181.246094 C 279.800781 181.046875 279.78125 180.714844 279.980469 180.496094 L 283.574219 176.507812 C 283.769531 176.289062 284.105469 176.273438 284.324219 176.46875 C 284.539062 176.664062 284.558594 177 284.359375 177.21875 L 280.769531 181.207031 C 280.664062 181.324219 280.519531 181.382812 280.375 181.382812 " fill-opacity="1" fill-rule="nonzero"/><path fill="#ffffff" d="M 283.785156 183.824219 C 283.644531 183.824219 283.503906 183.769531 283.402344 183.660156 C 283.199219 183.449219 283.207031 183.113281 283.421875 182.910156 L 287.199219 179.332031 C 287.414062 179.128906 287.746094 179.136719 287.949219 179.351562 C 288.148438 179.5625 288.144531 179.898438 287.929688 180.097656 L 284.152344 183.679688 C 284.046875 183.777344 283.917969 183.824219 283.785156 183.824219 " fill-opacity="1" fill-rule="nonzero"/><path fill="#ffffff" d="M 294.75 245.976562 C 294.75 246.351562 303.003906 264.367188 303.003906 264.367188 L 293.621094 265.117188 L 287.242188 249.730469 L 294.75 245.976562 " fill-opacity="1" fill-rule="nonzero"/><path fill="#000000" d="M 295.277344 245.976562 Z M 295.277344 245.976562 Z M 287.921875 249.984375 L 293.964844 264.558594 L 302.207031 263.898438 C 296.746094 251.976562 295.015625 248.050781 294.46875 246.707031 Z M 293.621094 265.648438 C 293.40625 265.648438 293.214844 265.519531 293.132812 265.320312 L 286.75 249.933594 C 286.644531 249.675781 286.757812 249.378906 287.003906 249.257812 L 294.511719 245.503906 C 294.675781 245.421875 294.867188 245.429688 295.027344 245.527344 C 295.15625 245.605469 295.242188 245.734375 295.269531 245.878906 C 295.523438 246.683594 300.308594 257.214844 303.484375 264.144531 C 303.558594 264.304688 303.550781 264.484375 303.460938 264.636719 C 303.371094 264.785156 303.21875 264.882812 303.046875 264.894531 L 293.664062 265.644531 C 293.648438 265.648438 293.636719 265.648438 293.621094 265.648438 " fill-opacity="1" fill-rule="nonzero"/><path fill="#23c7ac" d="M 294.375 260.613281 C 294.375 260.613281 296.25 256.109375 301.128906 258.359375 C 301.128906 258.359375 310.085938 271.296875 313.410156 281.980469 C 314.355469 285 311.253906 287.722656 308.367188 286.421875 C 301.621094 283.375 291.039062 276.976562 284.992188 265.117188 C 284.992188 265.117188 286.867188 260.238281 289.871094 257.984375 L 294.375 260.613281 " fill-opacity="1" fill-rule="nonzero"/><path fill="#ffffff" d="M 310.664062 283.695312 C 308.136719 283.695312 298.878906 282.433594 286.8125 265.804688 C 286.640625 265.566406 286.695312 265.234375 286.929688 265.0625 C 287.167969 264.890625 287.5 264.945312 287.667969 265.183594 C 301.152344 283.761719 311.085938 282.621094 311.183594 282.605469 C 311.476562 282.566406 311.742188 282.765625 311.785156 283.058594 C 311.824219 283.34375 311.625 283.613281 311.335938 283.65625 C 311.28125 283.664062 311.050781 283.695312 310.664062 283.695312 " fill-opacity="1" fill-rule="nonzero"/><path fill="#ffffff" d="M 303.003906 273.527344 C 302.824219 273.527344 302.644531 273.433594 302.542969 273.265625 C 302.398438 273.011719 302.480469 272.6875 302.734375 272.539062 L 307.238281 269.914062 C 307.492188 269.765625 307.816406 269.851562 307.964844 270.101562 C 308.113281 270.355469 308.027344 270.683594 307.773438 270.828125 L 303.269531 273.457031 C 303.1875 273.503906 303.09375 273.527344 303.003906 273.527344 " fill-opacity="1" fill-rule="nonzero"/><path fill="#ffffff" d="M 300.753906 270.152344 C 300.5625 270.152344 300.378906 270.050781 300.285156 269.871094 C 300.148438 269.613281 300.242188 269.292969 300.5 269.152344 L 305.378906 266.527344 C 305.636719 266.386719 305.960938 266.484375 306.097656 266.742188 C 306.238281 267 306.140625 267.320312 305.882812 267.460938 L 301.003906 270.085938 C 300.921875 270.128906 300.835938 270.152344 300.753906 270.152344 " fill-opacity="1" fill-rule="nonzero"/><path fill="#000000" d="M 297.75 249.355469 L 284.988281 253.109375 C 284.988281 253.109375 261.722656 203.945312 254.964844 196.8125 C 248.210938 189.683594 235.078125 178.050781 221.191406 173.921875 C 207.304688 169.792969 207.304688 159.285156 207.304688 159.285156 L 237.601562 148.460938 C 237.601562 148.460938 263.972656 166.792969 274.855469 182.929688 C 285.742188 199.066406 297.75 249.355469 297.75 249.355469 " fill-opacity="1" fill-rule="nonzero"/><path fill="#ffffff" d="M 264.117188 170.945312 C 263.980469 170.945312 263.839844 170.890625 263.738281 170.785156 C 260.222656 167.164062 249.816406 158.421875 249.710938 158.332031 C 249.484375 158.140625 249.457031 157.808594 249.648438 157.582031 C 249.832031 157.359375 250.167969 157.332031 250.390625 157.519531 C 250.5 157.605469 260.945312 166.386719 264.5 170.042969 C 264.703125 170.253906 264.695312 170.589844 264.488281 170.792969 C 264.386719 170.894531 264.25 170.945312 264.117188 170.945312 " fill-opacity="1" fill-rule="nonzero"/><path fill="#23c7ac" d="M 229.394531 93.210938 C 229.394531 93.210938 240.640625 94.839844 247.617188 102.988281 C 254.589844 111.140625 265.195312 127.105469 265.464844 138.910156 C 265.734375 150.714844 250.765625 146.3125 244.59375 137.75 C 238.417969 129.1875 229.394531 93.210938 229.394531 93.210938 " fill-opacity="1" fill-rule="nonzero"/><path fill="#23c7ac" d="M 205.386719 95.390625 C 205.386719 95.390625 221.75 88.988281 239.695312 96.613281 L 249.523438 145.722656 C 224.285156 157.921875 217.71875 190.164062 206.835938 164.167969 C 203.339844 155.816406 203.328125 146.039062 203.339844 144.347656 L 205.386719 95.390625 " fill-opacity="1" fill-rule="nonzero"/><path fill="#ffffff" d="M 263.875 116.859375 C 263.875 116.859375 266.574219 136.675781 265.421875 140.222656 C 264.269531 143.773438 262.660156 148.054688 258.304688 144.210938 C 253.953125 140.367188 258.9375 121.238281 258.9375 121.238281 L 263.875 116.859375 " fill-opacity="1" fill-rule="nonzero"/><path fill="#000000" d="M 259.410156 121.527344 C 258.035156 126.882812 255.320312 140.867188 258.65625 143.8125 C 259.910156 144.917969 260.972656 145.363281 261.816406 145.132812 C 263.292969 144.730469 264.195312 142.300781 264.917969 140.058594 C 265.757812 137.46875 264.414062 124.976562 263.480469 117.917969 Z M 261.347656 146.253906 C 260.324219 146.253906 259.207031 145.710938 257.957031 144.609375 C 253.40625 140.59375 258.214844 121.894531 258.425781 121.101562 C 258.449219 121 258.507812 120.910156 258.585938 120.839844 L 263.523438 116.464844 C 263.667969 116.332031 263.875 116.292969 264.058594 116.363281 C 264.242188 116.429688 264.371094 116.59375 264.398438 116.789062 C 264.507812 117.601562 267.105469 136.761719 265.929688 140.386719 C 265.078125 143.007812 264.082031 145.613281 262.097656 146.15625 C 261.851562 146.222656 261.605469 146.253906 261.347656 146.253906 " fill-opacity="1" fill-rule="nonzero"/><path fill="#ffffff" d="M 253.109375 128.359375 L 252.082031 127.757812 L 263.980469 106.007812 L 272.523438 105.875 L 273.550781 106.480469 L 253.109375 128.359375 " fill-opacity="1" fill-rule="nonzero"/><path fill="#000000" d="M 261.652344 128.230469 L 253.109375 128.359375 L 265.007812 106.609375 L 273.550781 106.480469 L 261.652344 128.230469 " fill-opacity="1" fill-rule="nonzero"/><path fill="#000000" d="M 245.355469 131.933594 C 245.105469 131.933594 244.890625 131.765625 244.835938 131.511719 L 239.992188 108.40625 C 239.929688 108.121094 240.113281 107.835938 240.402344 107.777344 C 240.6875 107.71875 240.96875 107.902344 241.03125 108.1875 L 245.875 131.296875 C 245.9375 131.582031 245.75 131.863281 245.464844 131.925781 C 245.425781 131.933594 245.390625 131.933594 245.355469 131.933594 " fill-opacity="1" fill-rule="nonzero"/><path fill="#23c7ac" d="M 227.714844 135.34375 C 225.046875 135.222656 222.347656 134.707031 219.738281 133.613281 C 205.671875 127.714844 214.03125 104.960938 214.03125 104.960938 L 205.382812 95.394531 C 182.21875 113.722656 190.761719 142.210938 210.898438 148.835938 C 217.917969 151.148438 224.480469 150.710938 230.246094 148.960938 C 225.136719 143.632812 226.246094 138.417969 227.714844 135.34375 " fill-opacity="1" fill-rule="nonzero"/><path fill="#ffffff" d="M 261.59375 121.121094 L 260.933594 117.019531 L 253.78125 124.957031 L 255.820312 121.082031 C 255.820312 121.082031 254.089844 121.667969 252.710938 123.140625 C 251.375 124.574219 249.757812 128.929688 249.660156 129.191406 C 246.8125 130.851562 237.480469 135.773438 227.71875 135.34375 C 226.246094 138.417969 224.679688 143.128906 229.785156 148.457031 C 243.46875 144.292969 253.089844 133.183594 253.089844 133.183594 C 259.339844 130.050781 261.59375 121.121094 261.59375 121.121094 " fill-opacity="1" fill-rule="nonzero"/><path fill="#000000" d="M 228.046875 135.886719 C 226.59375 139.046875 225.640625 143.199219 229.941406 147.855469 C 243.148438 143.710938 252.59375 132.949219 252.6875 132.839844 C 252.734375 132.789062 252.789062 132.742188 252.851562 132.710938 C 258.464844 129.898438 260.777344 122.082031 261.050781 121.09375 L 260.582031 118.199219 L 254.171875 125.316406 C 253.992188 125.515625 253.695312 125.550781 253.476562 125.394531 C 253.257812 125.242188 253.183594 124.949219 253.308594 124.714844 L 254.582031 122.292969 C 254.109375 122.59375 253.578125 122.992188 253.097656 123.507812 C 252.078125 124.59375 250.730469 127.824219 250.15625 129.378906 C 250.113281 129.492188 250.035156 129.589844 249.925781 129.652344 C 247.261719 131.207031 237.878906 136.199219 228.046875 135.886719 Z M 229.78125 148.988281 C 229.640625 148.988281 229.503906 148.933594 229.398438 148.828125 C 224.242188 143.445312 225.535156 138.671875 227.234375 135.113281 C 227.328125 134.921875 227.519531 134.804688 227.738281 134.8125 C 237.226562 135.234375 246.390625 130.464844 249.230469 128.832031 C 249.585938 127.878906 251.039062 124.15625 252.324219 122.78125 C 253.773438 121.226562 255.570312 120.609375 255.648438 120.582031 C 255.851562 120.511719 256.078125 120.574219 256.222656 120.742188 C 256.359375 120.90625 256.386719 121.140625 256.289062 121.332031 L 256.21875 121.457031 L 260.535156 116.667969 C 260.671875 116.515625 260.882812 116.457031 261.082031 116.515625 C 261.277344 116.570312 261.421875 116.738281 261.453125 116.9375 L 262.117188 121.039062 C 262.125 121.109375 262.125 121.183594 262.105469 121.253906 C 262.011719 121.625 259.742188 130.371094 253.417969 133.613281 C 252.507812 134.632812 242.996094 144.992188 229.9375 148.96875 C 229.886719 148.984375 229.835938 148.988281 229.78125 148.988281 " fill-opacity="1" fill-rule="nonzero"/><path fill="#000000" d="M 222.726562 135.394531 C 222.671875 135.394531 222.613281 135.382812 222.554688 135.367188 C 211.621094 131.636719 210.808594 122.605469 211.324219 115.15625 C 211.34375 114.863281 211.601562 114.644531 211.890625 114.664062 C 212.179688 114.683594 212.402344 114.9375 212.382812 115.230469 C 211.644531 125.875 214.792969 131.597656 222.898438 134.359375 C 223.175781 134.457031 223.324219 134.757812 223.230469 135.035156 C 223.15625 135.253906 222.949219 135.394531 222.726562 135.394531 " fill-opacity="1" fill-rule="nonzero"/><path fill="#000000" d="M 222.035156 150.898438 C 222.023438 150.898438 222.011719 150.898438 222.003906 150.898438 C 213.265625 150.378906 207.734375 149.019531 204.585938 146.625 C 204.355469 146.449219 204.308594 146.113281 204.488281 145.878906 C 204.667969 145.648438 205 145.605469 205.230469 145.78125 C 208.160156 148.011719 213.667969 149.339844 222.066406 149.839844 C 222.359375 149.855469 222.582031 150.105469 222.5625 150.398438 C 222.546875 150.679688 222.3125 150.898438 222.035156 150.898438 " fill-opacity="1" fill-rule="nonzero"/><path fill="#ffffff" d="M 227.613281 86.265625 C 231.292969 85.535156 232.828125 74.085938 232.878906 73.925781 C 232.878906 73.921875 232.878906 73.914062 232.878906 73.910156 L 220.917969 73.136719 C 221.148438 73.765625 221.378906 74.339844 221.441406 74.738281 C 221.660156 76.085938 219.410156 74.398438 218.4375 74.835938 C 217.789062 75.121094 217.542969 76 218.175781 77.199219 C 218.570312 77.949219 219.226562 78.683594 219.816406 79.03125 C 219.90625 79.742188 220.09375 80.445312 220.359375 81.121094 L 220.332031 81.109375 L 217.109375 91.042969 L 210.558594 93.957031 C 226.410156 100.996094 231.433594 93.984375 231.433594 93.984375 L 225.410156 91.707031 L 226.089844 86.304688 C 226.589844 86.375 227.101562 86.367188 227.613281 86.265625 " fill-opacity="1" fill-rule="nonzero"/><path fill="#000000" d="M 227.617188 86.261719 Z M 211.882812 93.949219 C 223.640625 98.832031 228.941406 95.566406 230.492188 94.195312 L 225.226562 92.199219 C 224.996094 92.109375 224.855469 91.878906 224.882812 91.636719 L 225.566406 86.238281 C 225.582031 86.097656 225.660156 85.96875 225.769531 85.882812 C 225.878906 85.796875 226.023438 85.761719 226.160156 85.777344 C 226.625 85.839844 227.078125 85.828125 227.511719 85.742188 C 229.355469 85.375 231.164062 81.042969 232.261719 74.398438 L 221.699219 73.71875 C 221.824219 74.070312 221.921875 74.378906 221.964844 74.652344 C 222.050781 75.164062 221.871094 75.445312 221.703125 75.589844 C 221.273438 75.960938 220.660156 75.769531 219.957031 75.546875 C 219.53125 75.414062 218.890625 75.210938 218.652344 75.316406 C 218.523438 75.375 218.433594 75.476562 218.386719 75.621094 C 218.273438 75.941406 218.367188 76.425781 218.644531 76.949219 C 218.988281 77.605469 219.582031 78.269531 220.085938 78.574219 C 220.226562 78.65625 220.320312 78.800781 220.339844 78.960938 C 220.425781 79.609375 220.597656 80.269531 220.855469 80.925781 C 220.921875 81.101562 220.894531 81.300781 220.78125 81.445312 L 217.617188 91.207031 C 217.570312 91.347656 217.464844 91.464844 217.328125 91.527344 Z M 223.082031 97.640625 C 219.90625 97.640625 215.738281 96.835938 210.34375 94.441406 C 210.15625 94.355469 210.03125 94.167969 210.03125 93.957031 C 210.03125 93.75 210.15625 93.558594 210.34375 93.472656 L 216.679688 90.652344 L 219.78125 81.085938 C 219.570312 80.503906 219.417969 79.921875 219.324219 79.34375 C 218.714844 78.90625 218.097656 78.191406 217.703125 77.445312 C 217.171875 76.425781 217.234375 75.703125 217.382812 75.273438 C 217.527344 74.855469 217.824219 74.523438 218.21875 74.347656 C 218.828125 74.078125 219.59375 74.320312 220.273438 74.535156 C 220.460938 74.59375 220.714844 74.671875 220.898438 74.714844 C 220.832031 74.433594 220.6875 74.039062 220.535156 73.621094 L 220.421875 73.316406 C 220.359375 73.148438 220.386719 72.960938 220.496094 72.820312 C 220.601562 72.671875 220.777344 72.597656 220.953125 72.605469 L 232.917969 73.375 C 233.078125 73.390625 233.222656 73.472656 233.316406 73.601562 C 233.40625 73.734375 233.4375 73.902344 233.390625 74.054688 C 233.390625 74.066406 233.382812 74.128906 233.363281 74.230469 C 232.660156 78.640625 230.992188 86.132812 227.71875 86.78125 C 227.339844 86.855469 226.949219 86.886719 226.554688 86.875 L 225.992188 91.355469 L 231.621094 93.488281 C 231.773438 93.546875 231.894531 93.671875 231.941406 93.832031 C 231.988281 93.988281 231.960938 94.160156 231.863281 94.292969 C 231.722656 94.492188 229.359375 97.640625 223.082031 97.640625 " fill-opacity="1" fill-rule="nonzero"/><path fill="#ffffff" d="M 222.472656 83.429688 C 222.472656 83.429688 223.214844 86.074219 226.089844 86.304688 L 222.472656 83.429688 " fill-opacity="1" fill-rule="nonzero"/><path fill="#000000" d="M 226.09375 86.835938 C 226.078125 86.835938 226.0625 86.835938 226.050781 86.835938 C 222.839844 86.578125 221.996094 83.695312 221.960938 83.574219 C 221.882812 83.289062 222.046875 82.996094 222.332031 82.917969 C 222.609375 82.839844 222.902344 83.003906 222.984375 83.28125 C 223.011719 83.378906 223.675781 85.578125 226.132812 85.777344 C 226.425781 85.800781 226.640625 86.054688 226.621094 86.347656 C 226.597656 86.625 226.367188 86.835938 226.09375 86.835938 " fill-opacity="1" fill-rule="nonzero"/><path fill="#caddff" d="M 161.65625 319.835938 C 161.65625 319.835938 146.609375 286.855469 155.242188 244.097656 C 155.242188 244.097656 178.5625 263.636719 170.15625 319.835938 L 161.65625 319.835938 " fill-opacity="1" fill-rule="nonzero"/><path fill="#000000" d="M 162.003906 319.304688 L 169.699219 319.304688 C 173.910156 290.648438 169.671875 271.839844 165.359375 261.089844 C 161.628906 251.792969 157.230469 246.804688 155.574219 245.140625 C 151.378906 266.738281 153.328125 285.695312 155.726562 297.863281 C 158.078125 309.800781 161.308594 317.683594 162.003906 319.304688 Z M 170.15625 320.367188 L 161.65625 320.367188 C 161.449219 320.367188 161.261719 320.246094 161.175781 320.054688 C 161.136719 319.972656 157.355469 311.597656 154.691406 298.105469 C 152.234375 285.65625 150.246094 266.164062 154.722656 243.992188 C 154.757812 243.808594 154.890625 243.65625 155.066406 243.597656 C 155.242188 243.535156 155.4375 243.570312 155.582031 243.6875 C 155.824219 243.890625 161.570312 248.796875 166.34375 260.695312 C 170.726562 271.621094 175.042969 290.769531 170.679688 319.914062 C 170.640625 320.175781 170.417969 320.367188 170.15625 320.367188 " fill-opacity="1" fill-rule="nonzero"/><path fill="#ffffff" d="M 165.335938 316.929688 C 165.328125 316.929688 165.316406 316.925781 165.308594 316.925781 C 165.015625 316.910156 164.789062 316.660156 164.804688 316.367188 C 165.957031 295.292969 156.453125 250.292969 156.355469 249.84375 C 156.296875 249.554688 156.476562 249.277344 156.765625 249.214844 C 157.050781 249.152344 157.332031 249.335938 157.394531 249.625 C 157.492188 250.074219 167.027344 295.210938 165.867188 316.425781 C 165.851562 316.710938 165.617188 316.929688 165.335938 316.929688 " fill-opacity="1" fill-rule="nonzero"/><path fill="#ffffff" d="M 176.796875 266.214844 C 176.796875 266.214844 157.40625 301.242188 169.070312 316.398438 L 175.308594 316.398438 C 175.308594 316.398438 187.773438 289.015625 176.796875 266.214844 " fill-opacity="1" fill-rule="nonzero"/><path fill="#000000" d="M 169.335938 315.867188 L 174.960938 315.867188 C 176.253906 312.828125 186.132812 288.226562 176.765625 267.402344 C 173.84375 273.015625 159.371094 302.425781 169.335938 315.867188 Z M 175.308594 316.929688 L 169.070312 316.929688 C 168.90625 316.929688 168.75 316.851562 168.648438 316.71875 C 163.699219 310.289062 163.5 299.773438 168.054688 285.460938 C 171.421875 274.882812 176.28125 266.042969 176.332031 265.957031 C 176.425781 265.78125 176.601562 265.671875 176.8125 265.683594 C 177.007812 265.6875 177.1875 265.804688 177.273438 265.984375 C 183.007812 277.890625 182.296875 291.027344 180.691406 299.953125 C 178.953125 309.597656 175.824219 316.546875 175.789062 316.617188 C 175.703125 316.808594 175.515625 316.929688 175.308594 316.929688 " fill-opacity="1" fill-rule="nonzero"/><path fill="#000000" d="M 171.984375 317.855469 C 171.699219 317.855469 171.464844 317.632812 171.453125 317.34375 C 170.890625 302.878906 176.21875 266.5 176.269531 266.136719 C 176.3125 265.847656 176.585938 265.644531 176.871094 265.6875 C 177.160156 265.730469 177.363281 266 177.320312 266.289062 C 177.265625 266.65625 171.953125 302.9375 172.511719 317.304688 C 172.523438 317.597656 172.296875 317.84375 172.003906 317.855469 C 171.996094 317.855469 171.988281 317.855469 171.984375 317.855469 " fill-opacity="1" fill-rule="nonzero"/><path fill="#ffffff" d="M 139.78125 279.269531 C 139.78125 279.269531 156.296875 284.90625 162.277344 318.265625 L 155.78125 318.265625 C 155.78125 318.265625 142.222656 299.945312 139.78125 279.269531 " fill-opacity="1" fill-rule="nonzero"/><path fill="#000000" d="M 156.050781 317.734375 L 161.640625 317.734375 C 156.472656 289.816406 143.765625 281.792969 140.425781 280.132812 C 142.953125 298.871094 154.570312 315.65625 156.050781 317.734375 Z M 162.277344 318.796875 L 155.78125 318.796875 C 155.613281 318.796875 155.453125 318.714844 155.355469 318.582031 C 155.21875 318.394531 141.6875 299.90625 139.253906 279.332031 C 139.234375 279.152344 139.304688 278.972656 139.449219 278.859375 C 139.589844 278.742188 139.78125 278.710938 139.953125 278.769531 C 140.125 278.828125 144.273438 280.289062 149.183594 285.90625 C 153.679688 291.050781 159.6875 300.820312 162.800781 318.171875 C 162.824219 318.324219 162.785156 318.484375 162.683594 318.605469 C 162.582031 318.726562 162.433594 318.796875 162.277344 318.796875 " fill-opacity="1" fill-rule="nonzero"/><path fill="#000000" d="M 158.726562 317.855469 C 158.46875 317.855469 158.246094 317.671875 158.203125 317.410156 C 155.75 302.582031 145.121094 287.632812 145.015625 287.484375 C 144.84375 287.246094 144.898438 286.914062 145.140625 286.746094 C 145.375 286.574219 145.707031 286.628906 145.878906 286.867188 C 145.984375 287.015625 156.753906 302.160156 159.25 317.238281 C 159.296875 317.527344 159.101562 317.800781 158.8125 317.847656 C 158.785156 317.851562 158.753906 317.855469 158.726562 317.855469 " fill-opacity="1" fill-rule="nonzero"/><path fill="#23c7ac" d="M 146.152344 315.617188 L 186.898438 315.617188 L 187.8125 334.890625 C 188.035156 339.613281 184.265625 343.570312 179.535156 343.570312 L 156.261719 343.570312 C 150.667969 343.570312 146.128906 339.027344 146.136719 333.429688 L 146.152344 315.617188 " fill-opacity="1" fill-rule="nonzero"/><path fill="#000000" d="M 243.886719 215.046875 C 243.597656 215.046875 243.363281 214.8125 243.355469 214.527344 L 243.316406 212.644531 C 243.308594 212.351562 243.542969 212.113281 243.835938 212.105469 C 243.839844 212.105469 243.84375 212.105469 243.847656 212.105469 C 244.132812 212.105469 244.371094 212.332031 244.375 212.621094 L 244.417969 214.503906 C 244.421875 214.792969 244.191406 215.039062 243.898438 215.046875 C 243.894531 215.046875 243.890625 215.046875 243.886719 215.046875 " fill-opacity="1" fill-rule="nonzero"/><path fill="#000000" d="M 244.027344 221.628906 C 243.742188 221.628906 243.503906 221.398438 243.496094 221.109375 L 243.457031 219.230469 C 243.453125 218.933594 243.683594 218.691406 243.976562 218.6875 C 243.980469 218.6875 243.984375 218.6875 243.988281 218.6875 C 244.277344 218.6875 244.511719 218.914062 244.515625 219.207031 L 244.558594 221.085938 C 244.566406 221.378906 244.332031 221.621094 244.039062 221.628906 C 244.035156 221.628906 244.035156 221.628906 244.027344 221.628906 " fill-opacity="1" fill-rule="nonzero"/><path fill="#000000" d="M 239.765625 217.429688 C 239.472656 217.429688 239.238281 217.195312 239.234375 216.902344 C 239.234375 216.613281 239.46875 216.371094 239.761719 216.371094 L 241.617188 216.355469 C 241.910156 216.355469 242.148438 216.589844 242.148438 216.878906 C 242.152344 217.175781 241.917969 217.414062 241.625 217.417969 L 239.769531 217.429688 C 239.769531 217.429688 239.765625 217.429688 239.765625 217.429688 " fill-opacity="1" fill-rule="nonzero"/><path fill="#000000" d="M 246.253906 217.378906 C 245.960938 217.378906 245.722656 217.144531 245.722656 216.851562 C 245.71875 216.5625 245.953125 216.320312 246.25 216.316406 L 248.101562 216.304688 C 248.390625 216.300781 248.632812 216.535156 248.636719 216.828125 C 248.636719 217.125 248.402344 217.363281 248.109375 217.367188 L 246.257812 217.378906 C 246.253906 217.378906 246.253906 217.378906 246.253906 217.378906 " fill-opacity="1" fill-rule="nonzero"/><path fill="#000000" d="M 241.617188 323.292969 C 241.484375 323.292969 241.347656 323.238281 241.242188 323.136719 C 241.035156 322.929688 241.035156 322.59375 241.242188 322.386719 L 278.980469 284.648438 C 279.1875 284.441406 279.523438 284.441406 279.730469 284.648438 C 279.9375 284.855469 279.9375 285.191406 279.730469 285.398438 L 241.992188 323.136719 C 241.890625 323.238281 241.753906 323.292969 241.617188 323.292969 " fill-opacity="1" fill-rule="nonzero"/><path fill="#000000" d="M 226.089844 326.507812 C 225.957031 326.507812 225.820312 326.453125 225.714844 326.351562 C 225.511719 326.144531 225.511719 325.808594 225.714844 325.601562 L 246.839844 304.476562 C 247.046875 304.269531 247.382812 304.269531 247.589844 304.476562 C 247.796875 304.683594 247.796875 305.023438 247.589844 305.226562 L 226.46875 326.351562 C 226.363281 326.453125 226.226562 326.507812 226.089844 326.507812 " fill-opacity="1" fill-rule="nonzero"/><path fill="#000000" d="M 193.371094 61.039062 C 192.625 61.039062 192.019531 61.644531 192.019531 62.390625 C 192.019531 63.136719 192.625 63.742188 193.371094 63.742188 C 194.113281 63.742188 194.722656 63.136719 194.722656 62.390625 C 194.722656 61.644531 194.113281 61.039062 193.371094 61.039062 Z M 193.371094 64.804688 C 192.039062 64.804688 190.957031 63.722656 190.957031 62.390625 C 190.957031 61.0625 192.039062 59.976562 193.371094 59.976562 C 194.699219 59.976562 195.78125 61.0625 195.78125 62.390625 C 195.78125 63.722656 194.699219 64.804688 193.371094 64.804688 " fill-opacity="1" fill-rule="nonzero"/><path fill="#000000" d="M 303.003906 157.121094 C 300.03125 157.121094 297.613281 154.703125 297.613281 151.730469 C 297.613281 148.761719 300.03125 146.34375 303.003906 146.34375 C 303.296875 146.34375 303.53125 146.578125 303.53125 146.875 C 303.53125 147.164062 303.296875 147.402344 303.003906 147.402344 C 300.617188 147.402344 298.675781 149.34375 298.675781 151.730469 C 298.675781 154.117188 300.617188 156.058594 303.003906 156.058594 C 305.390625 156.058594 307.328125 154.117188 307.328125 151.730469 C 307.328125 151.4375 307.570312 151.199219 307.863281 151.199219 C 308.152344 151.199219 308.390625 151.4375 308.390625 151.730469 C 308.390625 154.703125 305.972656 157.121094 303.003906 157.121094 " fill-opacity="1" fill-rule="nonzero"/><path fill="#ffffff" d="M 145.046875 85.980469 C 145.046875 87.4375 143.867188 88.617188 142.414062 88.617188 C 140.960938 88.617188 139.78125 87.4375 139.78125 85.980469 C 139.78125 84.527344 140.960938 83.347656 142.414062 83.347656 C 143.867188 83.347656 145.046875 84.527344 145.046875 85.980469 " fill-opacity="1" fill-rule="nonzero"/><path fill="#000000" d="M 163.625 89.09375 C 163.488281 89.09375 163.351562 89.042969 163.25 88.9375 C 163.042969 88.730469 163.042969 88.398438 163.25 88.1875 L 182.835938 68.601562 C 183.042969 68.394531 183.378906 68.394531 183.585938 68.601562 C 183.792969 68.808594 183.792969 69.144531 183.585938 69.351562 L 164 88.9375 C 163.894531 89.042969 163.761719 89.09375 163.625 89.09375 " fill-opacity="1" fill-rule="nonzero"/><path fill="#000000" d="M 294.175781 203.445312 C 294.039062 203.445312 293.902344 203.394531 293.800781 203.292969 C 293.589844 203.085938 293.589844 202.75 293.800781 202.542969 L 315.582031 180.757812 C 315.789062 180.550781 316.125 180.550781 316.332031 180.757812 C 316.542969 180.964844 316.542969 181.300781 316.332031 181.507812 L 294.550781 203.292969 C 294.445312 203.394531 294.308594 203.445312 294.175781 203.445312 " fill-opacity="1" fill-rule="nonzero"/></svg>