<svg xmlns="http://www.w3.org/2000/svg" xmlns:xlink="http://www.w3.org/1999/xlink" width="500" zoomAndPan="magnify" viewBox="0 0 375 374.999991" height="500" preserveAspectRatio="xMidYMid meet" version="1.0"><defs><filter x="0%" y="0%" width="100%" height="100%" id="f0fe957f6d"><feColorMatrix values="0 0 0 0 1 0 0 0 0 1 0 0 0 0 1 0 0 0 1 0" color-interpolation-filters="sRGB"/></filter><clipPath id="78089410ac"><path d="M 146 54.488281 L 269 54.488281 L 269 308 L 146 308 Z M 146 54.488281 " clip-rule="nonzero"/></clipPath><clipPath id="43f3664a9e"><path d="M 157 98 L 210 98 L 210 320.738281 L 157 320.738281 Z M 157 98 " clip-rule="nonzero"/></clipPath><clipPath id="72a8b3e6a5"><path d="M 159 183 L 200 183 L 200 320.738281 L 159 320.738281 Z M 159 183 " clip-rule="nonzero"/></clipPath><mask id="4959dcc6b8"><g filter="url(#f0fe957f6d)"><rect x="-37.5" width="450" fill="#000000" y="-37.499999" height="449.999989" fill-opacity="0.1"/></g></mask><clipPath id="31c50d7634"><path d="M 0.121094 1 L 40 1 L 40 137.738281 L 0.121094 137.738281 Z M 0.121094 1 " clip-rule="nonzero"/></clipPath><clipPath id="543c385077"><rect x="0" width="41" y="0" height="138"/></clipPath><clipPath id="d2a6f2c6fe"><path d="M 94 129 L 230 129 L 230 320.738281 L 94 320.738281 Z M 94 129 " clip-rule="nonzero"/></clipPath><clipPath id="5a3fff8633"><path d="M 122 173 L 290 173 L 290 320.738281 L 122 320.738281 Z M 122 173 " clip-rule="nonzero"/></clipPath><clipPath id="295a6409da"><path d="M 26.007812 180 L 349 180 L 349 320.738281 L 26.007812 320.738281 Z M 26.007812 180 " clip-rule="nonzero"/></clipPath><clipPath id="33756c4b14"><path d="M 94 267 L 270 267 L 270 320.738281 L 94 320.738281 Z M 94 267 " clip-rule="nonzero"/></clipPath><mask id="edfe880a94"><g filter="url(#f0fe957f6d)"><rect x="-37.5" width="450" fill="#000000" y="-37.499999" height="449.999989" fill-opacity="0.1"/></g></mask><clipPath id="82892622fb"><path d="M 0.320312 0.121094 L 175 0.121094 L 175 53.738281 L 0.320312 53.738281 Z M 0.320312 0.121094 " clip-rule="nonzero"/></clipPath><clipPath id="45c8999dbb"><rect x="0" width="176" y="0" height="54"/></clipPath><clipPath id="f147e76082"><path d="M 222 129 L 326 129 L 326 320.738281 L 222 320.738281 Z M 222 129 " clip-rule="nonzero"/></clipPath><clipPath id="4d5b675d46"><path d="M 78 94 L 315 94 L 315 320.738281 L 78 320.738281 Z M 78 94 " clip-rule="nonzero"/></clipPath></defs><g clip-path="url(#78089410ac)"><path fill="#fde2dd" d="M 262.589844 293.515625 C 264.601562 298.105469 264.621094 307.222656 264.621094 307.222656 L 242.382812 307.222656 C 242.304688 307.625 254.480469 292.664062 254.480469 292.664062 L 259.023438 289.714844 C 259.03125 289.714844 262.144531 292.3125 262.589844 293.515625 Z M 268.480469 136.984375 L 268.480469 60.804688 C 268.480469 57.320312 265.65625 54.488281 262.164062 54.488281 L 152.695312 54.488281 C 149.210938 54.488281 146.378906 57.3125 146.378906 60.804688 L 146.378906 136.984375 C 146.378906 140.464844 149.203125 143.296875 152.695312 143.296875 L 262.171875 143.296875 C 265.65625 143.296875 268.480469 140.464844 268.480469 136.984375 Z M 268.480469 136.984375 " fill-opacity="1" fill-rule="nonzero"/></g><path fill="#5479f7" d="M 164.316406 300.148438 L 159.242188 300.148438 C 159.242188 300.148438 159.726562 247.054688 164.75 237.289062 C 164.75 237.289062 162.886719 196.777344 168.304688 187.378906 C 173.71875 177.988281 205.078125 186.761719 205.335938 187.378906 C 205.59375 188 223.179688 300.308594 223.179688 300.308594 L 218.460938 300.148438 L 211.121094 304.832031 L 202.820312 300.148438 L 199.339844 300.148438 C 196.675781 285.761719 190.664062 261.789062 191.089844 257.851562 L 186.546875 300.148438 L 179.957031 300.148438 L 171.578125 306.410156 Z M 230.753906 82.992188 L 230.753906 83.980469 L 235.574219 83.980469 L 221.324219 93.066406 L 217.460938 88.679688 L 195.886719 104.542969 L 190.792969 99.03125 L 176.503906 108.507812 L 177.054688 109.332031 L 190.640625 100.324219 L 195.765625 105.871094 L 217.316406 90.015625 L 221.144531 94.359375 L 236.125 84.808594 L 234.230469 88.929688 L 235.128906 89.34375 L 238.046875 82.984375 L 230.753906 82.984375 Z M 230.753906 82.992188 " fill-opacity="1" fill-rule="nonzero"/><path fill="#00850d" d="M 244.902344 125.445312 C 244.902344 125.808594 244.605469 126.105469 244.242188 126.105469 L 238.523438 126.105469 L 238.523438 130.046875 C 238.523438 130.410156 238.226562 130.707031 237.863281 130.707031 C 237.503906 130.707031 237.203125 130.410156 237.203125 130.046875 L 237.203125 126.105469 L 228.324219 126.105469 L 228.324219 130.046875 C 228.324219 130.410156 228.027344 130.707031 227.664062 130.707031 C 227.304688 130.707031 227.007812 130.410156 227.007812 130.046875 L 227.007812 126.105469 L 218.125 126.105469 L 218.125 130.046875 C 218.125 130.410156 217.828125 130.707031 217.46875 130.707031 C 217.105469 130.707031 216.808594 130.410156 216.808594 130.046875 L 216.808594 126.105469 L 207.925781 126.105469 L 207.925781 130.046875 C 207.925781 130.410156 207.628906 130.707031 207.269531 130.707031 C 206.90625 130.707031 206.609375 130.410156 206.609375 130.046875 L 206.609375 126.105469 L 197.730469 126.105469 L 197.730469 130.046875 C 197.730469 130.410156 197.433594 130.707031 197.070312 130.707031 C 196.707031 130.707031 196.410156 130.410156 196.410156 130.046875 L 196.410156 126.105469 L 187.53125 126.105469 L 187.53125 130.046875 C 187.53125 130.410156 187.234375 130.707031 186.871094 130.707031 C 186.507812 130.707031 186.210938 130.410156 186.210938 130.046875 L 186.210938 126.105469 L 177.332031 126.105469 L 177.332031 130.046875 C 177.332031 130.410156 177.035156 130.707031 176.671875 130.707031 C 176.3125 130.707031 176.011719 130.410156 176.011719 130.046875 L 176.011719 126.105469 L 165.808594 126.105469 L 165.808594 115.898438 L 161.867188 115.898438 C 161.503906 115.898438 161.207031 115.601562 161.207031 115.242188 C 161.207031 114.878906 161.503906 114.582031 161.867188 114.582031 L 165.808594 114.582031 L 165.808594 105.695312 L 161.867188 105.695312 C 161.503906 105.695312 161.207031 105.398438 161.207031 105.035156 C 161.207031 104.675781 161.503906 104.375 161.867188 104.375 L 165.808594 104.375 L 165.808594 95.492188 L 161.867188 95.492188 C 161.503906 95.492188 161.207031 95.191406 161.207031 94.832031 C 161.207031 94.46875 161.503906 94.171875 161.867188 94.171875 L 165.808594 94.171875 L 165.808594 85.285156 L 161.867188 85.285156 C 161.503906 85.285156 161.207031 84.988281 161.207031 84.625 C 161.207031 84.265625 161.503906 83.96875 161.867188 83.96875 L 165.808594 83.96875 L 165.808594 75.082031 L 161.867188 75.082031 C 161.503906 75.082031 161.207031 74.78125 161.207031 74.421875 C 161.207031 74.058594 161.503906 73.761719 161.867188 73.761719 L 165.808594 73.761719 L 165.808594 67.390625 C 165.808594 67.027344 166.105469 66.730469 166.46875 66.730469 C 166.828125 66.730469 167.128906 67.027344 167.128906 67.390625 L 167.128906 124.785156 L 244.273438 124.785156 C 244.605469 124.785156 244.902344 125.078125 244.902344 125.445312 Z M 230.929688 69.464844 L 230.582031 70.386719 L 235.316406 72.183594 L 218.242188 74.699219 L 202.136719 95.527344 L 197.140625 92.277344 L 176.386719 119.507812 L 177.175781 120.109375 L 197.375 93.617188 L 202.363281 96.867188 L 218.785156 75.628906 L 235.542969 73.160156 L 231.472656 76.425781 L 232.09375 77.199219 L 238.269531 72.25 Z M 230.929688 69.464844 " fill-opacity="1" fill-rule="nonzero"/><g clip-path="url(#43f3664a9e)"><path fill="#010101" d="M 186.523438 308.703125 C 187.898438 309.472656 189.320312 310.046875 190.601562 310.46875 C 194.761719 311.839844 197.671875 315.636719 197.921875 320.011719 C 197.929688 320.125 197.929688 320.183594 197.929688 320.183594 L 162.304688 320.414062 C 162.304688 315.972656 163.132812 308.902344 163.726562 304.410156 C 163.726562 304.410156 167.140625 302.316406 171.335938 302.671875 C 175.527344 303.027344 180.117188 306.808594 180.117188 306.808594 Z M 208.960938 142.152344 L 203.589844 135.832031 C 202.019531 133.976562 201.285156 131.558594 201.554688 129.144531 C 201.820312 126.796875 201.109375 124.464844 199.648438 122.609375 C 193.585938 114.910156 196.566406 109.800781 193.09375 104.332031 C 191.175781 100.816406 187.445312 98.429688 183.160156 98.429688 C 178.648438 98.429688 174.753906 101.074219 172.9375 104.894531 C 171.25 108.617188 171.042969 112.402344 171.222656 115.144531 C 171.40625 117.863281 170.210938 120.496094 168.078125 122.195312 L 167.96875 122.285156 C 165.730469 124.0625 164.5625 126.855469 164.84375 129.699219 L 164.859375 129.800781 C 165.15625 132.699219 163.910156 135.523438 161.613281 137.3125 C 159.933594 138.625 158.226562 140.472656 157.753906 142.785156 L 209.59375 142.785156 Z M 208.960938 142.152344 " fill-opacity="1" fill-rule="nonzero"/></g><path fill="#f8b6ad" d="M 163.726562 304.410156 C 164.058594 301.910156 164.316406 300.203125 164.316406 300.203125 L 179.957031 300.203125 C 180.621094 304.328125 183.472656 306.996094 186.523438 308.695312 L 185.585938 309.40625 C 182.140625 312.011719 177.105469 311.015625 175.070312 307.210938 C 175.039062 307.152344 175.003906 307.09375 174.980469 307.035156 C 174.144531 305.441406 172.511719 304.410156 170.707031 304.410156 Z M 163.726562 304.410156 " fill-opacity="1" fill-rule="nonzero"/><g clip-path="url(#72a8b3e6a5)"><g mask="url(#4959dcc6b8)"><g transform="matrix(1, 0, 0, 1, 159, 183)"><g clip-path="url(#543c385077)"><g clip-path="url(#31c50d7634)"><path fill="#010101" d="M 32.070312 75.914062 C 32.070312 75.699219 32.070312 75.5 32.089844 75.34375 Z M 31.59375 127.46875 C 30.3125 127.046875 28.890625 126.472656 27.515625 125.703125 C 24.464844 124.003906 21.613281 121.335938 20.949219 117.210938 L 27.542969 117.210938 L 32.085938 75.34375 L 39.859375 3.703125 C 30.3125 1.484375 13.175781 -1.0625 9.304688 5.589844 C 3.886719 14.882812 5.75 54.984375 5.75 54.984375 C 0.726562 64.652344 0.242188 117.203125 0.242188 117.203125 L 5.316406 117.203125 C 5.316406 117.203125 5.058594 118.910156 4.726562 121.410156 C 4.132812 125.902344 3.304688 132.972656 3.304688 137.414062 L 38.929688 137.183594 C 38.929688 137.183594 38.929688 137.125 38.921875 137.011719 C 38.664062 132.636719 35.761719 128.839844 31.59375 127.46875 Z M 31.59375 127.46875 " fill-opacity="1" fill-rule="nonzero"/></g></g></g></g></g><g clip-path="url(#d2a6f2c6fe)"><path fill="#00850d" d="M 228.699219 158.839844 L 229.085938 162.207031 L 226.257812 165.007812 C 220.394531 170.796875 210.597656 169.90625 206.125 162.988281 C 205.996094 162.789062 205.886719 162.609375 205.800781 162.441406 C 205.554688 163.566406 205.34375 165.019531 205.34375 166.726562 C 205.34375 170.878906 205.34375 188.597656 205.34375 188.597656 L 171.773438 188.597656 L 171.773438 179.527344 C 164.039062 177.957031 158.730469 170.765625 159.675781 162.925781 C 160.65625 154.734375 162.6875 145.953125 164.300781 139.753906 C 165.609375 134.734375 169.746094 130.953125 174.863281 130.074219 L 177.214844 129.671875 C 178.722656 129.386719 181.429688 133.222656 182.171875 131.980469 L 190.847656 129.730469 L 194.007812 129.085938 L 197.019531 129.917969 C 201.917969 131.269531 206.246094 134.183594 209.34375 138.21875 L 219.398438 151.316406 C 219.398438 151.316406 220.019531 151.03125 220.988281 150.582031 Z M 109.238281 295.957031 L 99.925781 302.855469 C 99.925781 302.855469 94.605469 313.597656 94.664062 318.628906 C 94.664062 320.464844 113.671875 320.464844 113.671875 320.464844 L 120.507812 320.464844 C 120.507812 320.464844 120.671875 315.636719 116.488281 308.257812 Z M 131.734375 299.398438 L 124.949219 305.050781 C 124.949219 305.050781 122.046875 314.402344 122.046875 320.472656 L 158.117188 320.472656 C 156.953125 316.308594 154.109375 312.832031 150.285156 310.835938 C 147.667969 309.472656 145.003906 307.855469 144.203125 306.609375 Z M 131.734375 299.398438 " fill-opacity="1" fill-rule="nonzero"/></g><path fill="#f8b6ad" d="M 254.488281 292.664062 L 255.003906 269.894531 L 268.480469 268.703125 L 262.589844 293.515625 C 259.8125 291.175781 254.488281 292.664062 254.488281 292.664062 Z M 124.949219 305.046875 C 126.371094 303.527344 131.507812 303.195312 133.191406 304.722656 C 134.875 306.246094 141.558594 310.816406 141.558594 310.816406 C 143.414062 309.136719 144.203125 306.601562 144.203125 306.601562 C 144.203125 306.601562 142.929688 304.59375 143.253906 303.792969 C 143.574219 302.988281 148.597656 275.859375 148.597656 275.859375 L 125.796875 275.890625 C 124.257812 283.710938 126.605469 300.347656 124.949219 305.046875 Z M 99.925781 302.855469 C 101.949219 301.121094 105.734375 300.929688 109.226562 302.5625 C 112.714844 304.199219 116.488281 308.257812 116.488281 308.257812 C 116.488281 308.257812 115.617188 304.882812 116.089844 303.925781 C 116.554688 302.972656 124.210938 275.820312 124.210938 275.820312 L 101.074219 275.890625 C 99.640625 284.660156 103.617188 291.414062 99.925781 302.855469 Z M 99.925781 302.855469 " fill-opacity="1" fill-rule="nonzero"/><g clip-path="url(#5a3fff8633)"><path fill="#010101" d="M 202.800781 191.382812 L 181.214844 187.625 L 175.800781 213.289062 L 143.96875 218.144531 L 134.527344 216.585938 L 124.019531 213.285156 C 122.933594 213.285156 122.054688 212.40625 122.054688 211.320312 C 122.054688 210.234375 122.933594 209.355469 124.019531 209.355469 L 133.078125 209.355469 L 138.710938 182.707031 C 139 181.335938 140.207031 180.355469 141.609375 180.355469 L 174.011719 180.355469 L 174.09375 179.890625 C 175.464844 180.136719 176.464844 180.277344 177.117188 180.355469 L 178.09375 180.355469 L 184.894531 173.945312 L 204.664062 181.035156 Z M 250.226562 233.390625 C 243.28125 233.390625 237.644531 239.027344 237.644531 245.972656 L 238.1875 246.484375 L 250.785156 266.585938 L 274.832031 267.722656 L 289.582031 233.398438 L 250.226562 233.398438 Z M 232.246094 310.46875 C 230.851562 310.007812 229.242188 309.472656 227.625 308.703125 L 220.648438 306.816406 C 220.648438 306.816406 214.90625 303.035156 210.597656 302.679688 C 206.292969 302.324219 203.519531 304.417969 203.519531 304.417969 C 204.300781 308.910156 205.640625 315.980469 206.996094 320.421875 L 240.589844 320.1875 C 240.589844 320.1875 240.558594 320.128906 240.535156 320.019531 C 239.46875 315.910156 237.84375 312.316406 232.246094 310.46875 Z M 232.246094 310.46875 " fill-opacity="1" fill-rule="nonzero"/></g><g clip-path="url(#295a6409da)"><path fill="#fde2dd" d="M 348.910156 220.042969 L 348.910156 221.570312 C 348.910156 225.300781 345.886719 228.324219 342.15625 228.324219 L 332.65625 228.324219 L 332.65625 320.492188 L 323.917969 320.492188 L 323.917969 228.316406 L 51.007812 228.316406 L 51.007812 320.484375 L 42.273438 320.484375 L 42.273438 228.316406 L 32.773438 228.316406 C 29.046875 228.316406 26.019531 225.300781 26.019531 221.5625 L 26.019531 220.039062 C 26.019531 216.308594 29.046875 213.285156 32.773438 213.285156 L 175.800781 213.285156 L 179.058594 211.855469 L 186.050781 213.285156 L 228.222656 213.285156 L 235.847656 211.855469 L 236.875 212.445312 L 230.851562 183.929688 C 230.464844 182.085938 231.867188 180.347656 233.753906 180.347656 L 271.238281 180.347656 C 272.640625 180.347656 273.851562 181.332031 274.140625 182.703125 L 279.769531 209.347656 L 288.832031 209.347656 C 289.917969 209.347656 290.796875 210.226562 290.796875 211.3125 C 290.796875 212.398438 289.917969 213.277344 288.832031 213.277344 L 342.15625 213.277344 C 345.886719 213.289062 348.910156 216.316406 348.910156 220.042969 Z M 135.535156 233.65625 L 124.574219 233.65625 C 124.574219 233.65625 103.164062 229.578125 102.789062 229.332031 C 102.414062 229.078125 98.820312 267.722656 98.820312 267.722656 L 98.671875 300.488281 L 119.410156 300.488281 L 124.949219 275.820312 C 124.808594 278.59375 124.515625 295.34375 124.414062 300.347656 C 124.414062 300.347656 144.765625 300.671875 144.808594 300.347656 C 144.84375 300.148438 149.722656 274.726562 153.445312 255.339844 C 155.609375 244.085938 146.988281 233.65625 135.535156 233.65625 Z M 177.90625 186.476562 C 178.238281 184.910156 177.046875 183.445312 175.449219 183.445312 L 143.691406 183.445312 C 142.503906 183.445312 141.480469 184.277344 141.234375 185.433594 L 136.464844 208.011719 L 172.660156 211.34375 Z M 177.90625 186.476562 " fill-opacity="1" fill-rule="nonzero"/></g><g clip-path="url(#33756c4b14)"><g mask="url(#edfe880a94)"><g transform="matrix(1, 0, 0, 1, 94, 267)"><g clip-path="url(#45c8999dbb)"><g clip-path="url(#82892622fb)"><path fill="#010101" d="M 168.589844 26.515625 C 170.601562 31.105469 170.621094 40.222656 170.621094 40.222656 L 148.382812 40.222656 C 148.304688 40.625 160.480469 25.664062 160.480469 25.664062 L 160.996094 2.894531 L 174.472656 1.703125 Z M 23.160156 33.488281 L 25.410156 33.488281 L 30.949219 8.820312 C 31.214844 6.648438 30.949219 2.679688 30.949219 2.679688 L 4.8125 0.722656 L 4.664062 33.488281 L 6.597656 33.488281 C 6.410156 34.257812 6.191406 35.046875 5.925781 35.859375 C 5.925781 35.859375 0.605469 46.601562 0.664062 51.636719 C 0.664062 53.472656 19.671875 53.472656 19.671875 53.472656 L 26.507812 53.472656 C 26.507812 53.472656 26.671875 48.644531 22.488281 41.265625 C 22.488281 41.265625 21.617188 37.890625 22.089844 36.933594 C 22.1875 36.734375 22.585938 35.429688 23.160156 33.488281 Z M 23.160156 33.488281 " fill-opacity="1" fill-rule="nonzero"/></g></g></g></g></g><path fill="#5479f7" d="M 329.980469 225.511719 L 286.984375 232.1875 C 286.984375 232.1875 280.511719 206.214844 280.449219 205.980469 C 280.441406 205.960938 280.402344 205.992188 280.332031 206.078125 C 276.214844 210.800781 270.09375 213.296875 263.824219 213.296875 L 259.804688 213.296875 C 259.792969 211.144531 257.203125 208.773438 257.1875 205.59375 C 257.175781 202.742188 259.746094 199.085938 259.753906 197.03125 C 260.898438 196.578125 262.171875 196.144531 263.582031 195.730469 L 275.414062 171.960938 C 277.65625 167.457031 281.839844 164.230469 286.769531 163.214844 L 298.488281 160.796875 C 298.488281 160.796875 315.328125 162.296875 315.535156 162.164062 C 315.625 162.105469 318.417969 163.152344 321.480469 164.328125 C 326.425781 166.234375 329.574219 171.105469 329.277344 176.398438 C 328.589844 188.542969 326.640625 201.289062 326.640625 201.289062 Z M 257.855469 83.519531 L 257.855469 83.441406 C 257.855469 82.511719 257.105469 81.761719 256.171875 81.761719 L 243.882812 81.761719 C 242.949219 81.761719 242.199219 82.511719 242.199219 83.441406 L 242.199219 83.519531 C 242.199219 84.453125 242.949219 85.203125 243.882812 85.203125 L 256.171875 85.203125 C 257.097656 85.203125 257.855469 84.453125 257.855469 83.519531 Z M 191.203125 127.230469 L 194 129.085938 L 196.003906 132.929688 L 192.765625 132.929688 L 195.640625 135.691406 L 192.5 142.792969 L 180.433594 138.054688 L 180.789062 134.308594 L 177.363281 136.238281 L 177.363281 129.632812 C 178.800781 129.316406 179.988281 128.425781 180.707031 127.230469 Z M 79.484375 212.507812 L 81.433594 200.644531 L 78.027344 177.007812 C 76.839844 168.773438 83.113281 161.347656 91.433594 161.132812 L 96.390625 161.011719 L 99.253906 158.511719 L 109.675781 155.609375 L 114.007812 158.511719 L 115.550781 161.308594 L 118.597656 161.308594 C 124.289062 161.308594 129.550781 164.351562 132.394531 169.285156 L 147.253906 195.089844 L 149.425781 195.667969 C 149.425781 195.667969 154.097656 205.75 153.941406 205.8125 L 149.367188 213.277344 L 135.605469 213.277344 L 128.523438 202.496094 L 124.582031 233.644531 C 124.582031 233.644531 96.164062 233.519531 96.28125 233.644531 C 96.394531 233.777344 79.484375 212.507812 79.484375 212.507812 Z M 79.484375 212.507812 " fill-opacity="1" fill-rule="nonzero"/><g clip-path="url(#f147e76082)"><path fill="#fde2dd" d="M 235.253906 307.460938 C 235.253906 307.460938 251.851562 302.125 253.851562 306.707031 C 255.863281 311.296875 255.882812 320.414062 255.882812 320.414062 L 222.6875 320.414062 C 222.6875 320.414062 222.703125 320.070312 222.816406 319.445312 C 223.433594 316.285156 225.546875 313.617188 228.433594 312.195312 C 230.863281 310.996094 232.847656 309.59375 234.386719 308.285156 C 234.695312 308.023438 234.988281 307.753906 235.253906 307.460938 M 325.785156 174.527344 C 324.953125 171.230469 323.574219 168.339844 322.179688 166.015625 C 318.96875 160.664062 316.925781 154.683594 316.394531 148.46875 L 315.761719 141.035156 C 315.257812 135.128906 310.578125 130.433594 304.671875 129.917969 C 298.789062 129.402344 293.464844 133.148438 291.875 138.703125 C 290.648438 145.230469 293.414062 150.507812 293.414062 150.507812 L 297.421875 160.921875 C 300.808594 164.851562 302.589844 169.9375 302.292969 175.113281 C 302.292969 175.164062 302.285156 175.21875 302.285156 175.269531 C 302.136719 177.699219 304.050781 179.753906 306.488281 179.753906 L 321.707031 179.753906 C 324.433594 179.753906 326.457031 177.175781 325.785156 174.527344 Z M 325.785156 174.527344 " fill-opacity="1" fill-rule="nonzero"/></g><path fill="#f8b6ad" d="M 258.6875 265.847656 L 253.851562 306.707031 C 249.742188 304.507812 244.683594 305.214844 241.328125 308.457031 L 238.207031 311.476562 L 235.253906 307.46875 C 237.261719 305.308594 238.257812 302.390625 237.933594 299.421875 C 236.992188 290.859375 235 271.992188 233.851562 261.078125 C 233.289062 255.753906 234.632812 250.40625 237.644531 245.980469 Z M 258.6875 265.847656 " fill-opacity="1" fill-rule="nonzero"/><path fill="#00850d" d="M 256.171875 73.367188 L 243.882812 73.367188 C 242.949219 73.367188 242.199219 72.617188 242.199219 71.6875 L 242.199219 71.609375 C 242.199219 70.679688 242.949219 69.929688 243.882812 69.929688 L 256.171875 69.929688 C 257.105469 69.929688 257.855469 70.679688 257.855469 71.609375 L 257.855469 71.6875 C 257.855469 72.617188 257.097656 73.367188 256.171875 73.367188 Z M 246.136719 267.585938 C 246.136719 269.414062 247.617188 270.894531 249.445312 270.894531 L 291.222656 270.894531 L 295.507812 273.777344 L 302.765625 270.894531 L 314.339844 270.894531 C 322.445312 270.972656 329.746094 266.023438 332.683594 258.472656 L 346.84375 222.105469 C 348.96875 216.644531 344.976562 210.746094 339.113281 210.691406 L 305.769531 210.390625 C 298.71875 210.324219 292.359375 214.621094 289.789062 221.1875 L 277.164062 253.414062 C 274.597656 259.960938 268.285156 264.269531 261.246094 264.269531 L 249.445312 264.269531 C 247.625 264.277344 246.136719 265.757812 246.136719 267.585938 Z M 146.207031 267.585938 C 146.207031 265.757812 144.726562 264.277344 142.898438 264.277344 L 131.097656 264.277344 C 124.0625 264.277344 117.742188 259.964844 115.175781 253.417969 L 102.554688 221.195312 C 99.984375 214.628906 93.625 210.332031 86.574219 210.394531 L 53.230469 210.699219 C 47.367188 210.75 43.375 216.652344 45.5 222.113281 L 59.660156 258.480469 C 62.601562 266.027344 69.90625 270.972656 78.003906 270.902344 L 89.578125 270.902344 L 96.835938 273.785156 L 101.121094 270.902344 L 142.898438 270.902344 C 144.726562 270.902344 146.207031 269.414062 146.207031 267.585938 Z M 146.207031 267.585938 " fill-opacity="1" fill-rule="nonzero"/><g clip-path="url(#4d5b675d46)"><path fill="#010101" d="M 235.9375 108.585938 L 212.625 114.246094 L 204.59375 105.273438 L 193.0625 113.378906 L 176.414062 95.308594 L 177.144531 94.636719 L 193.210938 112.074219 L 204.746094 103.964844 L 212.96875 113.148438 L 235.128906 107.761719 L 231.105469 106.828125 L 231.328125 105.863281 L 238.167969 107.453125 L 233.980469 112.507812 L 233.21875 111.875 Z M 256.171875 106.03125 L 243.882812 106.03125 C 242.949219 106.03125 242.199219 106.78125 242.199219 107.710938 L 242.199219 107.789062 C 242.199219 108.71875 242.949219 109.46875 243.882812 109.46875 L 256.171875 109.46875 C 257.105469 109.46875 257.855469 108.71875 257.855469 107.789062 L 257.855469 107.710938 C 257.855469 106.789062 257.097656 106.03125 256.171875 106.03125 Z M 208.113281 158.425781 C 208.113281 158.425781 185.460938 154.886719 179.941406 154.082031 L 178.144531 164.328125 C 179.554688 164.8125 181.085938 165.285156 182.0625 165.773438 C 183.355469 166.421875 187.5 174.957031 194.15625 175.328125 C 200.8125 175.695312 206.679688 169.683594 206.679688 169.683594 L 206.894531 167.992188 L 208.445312 167.84375 L 209.15625 162.628906 L 207.703125 161.664062 Z M 180.847656 208.09375 C 177.976562 208.09375 175.652344 210.421875 175.652344 213.289062 L 180.058594 213.289062 L 180.058594 221.167969 C 180.058594 226.222656 175.949219 230.339844 170.886719 230.339844 C 165.835938 230.339844 161.71875 226.230469 161.71875 221.167969 L 161.71875 212.378906 L 160.390625 212.378906 L 160.390625 221.175781 C 160.390625 226.960938 165.097656 231.664062 170.882812 231.664062 C 176.667969 231.664062 181.371094 226.960938 181.371094 221.175781 L 181.371094 213.296875 L 186.039062 213.296875 C 186.042969 210.421875 183.71875 208.09375 180.847656 208.09375 Z M 306.371094 316.5625 C 304.03125 315.347656 301.519531 314.625 298.964844 314.371094 L 298.964844 274.476562 C 300.675781 273.9375 302.09375 272.648438 302.765625 270.914062 L 291.164062 270.914062 C 291.960938 272.957031 293.789062 274.386719 295.921875 274.6875 L 295.921875 314.292969 C 293.042969 314.441406 290.1875 315.191406 287.558594 316.5625 L 279.679688 320.472656 L 314.257812 320.472656 Z M 252.28125 221.167969 C 252.28125 226.222656 248.171875 230.339844 243.113281 230.339844 C 238.050781 230.339844 233.941406 226.230469 233.941406 221.167969 L 233.941406 213.289062 L 238.347656 213.289062 C 238.347656 210.492188 236.082031 208.222656 233.28125 208.222656 C 230.484375 208.222656 228.214844 210.492188 228.214844 213.289062 L 232.621094 213.289062 L 232.621094 221.167969 C 232.621094 226.953125 237.328125 231.660156 243.113281 231.660156 C 248.894531 231.660156 253.601562 226.953125 253.601562 221.167969 L 253.601562 212.378906 L 252.277344 212.378906 L 252.277344 221.167969 Z M 105.320312 128.996094 C 105.050781 128.996094 104.777344 129 104.519531 129.015625 C 96.265625 129.441406 90.820312 137.867188 93.441406 145.699219 C 95.75 152.597656 99.742188 154.761719 99.742188 154.59375 L 103.542969 157.59375 C 103.542969 157.59375 112.082031 157.800781 114.335938 154.414062 C 116.59375 151.027344 118.007812 138.695312 118.007812 138.695312 C 118.3125 136.988281 117.609375 132.957031 117.609375 132.957031 C 117.609375 132.957031 111.679688 128.996094 105.320312 128.996094 Z M 96.421875 314.292969 L 96.421875 274.6875 C 98.546875 274.386719 100.382812 272.964844 101.179688 270.914062 L 89.578125 270.914062 C 90.25 272.648438 91.664062 273.9375 93.378906 274.476562 L 93.378906 314.371094 C 90.824219 314.625 88.3125 315.347656 85.972656 316.5625 L 78.09375 320.472656 L 112.671875 320.472656 L 104.792969 316.5625 C 102.15625 315.191406 99.304688 314.441406 96.421875 314.292969 Z M 96.421875 314.292969 " fill-opacity="1" fill-rule="nonzero"/></g><path fill="#f8b6ad" d="M 203.527344 304.410156 C 203.09375 301.910156 202.828125 300.203125 202.828125 300.203125 L 218.46875 300.203125 C 220.402344 304.328125 224.066406 306.996094 227.632812 308.695312 L 226.910156 309.40625 C 224.257812 312.011719 218.921875 311.015625 215.714844 307.210938 C 215.664062 307.152344 215.617188 307.09375 215.566406 307.035156 C 214.242188 305.441406 212.296875 304.410156 210.492188 304.410156 Z M 242.027344 152.292969 C 243.609375 151.648438 244.894531 150.386719 245.472656 148.777344 C 245.535156 148.589844 245.59375 148.414062 245.621094 148.253906 C 245.839844 147.160156 244.910156 146.703125 244.910156 146.703125 C 245.949219 144.660156 244.351562 143.550781 244.351562 143.550781 C 245 141.6875 243.5625 140.929688 243.5625 140.929688 L 247.539062 136.175781 C 247.960938 135.671875 247.984375 134.953125 247.605469 134.421875 C 247.144531 133.785156 246.253906 133.632812 245.613281 134.085938 L 239.660156 138.300781 L 238.167969 138.0625 C 237.203125 137.90625 236.242188 138.300781 235.671875 139.089844 C 234.386719 140.847656 232.152344 143.867188 231.441406 144.484375 C 230.664062 145.164062 223.996094 148.824219 220.996094 150.585938 L 229.09375 162.207031 L 237.082031 154.316406 Z M 181.457031 117.980469 L 181.457031 124.546875 C 181.457031 125.523438 181.183594 126.441406 180.710938 127.230469 L 191.054688 139 L 191.054688 123.0625 L 191.988281 122.953125 C 194.375 122.679688 196.054688 120.484375 195.699219 118.109375 L 194.140625 107.667969 C 193.863281 105.992188 192.371094 104.804688 190.679688 104.90625 L 185.882812 105.210938 L 185.933594 108.714844 C 185.964844 110.8125 184.273438 112.53125 182.171875 112.53125 C 181.738281 112.140625 181.121094 111.945312 180.460938 112.09375 C 179.492188 112.308594 178.914062 113.257812 179 114.246094 C 179.1875 116.457031 181.457031 117.980469 181.457031 117.980469 Z M 206.867188 169.097656 C 206.382812 168.933594 205.878906 168.773438 205.421875 168.632812 C 204.121094 168.222656 202.746094 168.121094 201.398438 168.320312 C 199.171875 168.652344 195.875 169.160156 195.746094 169.328125 C 195.601562 169.515625 187.988281 167.175781 182.0625 165.78125 L 177.992188 180.453125 C 183.253906 180.652344 188.304688 180.160156 194.730469 180.363281 C 194.730469 180.363281 196.84375 182.101562 200.949219 183.042969 C 201.582031 183.1875 203.828125 182.757812 205.335938 182.4375 C 206.136719 182.269531 206.671875 181.519531 206.582031 180.703125 C 207.25 180.304688 208.507812 179.695312 207.367188 177.75 C 207.558594 177.808594 209.511719 176.585938 208.121094 174.824219 C 208.121094 174.824219 209.898438 173.984375 208.515625 172.113281 C 208.515625 172.113281 209.609375 171.941406 209.609375 170.320312 C 209.609375 170.074219 208.289062 169.570312 206.867188 169.097656 Z M 300.296875 144.796875 C 299.636719 144.394531 298.824219 144.429688 298.207031 144.839844 L 296.675781 144.757812 C 293.582031 144.589844 291.324219 141.746094 291.875 138.695312 C 291.746094 139.140625 291.640625 139.601562 291.566406 140.070312 C 290.976562 143.640625 290.34375 147.433594 289.851562 150.417969 C 289.328125 153.566406 291.304688 156.589844 294.402344 157.378906 L 295.738281 157.722656 L 297.421875 160.914062 C 297.421875 160.914062 296.257812 157.375 296.820312 151.40625 C 296.820312 151.40625 299.546875 150.355469 301.039062 147.328125 C 301.472656 146.417969 301.15625 145.320312 300.296875 144.796875 Z M 259.761719 197.023438 C 251.734375 200.171875 249.660156 204.003906 245.96875 205.585938 L 243.304688 204.628906 C 239.898438 203.402344 236.082031 204.046875 233.308594 206.386719 C 231.710938 207.738281 230.554688 208.921875 230.554688 208.921875 L 230.773438 208.882812 C 233.171875 208.464844 235.652344 209.148438 237.410156 210.835938 C 239.007812 212.367188 242.613281 214.09375 245.003906 212.378906 C 245.003906 212.378906 248.671875 213.289062 256.375 213.289062 L 259.8125 213.289062 C 259.78125 209.210938 259.734375 201.378906 259.761719 197.023438 Z M 180.3125 205.910156 C 177.351562 203.414062 173.273438 202.722656 169.628906 204.035156 L 166.785156 205.058594 C 161.808594 202.226562 157.996094 199.039062 149.410156 195.679688 C 149.4375 200.339844 149.386719 208.933594 149.355469 213.289062 L 155.660156 213.289062 C 163.894531 213.289062 167.8125 212.316406 167.8125 212.316406 C 170.363281 214.144531 174.214844 212.296875 175.921875 210.660156 C 177.796875 208.863281 180.453125 208.125 183.011719 208.578125 L 183.253906 208.617188 C 183.253906 208.617188 182.015625 207.351562 180.3125 205.910156 Z M 118.304688 140.070312 C 118.226562 139.601562 118.125 139.140625 117.996094 138.695312 C 116 144.519531 111.660156 144.839844 111.660156 144.839844 C 111.046875 144.433594 110.234375 144.394531 109.574219 144.796875 C 108.714844 145.320312 108.398438 146.417969 108.835938 147.324219 C 110.324219 150.347656 113.058594 151.402344 113.058594 151.402344 L 110.316406 154.585938 L 99.738281 154.585938 L 99.253906 158.503906 L 114.007812 158.503906 L 114.128906 157.710938 L 115.46875 157.367188 C 118.5625 156.578125 120.542969 153.558594 120.019531 150.40625 C 119.527344 147.433594 118.894531 143.640625 118.304688 140.070312 Z M 118.304688 140.070312 " fill-opacity="1" fill-rule="nonzero"/></svg>