<svg xmlns="http://www.w3.org/2000/svg" xmlns:xlink="http://www.w3.org/1999/xlink" width="500" zoomAndPan="magnify" viewBox="0 0 375 374.999991" height="500" preserveAspectRatio="xMidYMid meet" version="1.0"><defs><clipPath id="852b880044"><path d="M 206 26 L 351.628906 26 L 351.628906 145 L 206 145 Z M 206 26 " clip-rule="nonzero"/></clipPath><clipPath id="2fd5724aed"><path d="M 198 22.71875 L 348 22.71875 L 348 141 L 198 141 Z M 198 22.71875 " clip-rule="nonzero"/></clipPath><clipPath id="164afd357c"><path d="M 23.144531 327 L 62 327 L 62 351.96875 L 23.144531 351.96875 Z M 23.144531 327 " clip-rule="nonzero"/></clipPath><clipPath id="88a5634389"><path d="M 125 339 L 175 339 L 175 351.96875 L 125 351.96875 Z M 125 339 " clip-rule="nonzero"/></clipPath><clipPath id="de488115d3"><path d="M 125 328 L 175 328 L 175 351.96875 L 125 351.96875 Z M 125 328 " clip-rule="nonzero"/></clipPath><clipPath id="7a1be5080c"><path d="M 23.144531 309 L 66 309 L 66 351.96875 L 23.144531 351.96875 Z M 23.144531 309 " clip-rule="nonzero"/></clipPath><clipPath id="0e03ea654e"><path d="M 230 305 L 302 305 L 302 351.96875 L 230 351.96875 Z M 230 305 " clip-rule="nonzero"/></clipPath></defs><g clip-path="url(#852b880044)"><path fill="#5479f7" d="M 346.46875 123.339844 L 346.46875 35.011719 C 346.46875 31.925781 345.605469 29.039062 344.109375 26.585938 C 348.75 29.425781 351.847656 34.554688 351.847656 40.40625 L 351.847656 128.734375 C 351.847656 137.671875 344.621094 144.917969 335.703125 144.917969 L 220.234375 144.917969 C 214.394531 144.917969 209.28125 141.8125 206.445312 137.160156 C 208.894531 138.660156 211.773438 139.523438 214.851562 139.523438 L 330.324219 139.523438 C 339.238281 139.523438 346.46875 132.277344 346.46875 123.339844 Z M 346.46875 123.339844 " fill-opacity="1" fill-rule="nonzero"/></g><g clip-path="url(#2fd5724aed)"><path fill="#ffffff" d="M 198.710938 34.320312 C 198.710938 27.910156 203.90625 22.71875 210.3125 22.71875 L 335.605469 22.71875 C 342.015625 22.71875 347.207031 27.910156 347.207031 34.320312 L 347.207031 128.675781 C 347.207031 135.082031 342.015625 140.277344 335.605469 140.277344 L 210.3125 140.277344 C 203.90625 140.277344 198.710938 135.082031 198.710938 128.675781 Z M 198.710938 34.320312 " fill-opacity="1" fill-rule="nonzero"/><path fill="#5479f7" d="M 335.605469 23.492188 L 210.3125 23.492188 C 204.332031 23.492188 199.484375 28.339844 199.484375 34.320312 L 199.484375 128.675781 C 199.484375 134.65625 204.332031 139.503906 210.3125 139.503906 L 335.605469 139.503906 C 341.585938 139.503906 346.433594 134.65625 346.433594 128.675781 L 346.433594 34.320312 C 346.433594 28.339844 341.585938 23.492188 335.605469 23.492188 Z M 210.3125 22.71875 C 203.90625 22.71875 198.710938 27.910156 198.710938 34.320312 L 198.710938 128.675781 C 198.710938 135.082031 203.90625 140.277344 210.3125 140.277344 L 335.605469 140.277344 C 342.015625 140.277344 347.207031 135.082031 347.207031 128.675781 L 347.207031 34.320312 C 347.207031 27.910156 342.015625 22.71875 335.605469 22.71875 Z M 210.3125 22.71875 " fill-opacity="1" fill-rule="evenodd"/></g><path fill="#23c7ac" d="M 269.867188 51.335938 C 269.867188 65.859375 258.09375 77.632812 243.570312 77.632812 C 229.046875 77.632812 217.273438 65.859375 217.273438 51.335938 C 217.273438 36.8125 229.046875 25.039062 243.570312 25.039062 C 258.09375 25.039062 269.867188 36.8125 269.867188 51.335938 Z M 269.867188 51.335938 " fill-opacity="1" fill-rule="nonzero"/><path fill="#5479f7" d="M 243.570312 76.859375 C 257.664062 76.859375 269.09375 65.429688 269.09375 51.335938 C 269.09375 37.238281 257.664062 25.8125 243.570312 25.8125 C 229.472656 25.8125 218.046875 37.238281 218.046875 51.335938 C 218.046875 65.429688 229.472656 76.859375 243.570312 76.859375 Z M 243.570312 77.632812 C 258.09375 77.632812 269.867188 65.859375 269.867188 51.335938 C 269.867188 36.8125 258.09375 25.039062 243.570312 25.039062 C 229.046875 25.039062 217.273438 36.8125 217.273438 51.335938 C 217.273438 65.859375 229.046875 77.632812 243.570312 77.632812 Z M 243.570312 77.632812 " fill-opacity="1" fill-rule="evenodd"/><path fill="#ffffff" d="M 250.425781 55.777344 C 250.425781 59.035156 248.144531 61.152344 244.800781 61.570312 L 244.800781 64.019531 L 242.9375 64.019531 L 242.9375 61.597656 C 239.816406 61.375 237.507812 59.785156 236.53125 57.195312 L 239.84375 55.277344 C 240.429688 56.75 241.460938 57.613281 242.9375 57.808594 L 242.9375 52.992188 C 242.90625 52.992188 242.90625 52.992188 242.90625 52.992188 L 242.851562 52.964844 C 241.542969 52.492188 240.929688 52.214844 239.816406 51.515625 C 238.3125 50.570312 237.507812 49.234375 237.394531 47.007812 C 237.394531 45.363281 237.925781 44.054688 238.980469 43.082031 C 240.066406 42.105469 241.375 41.519531 242.9375 41.382812 L 242.9375 38.960938 L 244.800781 38.960938 L 244.800781 41.4375 C 247.335938 41.746094 249.117188 43.054688 250.148438 45.363281 L 246.917969 47.257812 C 246.472656 46.144531 245.777344 45.476562 244.800781 45.222656 L 244.800781 49.875 C 246.527344 50.570312 247.695312 51.097656 248.28125 51.515625 C 249.703125 52.546875 250.425781 53.96875 250.425781 55.777344 Z M 241.210938 47.035156 C 241.210938 47.84375 241.683594 48.398438 242.9375 49.039062 L 242.9375 45.140625 C 241.820312 45.363281 241.210938 46.058594 241.210938 47.035156 Z M 244.800781 53.746094 L 244.800781 57.753906 C 246 57.503906 246.582031 56.835938 246.582031 55.804688 C 246.582031 54.886719 246.027344 54.300781 244.800781 53.746094 Z M 244.800781 53.746094 " fill-opacity="1" fill-rule="nonzero"/><path fill="#5479f7" d="M 320.914062 100.832031 C 320.914062 115.355469 309.140625 127.128906 294.617188 127.128906 C 280.09375 127.128906 268.320312 115.355469 268.320312 100.832031 C 268.320312 86.308594 280.09375 74.539062 294.617188 74.539062 C 309.140625 74.539062 320.914062 86.308594 320.914062 100.832031 Z M 320.914062 100.832031 " fill-opacity="1" fill-rule="nonzero"/><path fill="#ffffff" d="M 301.472656 105.277344 C 301.472656 108.535156 299.1875 110.648438 295.847656 111.066406 L 295.847656 113.519531 L 293.980469 113.519531 L 293.980469 111.09375 C 290.863281 110.871094 288.550781 109.285156 287.578125 106.695312 L 290.890625 104.773438 C 291.476562 106.25 292.507812 107.113281 293.980469 107.308594 L 293.980469 102.492188 C 293.953125 102.492188 293.953125 102.492188 293.953125 102.492188 L 293.898438 102.464844 C 292.589844 101.992188 291.976562 101.710938 290.863281 101.015625 C 289.359375 100.070312 288.550781 98.734375 288.441406 96.503906 C 288.441406 94.863281 288.96875 93.554688 290.027344 92.578125 C 291.113281 91.605469 292.421875 91.019531 293.980469 90.882812 L 293.980469 88.457031 L 295.847656 88.457031 L 295.847656 90.9375 C 298.382812 91.242188 300.164062 92.550781 301.191406 94.863281 L 297.964844 96.757812 C 297.519531 95.640625 296.820312 94.972656 295.847656 94.722656 L 295.847656 99.375 C 297.574219 100.070312 298.742188 100.597656 299.328125 101.015625 C 300.746094 102.046875 301.472656 103.464844 301.472656 105.277344 Z M 292.253906 96.535156 C 292.253906 97.339844 292.730469 97.898438 293.980469 98.539062 L 293.980469 94.640625 C 292.867188 94.863281 292.253906 95.558594 292.253906 96.535156 Z M 295.847656 103.242188 L 295.847656 107.253906 C 297.042969 107.003906 297.628906 106.335938 297.628906 105.304688 C 297.628906 104.386719 297.074219 103.800781 295.847656 103.242188 Z M 295.847656 103.242188 " fill-opacity="1" fill-rule="nonzero"/><path fill="#23c7ac" d="M 306.992188 65.230469 C 299.257812 51.617188 282.371094 50.019531 274.507812 49.761719 C 296.472656 44.191406 309.183594 55.175781 313.179688 62.523438 L 317.820312 60.203125 L 314.339844 73.738281 L 301.964844 67.9375 Z M 306.992188 65.230469 " fill-opacity="1" fill-rule="nonzero"/><path fill="#5479f7" d="M 313.335938 62.011719 C 309.070312 54.53125 296.242188 43.851562 274.410156 49.386719 L 274.496094 50.148438 C 278.410156 50.277344 284.554688 50.738281 290.671875 52.851562 C 296.679688 54.929688 302.640625 58.59375 306.457031 65.078125 L 301.101562 67.960938 L 314.597656 74.285156 L 318.402344 59.476562 Z M 277.339844 49.515625 C 297.4375 45.535156 309.085938 55.808594 312.839844 62.707031 L 313.015625 63.035156 L 317.234375 60.925781 L 314.078125 73.1875 L 302.824219 67.910156 L 307.523438 65.382812 L 307.328125 65.039062 C 303.398438 58.125 297.152344 54.273438 290.921875 52.121094 C 286.027344 50.429688 281.128906 49.78125 277.339844 49.515625 Z M 277.339844 49.515625 " fill-opacity="1" fill-rule="evenodd"/><path fill="#23c7ac" d="M 239.5625 90.523438 C 243.640625 105.636719 259.589844 111.414062 267.136719 113.632812 C 244.480469 113.523438 234.921875 99.707031 232.894531 91.59375 L 227.820312 92.679688 L 234.578125 80.445312 L 245.109375 89.160156 Z M 239.5625 90.523438 " fill-opacity="1" fill-rule="nonzero"/><path fill="#5479f7" d="M 232.613281 92.050781 C 234.871094 100.359375 244.617188 113.910156 267.136719 114.019531 L 267.246094 113.261719 C 263.488281 112.15625 257.65625 110.171875 252.261719 106.589844 C 246.964844 103.078125 242.113281 98.039062 240.042969 90.804688 L 245.945312 89.351562 L 234.464844 79.851562 L 227.074219 93.234375 Z M 264.332031 113.160156 C 243.878906 111.980469 235.175781 99.117188 233.269531 91.5 L 233.179688 91.136719 L 228.570312 92.125 L 234.691406 81.042969 L 244.269531 88.96875 L 239.085938 90.242188 L 239.191406 90.625 C 241.261719 98.300781 246.34375 103.589844 251.835938 107.234375 C 256.152344 110.101562 260.730469 111.957031 264.332031 113.160156 Z M 264.332031 113.160156 " fill-opacity="1" fill-rule="evenodd"/><path fill="#23c7ac" d="M 303.898438 34.320312 L 334.832031 34.320312 L 334.832031 39.734375 L 303.898438 39.734375 Z M 303.898438 34.320312 " fill-opacity="1" fill-rule="nonzero"/><path fill="#23c7ac" d="M 317.046875 45.148438 L 334.832031 45.148438 L 334.832031 50.5625 L 317.046875 50.5625 Z M 317.046875 45.148438 " fill-opacity="1" fill-rule="nonzero"/><path fill="#5479f7" d="M 211.859375 123.261719 L 242.796875 123.261719 L 242.796875 128.675781 L 211.859375 128.675781 Z M 211.859375 123.261719 " fill-opacity="1" fill-rule="nonzero"/><path fill="#5479f7" d="M 211.859375 112.433594 L 229.648438 112.433594 L 229.648438 117.847656 L 211.859375 117.847656 Z M 211.859375 112.433594 " fill-opacity="1" fill-rule="nonzero"/><path fill="#ffffff" d="M 83.335938 200.351562 C 81.917969 197.914062 80.066406 188.667969 81.425781 183.917969 C 83.941406 174.617188 81.753906 154.886719 85.792969 140.664062 L 103.582031 142.082031 C 100.6875 162.890625 91.5625 176.664062 92.097656 183.148438 C 93.652344 185.425781 94.011719 186.929688 94.644531 189.5625 C 95.652344 193.765625 94.070312 194.292969 93.199219 193.488281 C 91.15625 191.59375 91.460938 186.050781 89.097656 189.566406 C 87.550781 191.863281 86.667969 197.273438 86.800781 199.359375 C 86.921875 201.210938 85.511719 204.089844 83.335938 200.351562 Z M 83.335938 200.351562 " fill-opacity="1" fill-rule="nonzero"/><path fill="#5479f7" d="M 123.039062 79.445312 C 117.148438 72.191406 123.765625 67.640625 127.84375 73.988281 C 130.867188 72.25 137.457031 67.457031 139.632812 62.199219 C 140.3125 63.183594 141.175781 65.683594 141.898438 68.09375 C 142.957031 65.449219 143.578125 59.980469 137.59375 59.253906 C 126.03125 52.90625 121.453125 65.691406 117.644531 70.585938 C 112.003906 77.839844 105.628906 80.789062 109.484375 87.8125 C 112.273438 92.902344 117.503906 91.9375 120.378906 90.363281 C 122.488281 87.121094 122.660156 82.441406 123.039062 79.445312 Z M 123.039062 79.445312 " fill-opacity="1" fill-rule="nonzero"/><path fill="#ffffff" d="M 112.804688 94.148438 C 113.265625 94.0625 113.730469 93.996094 114.199219 93.953125 C 117.222656 93.679688 119.136719 92.269531 120.378906 90.363281 C 122.488281 87.121094 122.660156 82.441406 123.039062 79.445312 C 117.148438 72.191406 123.765625 67.640625 127.84375 73.988281 C 130.867188 72.25 137.457031 67.457031 139.632812 62.199219 C 140.3125 63.183594 141.175781 65.683594 141.898438 68.09375 C 142.875 71.347656 145.933594 88.121094 134.375 86.535156 C 133.128906 92.539062 135.789062 93.554688 139.636719 94.773438 C 129.503906 104.464844 117.527344 98.394531 112.804688 94.148438 Z M 112.804688 94.148438 " fill-opacity="1" fill-rule="nonzero"/><path fill="#ffffff" d="M 60.269531 332.859375 L 64.910156 315.84375 L 53.695312 309.269531 L 49.054688 317.390625 L 43.253906 325.511719 L 37.453125 330.925781 L 32.039062 335.566406 L 27.011719 345.234375 L 42.867188 347.554688 Z M 60.269531 332.859375 " fill-opacity="1" fill-rule="nonzero"/><path fill="#ffffff" d="M 127.558594 340.980469 L 128.332031 327.445312 L 144.1875 328.21875 L 144.957031 333.246094 L 149.597656 338.660156 L 156.945312 343.300781 L 161.585938 344.847656 L 163.132812 347.941406 L 143.027344 349.101562 Z M 127.558594 340.980469 " fill-opacity="1" fill-rule="nonzero"/><g clip-path="url(#164afd357c)"><path fill="#5479f7" d="M 48.28125 341.367188 C 52.304688 338.273438 55.242188 330.925781 61.816406 327.058594 L 59.882812 333.632812 L 49.441406 343.6875 L 38.613281 350.261719 L 32.8125 351.808594 L 26.238281 350.261719 L 23.917969 346.78125 L 25.078125 342.914062 L 30.878906 335.953125 L 37.066406 331.699219 C 22.371094 343.300781 34.359375 352.078125 48.28125 341.367188 Z M 48.28125 341.367188 " fill-opacity="1" fill-rule="nonzero"/></g><g clip-path="url(#88a5634389)"><path fill="#5479f7" d="M 144.957031 348.328125 C 137.226562 348.328125 134.132812 341.367188 127.558594 339.820312 L 125.625 347.941406 L 127.171875 351.035156 L 129.105469 351.808594 L 174.347656 351.808594 L 173.960938 350.261719 L 170.867188 347.554688 L 159.652344 344.460938 C 166.769531 348.171875 154.238281 348.328125 144.957031 348.328125 Z M 144.957031 348.328125 " fill-opacity="1" fill-rule="nonzero"/></g><path fill="#23c7ac" d="M 108.308594 152.660156 L 148.882812 152.660156 C 148.207031 151.335938 147.828125 149.726562 147.644531 147.898438 C 146.773438 139.253906 150.28125 125.8125 147.285156 115.527344 C 167.773438 112.433594 172.027344 102.765625 185.949219 95.476562 C 178.601562 98.125 164.996094 81.109375 170.304688 76.472656 C 169.980469 76.753906 169.652344 77.035156 169.320312 77.316406 C 159.792969 85.433594 147.003906 93.324219 139.636719 94.773438 C 136.011719 100.890625 119.378906 100.269531 112.804688 94.148438 C 106.761719 95.304688 99.714844 100.058594 95.21875 104.546875 C 89.46875 110.289062 82.3125 125.992188 85.40625 140.664062 L 103.582031 142.210938 L 104.054688 134.824219 Z M 108.308594 152.660156 " fill-opacity="1" fill-rule="nonzero"/><path fill="#5479f7" d="M 84.988281 201.691406 C 84.652344 201.515625 84.199219 201.070312 83.671875 200.160156 C 83.339844 199.59375 82.96875 198.597656 82.621094 197.324219 C 82.273438 196.054688 81.953125 194.539062 81.722656 192.945312 C 81.253906 189.75 81.140625 186.316406 81.800781 184.023438 L 81.800781 184.019531 C 82.441406 181.65625 82.773438 178.644531 82.988281 175.261719 C 83.148438 172.683594 83.238281 169.871094 83.332031 166.941406 C 83.363281 166.023438 83.390625 165.089844 83.421875 164.148438 C 83.695312 156.273438 84.160156 147.828125 86.164062 140.769531 C 86.222656 140.566406 86.101562 140.351562 85.898438 140.292969 C 85.691406 140.234375 85.480469 140.355469 85.421875 140.558594 C 83.386719 147.722656 82.921875 156.253906 82.652344 164.125 C 82.617188 165.070312 82.589844 166.003906 82.558594 166.925781 C 82.464844 169.851562 82.375 172.648438 82.214844 175.210938 C 82.003906 178.585938 81.671875 181.53125 81.054688 183.816406 C 80.351562 186.273438 80.484375 189.839844 80.957031 193.058594 C 81.195312 194.679688 81.519531 196.226562 81.875 197.527344 C 82.226562 198.816406 82.621094 199.894531 83 200.546875 C 83.558594 201.503906 84.097656 202.101562 84.632812 202.378906 C 84.90625 202.519531 85.183594 202.582031 85.457031 202.554688 C 85.730469 202.527344 85.96875 202.414062 86.167969 202.253906 C 86.558594 201.945312 86.824219 201.445312 86.984375 200.9375 C 87.148438 200.421875 87.222656 199.847656 87.1875 199.332031 C 87.121094 198.339844 87.304688 196.507812 87.695312 194.621094 C 88.09375 192.730469 88.6875 190.863281 89.417969 189.78125 C 89.703125 189.355469 89.933594 189.089844 90.113281 188.945312 C 90.292969 188.800781 90.371094 188.808594 90.386719 188.808594 C 90.40625 188.8125 90.472656 188.835938 90.582031 188.988281 C 90.6875 189.132812 90.792969 189.351562 90.910156 189.640625 C 91.015625 189.90625 91.121094 190.210938 91.238281 190.542969 L 91.261719 190.613281 C 91.386719 190.96875 91.519531 191.347656 91.671875 191.726562 C 91.972656 192.46875 92.363281 193.238281 92.9375 193.769531 C 93.210938 194.019531 93.5625 194.191406 93.9375 194.191406 C 94.332031 194.1875 94.691406 193.996094 94.945312 193.621094 C 95.191406 193.257812 95.332031 192.742188 95.351562 192.074219 C 95.375 191.398438 95.277344 190.542969 95.019531 189.46875 L 95.019531 189.460938 C 94.394531 186.859375 94.019531 185.304688 92.476562 183.019531 C 92.363281 181.289062 92.949219 178.984375 93.960938 176.050781 C 94.523438 174.425781 95.203125 172.640625 95.949219 170.679688 C 96.574219 169.039062 97.242188 167.277344 97.929688 165.386719 C 100.929688 157.113281 104.15625 146.539062 104.742188 133.722656 C 104.820312 131.992188 105.03125 129.300781 105.453125 126.855469 C 105.664062 125.636719 105.925781 124.484375 106.242188 123.550781 C 106.570312 122.601562 106.933594 121.941406 107.308594 121.625 C 107.472656 121.488281 107.496094 121.246094 107.359375 121.082031 C 107.222656 120.917969 106.976562 120.894531 106.8125 121.03125 C 106.261719 121.492188 105.84375 122.332031 105.511719 123.300781 C 105.175781 124.289062 104.902344 125.484375 104.691406 126.726562 C 104.261719 129.210938 104.046875 131.9375 103.96875 133.6875 C 103.390625 146.390625 100.191406 156.882812 97.203125 165.121094 C 96.527344 166.984375 95.859375 168.742188 95.234375 170.386719 C 94.480469 172.363281 93.792969 174.171875 93.230469 175.800781 C 92.203125 178.78125 91.554688 181.261719 91.714844 183.183594 L 91.722656 183.285156 L 91.78125 183.367188 C 93.289062 185.582031 93.640625 187.027344 94.269531 189.652344 C 94.515625 190.679688 94.597656 191.464844 94.582031 192.046875 C 94.5625 192.636719 94.441406 192.988281 94.308594 193.183594 C 94.183594 193.367188 94.050781 193.417969 93.933594 193.417969 C 93.796875 193.417969 93.628906 193.355469 93.464844 193.203125 C 93.019531 192.789062 92.679688 192.15625 92.386719 191.433594 C 92.242188 191.078125 92.117188 190.714844 91.992188 190.359375 L 91.964844 190.285156 C 91.851562 189.957031 91.742188 189.636719 91.628906 189.351562 C 91.503906 189.050781 91.371094 188.761719 91.210938 188.535156 C 91.050781 188.3125 90.824219 188.097656 90.507812 188.046875 C 90.1875 187.992188 89.886719 188.132812 89.625 188.347656 C 89.359375 188.5625 89.078125 188.898438 88.777344 189.347656 C 87.957031 190.5625 87.339844 192.550781 86.941406 194.460938 C 86.539062 196.378906 86.34375 198.289062 86.414062 199.382812 C 86.441406 199.796875 86.382812 200.273438 86.246094 200.703125 C 86.109375 201.140625 85.910156 201.472656 85.6875 201.648438 C 85.585938 201.730469 85.480469 201.773438 85.382812 201.785156 C 85.28125 201.792969 85.152344 201.777344 84.988281 201.691406 Z M 84.988281 201.691406 " fill-opacity="1" fill-rule="evenodd"/><path fill="#ffffff" d="M 200.058594 46.25 C 202.785156 42.128906 211.019531 37.53125 213.792969 37.027344 C 218.046875 36.253906 216.773438 39.195312 215.289062 40.308594 C 213.613281 41.558594 210.074219 45.746094 209.332031 48.414062 C 208.195312 52.496094 214.695312 52.035156 215.339844 54.816406 C 215.605469 55.96875 215.226562 56.859375 212.246094 56.363281 C 209.925781 55.976562 207.046875 55.320312 206.402344 54.863281 C 200.449219 59.15625 194.40625 77.84375 184.867188 87.171875 C 187.109375 89.617188 188.65625 94.257812 185.949219 95.476562 C 183.285156 96.4375 179.796875 94.8125 176.6875 92.128906 C 171.824219 87.933594 167.882812 81.148438 169.457031 77.621094 C 177.644531 65.3125 194.617188 54.199219 200.058594 46.25 Z M 200.058594 46.25 " fill-opacity="1" fill-rule="nonzero"/><path fill="#5479f7" d="M 215.886719 37.414062 C 215.53125 37.273438 214.902344 37.21875 213.863281 37.40625 C 213.21875 37.523438 212.222656 37.886719 211.023438 38.449219 C 209.835938 39.011719 208.476562 39.753906 207.113281 40.609375 C 204.378906 42.328125 201.695312 44.472656 200.378906 46.460938 L 200.375 46.46875 C 198.992188 48.488281 196.886719 50.699219 194.398438 53.054688 C 192.5 54.851562 190.367188 56.746094 188.148438 58.71875 C 187.453125 59.335938 186.75 59.957031 186.046875 60.589844 C 180.105469 65.894531 173.859375 71.710938 169.796875 77.808594 C 169.457031 78.589844 169.40625 79.578125 169.617188 80.714844 C 169.832031 81.863281 170.3125 83.136719 171 84.445312 C 172.34375 87.003906 174.449219 89.652344 176.785156 91.703125 C 179.625 90.949219 182.207031 89.230469 184.59375 86.894531 C 189.316406 82.277344 193.1875 75.328125 196.640625 68.945312 C 196.820312 68.605469 197.003906 68.265625 197.1875 67.929688 C 198.703125 65.121094 200.144531 62.453125 201.539062 60.207031 C 203.09375 57.703125 204.621094 55.671875 206.175781 54.546875 L 206.402344 54.386719 L 206.628906 54.546875 C 206.738281 54.625 206.984375 54.734375 207.382812 54.867188 C 207.765625 54.996094 208.25 55.128906 208.789062 55.261719 C 209.867188 55.53125 211.15625 55.789062 212.308594 55.980469 C 213.039062 56.101562 213.585938 56.132812 213.996094 56.105469 C 214.410156 56.078125 214.648438 55.988281 214.789062 55.890625 C 215.015625 55.730469 215.089844 55.449219 214.964844 54.902344 C 214.839844 54.359375 214.421875 53.941406 213.769531 53.546875 C 213.316406 53.273438 212.800781 53.042969 212.257812 52.796875 C 212.011719 52.6875 211.757812 52.574219 211.5 52.453125 C 210.71875 52.078125 209.917969 51.636719 209.398438 50.984375 C 208.851562 50.304688 208.644531 49.4375 208.957031 48.308594 C 209.351562 46.898438 210.460938 45.136719 211.65625 43.59375 C 212.851562 42.042969 214.179688 40.652344 215.054688 40 C 215.386719 39.75 215.714844 39.394531 215.953125 39.011719 C 216.195312 38.625 216.316406 38.253906 216.308594 37.972656 C 216.300781 37.839844 216.269531 37.734375 216.210938 37.652344 C 216.152344 37.570312 216.054688 37.484375 215.886719 37.414062 Z M 177.5 92.304688 C 178.863281 93.40625 180.273438 94.28125 181.625 94.808594 C 183.164062 95.410156 184.59375 95.550781 185.804688 95.117188 C 186.363281 94.863281 186.699219 94.4375 186.867188 93.894531 C 187.042969 93.332031 187.042969 92.632812 186.886719 91.863281 C 186.597656 90.445312 185.804688 88.890625 184.84375 87.734375 C 182.617188 89.851562 180.179688 91.476562 177.5 92.304688 Z M 185.398438 87.191406 C 186.453125 88.441406 187.324219 90.136719 187.644531 91.707031 C 187.816406 92.554688 187.835938 93.398438 187.609375 94.125 C 187.378906 94.867188 186.894531 95.476562 186.109375 95.832031 L 186.09375 95.835938 L 186.082031 95.839844 C 184.628906 96.363281 182.988281 96.171875 181.34375 95.53125 C 179.699219 94.886719 178.011719 93.78125 176.433594 92.421875 C 173.96875 90.292969 171.734375 87.511719 170.316406 84.804688 C 169.605469 83.449219 169.089844 82.105469 168.859375 80.859375 C 168.625 79.613281 168.667969 78.441406 169.101562 77.464844 L 169.113281 77.433594 L 169.132812 77.40625 C 173.261719 71.207031 179.585938 65.320312 185.53125 60.011719 C 186.242188 59.378906 186.945312 58.753906 187.640625 58.136719 C 189.859375 56.164062 191.980469 54.28125 193.867188 52.492188 C 196.347656 50.144531 198.402344 47.984375 199.738281 46.03125 C 201.148438 43.902344 203.945312 41.6875 206.703125 39.953125 C 208.085938 39.082031 209.476562 38.324219 210.695312 37.75 C 211.90625 37.179688 212.980469 36.78125 213.722656 36.644531 C 214.8125 36.449219 215.617188 36.472656 216.175781 36.699219 C 216.460938 36.8125 216.6875 36.984375 216.84375 37.210938 C 217 37.4375 217.070312 37.691406 217.078125 37.945312 C 217.097656 38.445312 216.890625 38.96875 216.609375 39.421875 C 216.320312 39.882812 215.933594 40.308594 215.519531 40.617188 C 214.722656 41.214844 213.445312 42.539062 212.265625 44.066406 C 211.085938 45.59375 210.054688 47.257812 209.703125 48.515625 C 209.449219 49.429688 209.628906 50.035156 210 50.503906 C 210.402344 51.003906 211.054688 51.382812 211.832031 51.753906 C 212.054688 51.859375 212.285156 51.960938 212.523438 52.070312 C 213.085938 52.324219 213.671875 52.585938 214.167969 52.886719 C 214.882812 53.316406 215.519531 53.878906 215.71875 54.726562 C 215.859375 55.335938 215.875 56.074219 215.234375 56.523438 C 214.9375 56.730469 214.539062 56.84375 214.050781 56.878906 C 213.558594 56.910156 212.945312 56.871094 212.183594 56.742188 C 211.015625 56.546875 209.707031 56.285156 208.601562 56.015625 C 208.054688 55.878906 207.550781 55.738281 207.140625 55.601562 C 206.875 55.511719 206.628906 55.421875 206.433594 55.324219 C 205.074219 56.378906 203.675781 58.230469 202.195312 60.613281 C 200.816406 62.839844 199.386719 65.484375 197.867188 68.300781 C 197.683594 68.636719 197.503906 68.972656 197.320312 69.3125 C 193.941406 75.5625 190.097656 82.480469 185.398438 87.191406 Z M 185.398438 87.191406 " fill-opacity="1" fill-rule="evenodd"/><path fill="#5479f7" d="M 105.585938 335.875 L 52.773438 309.871094 L 69.808594 274.910156 C 82.441406 248.992188 92.132812 221.746094 98.703125 193.671875 L 108.308594 152.660156 L 148.882812 152.660156 L 193.535156 328.785156 L 128.027344 328.785156 L 128.027344 175.78125 L 126.234375 209.320312 C 125.015625 232.15625 122.109375 254.867188 117.539062 277.273438 Z M 105.585938 335.875 " fill-opacity="1" fill-rule="nonzero"/><g clip-path="url(#de488115d3)"><path fill="#5479f7" d="M 128.359375 328.21875 C 128.570312 328.234375 128.730469 328.421875 128.714844 328.632812 L 127.941406 339.625 L 126.269531 347.191406 C 125.785156 349.363281 127.4375 351.421875 129.664062 351.421875 L 174.054688 351.4375 C 173.917969 350.484375 173.28125 349.675781 172.226562 348.953125 C 171.035156 348.132812 169.371094 347.472656 167.523438 346.894531 C 166.109375 346.453125 164.613281 346.0625 163.15625 345.6875 C 162.714844 345.574219 162.273438 345.457031 161.84375 345.34375 C 160.007812 344.859375 158.304688 344.371094 157.074219 343.785156 C 148.429688 339.671875 143.734375 334.753906 143.734375 328.621094 C 143.734375 328.40625 143.90625 328.234375 144.121094 328.234375 C 144.335938 328.234375 144.507812 328.40625 144.507812 328.621094 C 144.507812 334.277344 148.824219 339 157.40625 343.089844 C 158.558594 343.636719 160.199219 344.109375 162.039062 344.597656 C 162.464844 344.707031 162.898438 344.820312 163.335938 344.933594 C 164.796875 345.3125 166.320312 345.707031 167.753906 346.15625 C 169.621094 346.738281 171.371094 347.425781 172.664062 348.3125 C 173.960938 349.203125 174.855469 350.339844 174.855469 351.824219 L 174.855469 352.210938 L 129.664062 352.195312 C 126.945312 352.195312 124.925781 349.679688 125.511719 347.023438 L 127.171875 339.515625 L 127.945312 328.578125 C 127.960938 328.367188 128.144531 328.207031 128.359375 328.21875 Z M 128.359375 328.21875 " fill-opacity="1" fill-rule="evenodd"/></g><path fill="#5479f7" d="M 137.613281 73.378906 C 137.613281 74.015625 137.265625 74.539062 136.839844 74.539062 C 136.410156 74.539062 136.066406 74.015625 136.066406 73.378906 C 136.066406 72.738281 136.410156 72.21875 136.839844 72.21875 C 137.265625 72.21875 137.613281 72.738281 137.613281 73.378906 Z M 137.613281 73.378906 " fill-opacity="1" fill-rule="nonzero"/><path fill="#5479f7" d="M 135.84375 68.921875 C 135.234375 69.011719 134.703125 69.335938 134.40625 69.597656 C 134.246094 69.738281 134 69.726562 133.859375 69.566406 C 133.71875 69.40625 133.730469 69.160156 133.890625 69.019531 C 134.273438 68.679688 134.941406 68.273438 135.726562 68.15625 C 136.535156 68.035156 137.453125 68.214844 138.273438 69.035156 C 138.425781 69.1875 138.425781 69.429688 138.273438 69.582031 C 138.125 69.734375 137.878906 69.734375 137.726562 69.582031 C 137.097656 68.953125 136.429688 68.832031 135.84375 68.921875 Z M 135.84375 68.921875 " fill-opacity="1" fill-rule="evenodd"/><path fill="#5479f7" d="M 135.640625 78.226562 C 135.847656 78.175781 136.058594 78.300781 136.109375 78.507812 C 136.210938 78.910156 136.476562 79.53125 136.945312 80.042969 C 137.402344 80.546875 138.042969 80.9375 138.910156 80.9375 C 139.121094 80.9375 139.296875 81.109375 139.296875 81.324219 C 139.296875 81.535156 139.121094 81.710938 138.910156 81.710938 C 137.78125 81.710938 136.945312 81.191406 136.371094 80.5625 C 135.808594 79.941406 135.484375 79.203125 135.359375 78.695312 C 135.308594 78.488281 135.433594 78.277344 135.640625 78.226562 Z M 135.640625 78.226562 " fill-opacity="1" fill-rule="evenodd"/><path fill="#5479f7" d="M 123.234375 73.230469 C 123.449219 73.210938 123.636719 73.371094 123.652344 73.582031 C 123.6875 73.992188 123.832031 74.640625 124.15625 75.21875 C 124.476562 75.792969 124.945312 76.261719 125.617188 76.410156 C 125.828125 76.457031 125.957031 76.664062 125.910156 76.871094 C 125.867188 77.082031 125.660156 77.210938 125.449219 77.167969 C 124.492188 76.953125 123.867188 76.289062 123.480469 75.59375 C 123.09375 74.902344 122.925781 74.144531 122.882812 73.648438 C 122.863281 73.433594 123.023438 73.246094 123.234375 73.230469 Z M 123.234375 73.230469 " fill-opacity="1" fill-rule="evenodd"/><g clip-path="url(#7a1be5080c)"><path fill="#5479f7" d="M 53.402344 309.28125 C 53.609375 309.332031 53.734375 309.542969 53.683594 309.75 C 53.488281 310.535156 52.8125 311.957031 51.835938 313.699219 C 50.847656 315.457031 49.53125 317.574219 48.015625 319.761719 C 44.992188 324.128906 41.15625 328.808594 37.585938 331.425781 C 37.507812 331.484375 37.417969 331.550781 37.316406 331.625 C 35.71875 332.792969 31.695312 335.730469 28.574219 339.042969 C 26.914062 340.804688 25.539062 342.640625 24.90625 344.34375 C 24.59375 345.191406 24.46875 345.988281 24.570312 346.71875 C 24.671875 347.441406 24.996094 348.125 25.617188 348.75 C 26.75 349.878906 28.175781 350.738281 29.992188 351.089844 C 31.804688 351.445312 34.03125 351.296875 36.765625 350.367188 C 42.226562 348.507812 49.644531 343.546875 59.679688 333.40625 L 64.734375 315.144531 C 64.789062 314.9375 65.003906 314.816406 65.210938 314.875 C 65.414062 314.933594 65.535156 315.144531 65.480469 315.351562 L 60.371094 333.808594 L 60.300781 333.878906 C 50.199219 344.09375 42.65625 349.175781 37.011719 351.097656 C 34.183594 352.0625 31.820312 352.234375 29.84375 351.851562 C 27.863281 351.464844 26.300781 350.523438 25.070312 349.296875 C 24.335938 348.558594 23.929688 347.722656 23.804688 346.824219 C 23.679688 345.933594 23.835938 345.003906 24.183594 344.074219 C 24.867188 342.222656 26.328125 340.296875 28.011719 338.511719 C 31.183594 335.144531 35.261719 332.167969 36.859375 331 C 36.960938 330.929688 37.050781 330.859375 37.128906 330.804688 C 40.589844 328.265625 44.367188 323.671875 47.378906 319.320312 C 48.882812 317.152344 50.1875 315.054688 51.160156 313.320312 C 52.144531 311.570312 52.765625 310.230469 52.933594 309.5625 C 52.984375 309.355469 53.195312 309.230469 53.402344 309.28125 Z M 53.402344 309.28125 " fill-opacity="1" fill-rule="evenodd"/></g><path fill="#5479f7" d="M 137.714844 58.878906 C 139.230469 59.074219 140.367188 59.570312 141.191406 60.273438 C 142.027344 60.992188 142.515625 61.898438 142.761719 62.855469 C 143.234375 64.699219 142.832031 66.746094 142.308594 68.113281 C 142.816406 69.890625 143.777344 74.816406 143.222656 79.179688 C 142.9375 81.414062 142.25 83.5625 140.847656 85.046875 C 139.480469 86.492188 137.484375 87.265625 134.683594 86.964844 C 134.171875 89.695312 134.550781 91.214844 135.390625 92.195312 C 136.296875 93.253906 137.804688 93.785156 139.753906 94.402344 C 139.957031 94.46875 140.070312 94.683594 140.007812 94.886719 C 139.941406 95.09375 139.726562 95.207031 139.523438 95.140625 C 137.621094 94.539062 135.878906 93.957031 134.800781 92.699219 C 133.695312 91.410156 133.363281 89.507812 133.996094 86.457031 L 134.070312 86.105469 L 134.425781 86.152344 C 137.21875 86.535156 139.0625 85.808594 140.285156 84.515625 C 141.527344 83.203125 142.179688 81.246094 142.457031 79.082031 C 143.003906 74.75 142.007812 69.800781 141.527344 68.203125 C 141.167969 67.003906 140.773438 65.785156 140.386719 64.746094 C 140.136719 64.078125 139.894531 63.496094 139.671875 63.050781 C 138.480469 65.496094 136.429688 67.796875 134.316406 69.699219 C 131.996094 71.792969 129.570312 73.441406 128.039062 74.320312 L 127.71875 74.503906 L 127.519531 74.195312 C 126.535156 72.664062 125.421875 71.828125 124.425781 71.511719 C 123.433594 71.195312 122.554688 71.382812 121.957031 71.90625 C 121.359375 72.433594 120.980469 73.347656 121.117188 74.597656 C 121.25 75.851562 121.898438 77.425781 123.339844 79.203125 L 123.445312 79.332031 L 123.425781 79.492188 C 123.367188 79.949219 123.3125 80.453125 123.257812 80.988281 C 123.128906 82.179688 122.984375 83.527344 122.738281 84.882812 C 122.382812 86.851562 121.800781 88.890625 120.703125 90.574219 C 119.398438 92.574219 117.382812 94.050781 114.234375 94.335938 C 113.777344 94.378906 113.324219 94.445312 112.875 94.53125 C 112.667969 94.570312 112.464844 94.433594 112.425781 94.222656 C 112.382812 94.011719 112.523438 93.808594 112.730469 93.769531 C 113.203125 93.679688 113.683594 93.609375 114.164062 93.566406 C 116.363281 93.367188 117.9375 92.546875 119.085938 91.371094 C 117.820312 91.835938 116.34375 92.117188 114.859375 91.972656 C 112.722656 91.761719 110.605469 90.660156 109.144531 88 C 108.152344 86.191406 107.800781 84.613281 107.957031 83.136719 C 108.109375 81.667969 108.761719 80.351562 109.691406 79.058594 C 110.597656 77.800781 111.792969 76.539062 113.085938 75.171875 L 113.167969 75.085938 C 114.5 73.679688 115.941406 72.144531 117.339844 70.347656 C 118.011719 69.484375 118.707031 68.375 119.472656 67.144531 C 119.777344 66.664062 120.089844 66.160156 120.417969 65.648438 C 121.566406 63.855469 122.875 61.96875 124.441406 60.429688 C 126.007812 58.886719 127.851562 57.679688 130.066406 57.277344 C 132.269531 56.878906 134.792969 57.289062 137.714844 58.878906 Z M 120.105469 90.070312 C 121.089844 88.527344 121.632812 86.640625 121.976562 84.742188 C 122.21875 83.417969 122.355469 82.121094 122.484375 80.945312 C 122.535156 80.460938 122.582031 79.996094 122.636719 79.558594 C 121.203125 77.757812 120.5 76.089844 120.347656 74.679688 C 120.191406 73.234375 120.621094 72.050781 121.449219 71.324219 C 122.277344 70.597656 123.449219 70.386719 124.664062 70.773438 C 125.792969 71.136719 126.957031 72.011719 127.964844 73.46875 C 129.460938 72.578125 131.675781 71.042969 133.796875 69.125 C 136.078125 67.070312 138.21875 64.601562 139.273438 62.050781 L 139.546875 61.394531 L 139.949219 61.980469 C 140.320312 62.515625 140.71875 63.425781 141.113281 64.476562 C 141.378906 65.195312 141.648438 65.992188 141.910156 66.8125 C 142.203125 65.660156 142.332031 64.285156 142.011719 63.050781 C 141.796875 62.21875 141.382812 61.457031 140.6875 60.863281 C 139.988281 60.265625 138.984375 59.8125 137.546875 59.636719 L 137.472656 59.628906 L 137.40625 59.59375 C 134.574219 58.039062 132.210938 57.675781 130.203125 58.039062 C 128.191406 58.402344 126.480469 59.507812 124.984375 60.980469 C 123.484375 62.457031 122.210938 64.285156 121.070312 66.066406 C 120.753906 66.554688 120.449219 67.042969 120.152344 67.519531 C 119.375 68.761719 118.648438 69.925781 117.949219 70.824219 C 116.527344 72.652344 115.058594 74.210938 113.730469 75.617188 L 113.671875 75.679688 C 112.359375 77.066406 111.195312 78.292969 110.316406 79.511719 C 109.429688 80.742188 108.859375 81.933594 108.726562 83.21875 C 108.589844 84.5 108.886719 85.921875 109.824219 87.628906 C 111.15625 90.054688 113.042969 91.015625 114.9375 91.203125 C 116.816406 91.386719 118.722656 90.808594 120.105469 90.070312 Z M 145.292969 110.84375 C 145.476562 110.738281 145.714844 110.804688 145.816406 110.988281 C 148.308594 115.410156 148.941406 120.789062 148.90625 126.238281 C 148.902344 126.453125 148.730469 126.625 148.515625 126.625 C 148.300781 126.621094 148.128906 126.449219 148.132812 126.234375 C 148.164062 120.828125 147.535156 115.609375 145.144531 111.367188 C 145.039062 111.183594 145.105469 110.949219 145.292969 110.84375 Z M 145.292969 110.84375 " fill-opacity="1" fill-rule="evenodd"/><path fill="#23c7ac" d="M 255.890625 312.234375 C 245.664062 316 248.355469 298.773438 245.664062 274.546875 C 243.707031 256.929688 243.121094 219.667969 233.867188 200.765625 C 233.46875 199.984375 233.09375 199.273438 232.742188 198.632812 C 233.132812 199.316406 233.507812 200.027344 233.867188 200.765625 C 239.632812 212.007812 250.207031 237.332031 254.023438 264.316406 C 253.441406 246.53125 252.332031 229.875 248.882812 222.28125 C 248.367188 221.359375 247.835938 220.472656 247.277344 219.632812 C 247.863281 220.320312 248.394531 221.210938 248.882812 222.28125 C 250.898438 225.90625 252.59375 230.117188 254.023438 234.695312 C 254.09375 213.15625 259.246094 199.167969 261.8125 194.867188 C 257.078125 203.910156 258.582031 246.011719 263.96875 264.316406 C 264.679688 266.742188 265.550781 270.359375 266.40625 274.546875 C 268.273438 248.164062 261.492188 190.667969 273.121094 178.175781 C 269.496094 208.054688 272.289062 240.3125 274.523438 265.933594 C 276.503906 223.722656 284.105469 210.300781 287.65625 208.863281 C 283.777344 217.046875 282.269531 251.394531 282.269531 264.316406 C 282.269531 280.691406 286.039062 312.234375 274.195312 312.234375 Z M 255.890625 312.234375 " fill-opacity="1" fill-rule="nonzero"/><path fill="#5479f7" d="M 273.644531 177.042969 L 273.503906 178.222656 C 270.136719 205.96875 272.316406 235.78125 274.433594 260.433594 C 275.558594 242.347656 277.757812 230.058594 280.128906 222 C 281.429688 217.574219 282.785156 214.410156 284.050781 212.253906 C 285.304688 210.117188 286.5 208.914062 287.511719 208.503906 L 288.429688 208.132812 L 288.003906 209.027344 C 287.0625 211.015625 286.25 214.644531 285.5625 219.222656 C 284.878906 223.78125 284.324219 229.234375 283.894531 234.84375 C 283.035156 246.058594 282.65625 257.867188 282.65625 264.316406 C 282.65625 267.292969 282.78125 270.765625 282.914062 274.46875 C 282.964844 275.851562 283.015625 277.265625 283.0625 278.699219 C 283.230469 283.960938 283.332031 289.453125 283.0625 294.4375 C 282.792969 299.410156 282.148438 303.917969 280.8125 307.195312 C 279.472656 310.476562 277.382812 312.621094 274.195312 312.621094 L 255.960938 312.621094 C 254.671875 313.085938 253.542969 313.242188 252.558594 313.070312 C 251.550781 312.894531 250.726562 312.382812 250.0625 311.589844 C 248.753906 310.03125 248.039062 307.371094 247.566406 303.941406 C 247.113281 300.640625 246.878906 296.539062 246.609375 291.847656 C 246.597656 291.636719 246.585938 291.421875 246.574219 291.207031 C 246.285156 286.246094 245.949219 280.632812 245.277344 274.589844 C 244.84375 270.6875 244.480469 265.824219 244.070312 260.421875 C 244.019531 259.714844 243.964844 259 243.910156 258.273438 C 243.4375 252.007812 242.890625 245.113281 242.117188 238.179688 C 240.570312 224.304688 238.117188 210.324219 233.523438 200.941406 C 233.125 200.164062 232.75 199.457031 232.402344 198.820312 L 233.078125 198.441406 C 233.472656 199.128906 233.851562 199.847656 234.214844 200.59375 C 239.546875 210.992188 248.972656 233.386719 253.402344 258.027344 C 253.125 251.40625 252.738281 245.09375 252.144531 239.519531 C 251.363281 232.191406 250.230469 226.191406 248.535156 222.453125 C 248.03125 221.546875 247.503906 220.675781 246.957031 219.84375 L 247.574219 219.382812 C 248.183594 220.101562 248.734375 221.019531 249.226562 222.105469 C 250.921875 225.160156 252.390625 228.613281 253.664062 232.351562 C 254.085938 212.085938 258.964844 198.882812 261.480469 194.667969 L 262.15625 195.042969 C 261.589844 196.125 261.105469 197.730469 260.703125 199.769531 C 260.308594 201.804688 260 204.246094 259.78125 206.988281 C 259.339844 212.476562 259.253906 219.144531 259.480469 226.105469 C 259.9375 240.039062 261.660156 255.101562 264.339844 264.207031 C 264.890625 266.078125 265.53125 268.652344 266.1875 271.640625 C 266.546875 263.734375 266.308594 253.636719 266.058594 242.960938 C 265.894531 235.789062 265.71875 228.355469 265.714844 221.152344 C 265.710938 211.53125 266.011719 202.328125 267.042969 194.742188 C 267.558594 190.949219 268.261719 187.546875 269.203125 184.699219 C 270.140625 181.855469 271.328125 179.53125 272.835938 177.910156 Z M 266.796875 274.519531 C 268.230469 281.523438 269.625 290.109375 270.199219 297.367188 C 270.488281 301.003906 270.570312 304.324219 270.34375 306.949219 C 270.230469 308.261719 270.039062 309.410156 269.753906 310.347656 C 269.578125 310.921875 269.359375 311.429688 269.09375 311.847656 L 273.984375 311.847656 C 274.835938 310.453125 275.417969 308.386719 275.769531 305.699219 C 276.132812 302.90625 276.238281 299.480469 276.164062 295.515625 C 276.019531 287.582031 275.144531 277.535156 274.152344 266.152344 L 274.136719 265.964844 C 271.9375 240.726562 269.1875 208.996094 272.582031 179.441406 C 271.546875 180.863281 270.671875 182.714844 269.9375 184.941406 C 269.015625 187.730469 268.324219 191.078125 267.8125 194.84375 C 266.785156 202.378906 266.484375 211.539062 266.488281 221.152344 C 266.492188 228.304688 266.664062 235.714844 266.832031 242.878906 C 267.113281 254.90625 267.378906 266.242188 266.796875 274.519531 Z M 274.894531 311.804688 C 277.253906 311.519531 278.925781 309.773438 280.097656 306.902344 C 281.382812 303.753906 282.019531 299.351562 282.289062 294.394531 C 282.558594 289.445312 282.457031 283.984375 282.289062 278.722656 C 282.242188 277.300781 282.191406 275.890625 282.144531 274.511719 C 282.011719 270.800781 281.882812 267.304688 281.882812 264.316406 C 281.882812 257.84375 282.261719 246.019531 283.125 234.785156 C 283.554688 229.167969 284.109375 223.691406 284.796875 219.105469 C 285.367188 215.296875 286.039062 212.066406 286.824219 209.878906 C 286.207031 210.433594 285.492188 211.324219 284.71875 212.644531 C 283.496094 214.730469 282.160156 217.832031 280.871094 222.214844 C 278.292969 230.984375 275.902344 244.851562 274.910156 265.925781 L 274.925781 266.097656 C 275.914062 277.464844 276.792969 287.535156 276.9375 295.5 C 277.011719 299.484375 276.90625 302.953125 276.535156 305.800781 C 276.214844 308.269531 275.691406 310.304688 274.894531 311.804688 Z M 268.121094 311.847656 C 268.464844 311.488281 268.769531 310.917969 269.011719 310.121094 C 269.277344 309.257812 269.464844 308.164062 269.574219 306.882812 C 269.796875 304.316406 269.714844 301.046875 269.429688 297.429688 C 268.855469 290.191406 267.460938 281.617188 266.027344 274.625 C 265.171875 270.441406 264.304688 266.835938 263.597656 264.425781 C 260.890625 255.226562 259.167969 240.085938 258.707031 226.132812 C 258.480469 219.148438 258.566406 212.453125 259.007812 206.929688 C 259.214844 204.371094 259.496094 202.058594 259.859375 200.085938 C 257.351562 206.792969 254.472656 218.601562 254.410156 234.636719 C 258.96875 249.292969 260.824219 267.699219 261.855469 282.917969 C 262.148438 287.28125 262.378906 291.410156 262.585938 295.109375 C 262.734375 297.84375 262.875 300.347656 263.019531 302.53125 C 263.1875 305.117188 263.363281 307.277344 263.574219 308.914062 C 263.679688 309.730469 263.792969 310.410156 263.917969 310.941406 C 264.011719 311.34375 264.105469 311.640625 264.199219 311.847656 Z M 263.367188 311.847656 C 263.292969 311.628906 263.226562 311.386719 263.164062 311.117188 C 263.03125 310.550781 262.914062 309.84375 262.808594 309.011719 C 262.59375 307.351562 262.417969 305.171875 262.246094 302.582031 C 262.101562 300.367188 261.960938 297.863281 261.8125 295.128906 C 261.605469 291.449219 261.378906 287.351562 261.082031 282.96875 C 260.050781 267.734375 258.195312 249.378906 253.652344 234.8125 C 252.855469 232.253906 251.976562 229.820312 251.003906 227.535156 C 251.816406 230.882812 252.433594 234.929688 252.914062 239.4375 C 253.695312 246.785156 254.117188 255.410156 254.40625 264.304688 C 254.570312 269.253906 254.691406 274.285156 254.808594 279.234375 C 255.101562 291.480469 255.382812 303.199219 256.242188 311.847656 Z M 255.476562 311.96875 C 254.613281 303.289062 254.328125 291.496094 254.035156 279.21875 C 253.917969 274.285156 253.796875 269.269531 253.636719 264.351562 C 250.636719 243.167969 243.46875 223.007812 237.746094 209.914062 C 240.226562 218.269531 241.789062 228.238281 242.886719 238.097656 C 243.660156 245.042969 244.207031 251.949219 244.679688 258.214844 C 244.738281 258.941406 244.789062 259.65625 244.84375 260.363281 C 245.25 265.769531 245.613281 270.617188 246.046875 274.503906 C 246.722656 280.570312 247.058594 286.199219 247.34375 291.164062 C 247.355469 291.371094 247.367188 291.578125 247.378906 291.785156 C 247.652344 296.492188 247.886719 300.566406 248.335938 303.835938 C 248.804688 307.269531 249.503906 309.722656 250.652344 311.09375 C 251.214844 311.761719 251.878906 312.167969 252.691406 312.308594 C 253.449219 312.441406 254.363281 312.34375 255.476562 311.96875 Z M 255.476562 311.96875 " fill-opacity="1" fill-rule="evenodd"/><g clip-path="url(#0e03ea654e)"><path fill="#ffffff" d="M 230.421875 305.789062 L 301.578125 305.789062 L 291.878906 346.261719 C 291.046875 349.742188 287.9375 352.195312 284.359375 352.195312 L 247.640625 352.195312 C 244.0625 352.195312 240.953125 349.742188 240.117188 346.261719 Z M 230.421875 305.789062 " fill-opacity="1" fill-rule="nonzero"/><path fill="#5479f7" d="M 230.421875 305.789062 L 240.117188 346.261719 C 240.953125 349.742188 244.0625 352.195312 247.640625 352.195312 L 284.359375 352.195312 C 287.9375 352.195312 291.046875 349.742188 291.878906 346.261719 L 301.578125 305.789062 Z M 231.402344 306.5625 L 240.871094 346.082031 C 241.621094 349.214844 244.421875 351.421875 247.640625 351.421875 L 284.359375 351.421875 C 287.578125 351.421875 290.378906 349.214844 291.128906 346.082031 L 300.597656 306.5625 Z M 231.402344 306.5625 " fill-opacity="1" fill-rule="evenodd"/></g><path fill="#5479f7" d="M 299.910156 312.75 L 232.089844 312.75 L 234.035156 320.871094 L 297.964844 320.871094 Z M 299.910156 312.75 " fill-opacity="1" fill-rule="nonzero"/></svg>