<svg xmlns="http://www.w3.org/2000/svg" xmlns:xlink="http://www.w3.org/1999/xlink" width="500" zoomAndPan="magnify" viewBox="0 0 375 374.999991" height="500" preserveAspectRatio="xMidYMid meet" version="1.0"><path fill="#caddff" d="M 322.691406 117.394531 C 329.257812 131.957031 338.976562 159.832031 335.070312 194.5 C 330.058594 238.984375 305.246094 274.054688 281.109375 293.761719 C 201.015625 359.15625 54.394531 316.910156 34.980469 255.308594 C 31.457031 244.132812 32.449219 233.355469 33.664062 220.09375 C 37.542969 177.910156 57.957031 165.371094 71.6875 120.582031 C 84.183594 79.824219 71.863281 75.238281 83.550781 57.117188 C 108.894531 17.808594 182.0625 15.828125 232.40625 34.671875 C 251.742188 41.910156 298.664062 64.113281 322.691406 117.394531 " fill-opacity="1" fill-rule="nonzero"/><path fill="#ffffff" d="M 130.710938 191.117188 L 181.023438 182.121094 C 181.347656 182.0625 181.453125 182.34375 181.453125 182.632812 L 181.453125 225.457031 C 181.453125 229.558594 210.039062 234.917969 210.320312 234.324219 L 210.355469 238.851562 C 210.355469 239.695312 209.613281 240.578125 208.667969 240.753906 L 208.039062 240.871094 C 208.035156 240.871094 208.03125 240.871094 208.027344 240.875 L 165.84375 248.683594 C 163.886719 249.042969 161.953125 248.964844 160.183594 248.550781 L 136.988281 243.074219 C 132.8125 242.089844 130.179688 238.800781 130.179688 234.679688 L 130.179688 191.8125 C 130.179688 191.519531 130.382812 191.179688 130.710938 191.117188 " fill-opacity="1" fill-rule="nonzero"/><path fill="#99b9ff" d="M 186.550781 178.601562 L 186.550781 221.4375 C 186.550781 225.65625 189.265625 229 193.53125 230.035156 L 209.179688 233.820312 C 210.203125 234.066406 209.851562 235.5 208.71875 235.710938 L 165.734375 243.667969 C 163.800781 244.027344 161.890625 244 160.140625 243.585938 L 142.808594 239.492188 C 138.507812 238.476562 135.765625 235.125 135.765625 230.878906 L 135.765625 188.003906 C 135.765625 187.828125 135.925781 187.65625 136.121094 187.621094 L 186.195312 178.351562 C 186.390625 178.316406 186.550781 178.429688 186.550781 178.601562 " fill-opacity="1" fill-rule="nonzero"/><path fill="#0099ff" d="M 256.382812 202.046875 L 60.855469 202.484375 C 59.144531 202.484375 57.546875 201.199219 57.472656 199.5 L 51.910156 77.175781 C 51.78125 74.210938 54.328125 71.261719 57.269531 71.335938 L 250.40625 72.355469 L 256.382812 202.046875 " fill-opacity="1" fill-rule="nonzero"/><path fill="#99b9ff" d="M 64.886719 72.03125 C 61.523438 72.03125 58.199219 75.4375 58.347656 78.785156 L 63.605469 199.199219 C 63.683594 200.902344 65.378906 202.339844 67.089844 202.339844 L 259.148438 202.027344 C 261.199219 202.027344 262.710938 200.324219 262.621094 198.285156 L 257.003906 75.636719 C 256.929688 73.9375 255.964844 72.03125 254.253906 72.03125 L 64.886719 72.03125 " fill-opacity="1" fill-rule="nonzero"/><path fill="#000000" d="M 67.113281 202.621094 C 65.050781 202.621094 63.167969 200.910156 63.082031 198.957031 L 57.820312 78.539062 C 57.746094 76.820312 58.5 75 59.886719 73.546875 C 61.304688 72.0625 63.136719 71.214844 64.910156 71.214844 L 254.277344 71.214844 C 256.300781 71.214844 257.484375 73.34375 257.574219 75.347656 L 263.195312 197.992188 C 263.246094 199.167969 262.839844 200.269531 262.058594 201.089844 C 261.304688 201.875 260.277344 202.308594 259.171875 202.308594 L 247.507812 202.328125 C 247.207031 202.328125 246.957031 202.082031 246.957031 201.78125 C 246.957031 201.476562 247.203125 201.230469 247.507812 201.230469 L 259.167969 201.210938 C 259.976562 201.210938 260.71875 200.898438 261.261719 200.328125 C 261.839844 199.726562 262.136719 198.914062 262.097656 198.042969 L 256.476562 75.394531 C 256.421875 74.113281 255.703125 72.3125 254.277344 72.3125 L 64.910156 72.3125 C 63.457031 72.3125 61.875 73.054688 60.683594 74.304688 C 59.5 75.542969 58.855469 77.066406 58.917969 78.492188 L 64.179688 198.910156 C 64.238281 200.277344 65.636719 201.523438 67.113281 201.523438 L 208.910156 201.292969 C 209.214844 201.292969 209.460938 201.535156 209.460938 201.839844 C 209.460938 202.144531 209.214844 202.390625 208.910156 202.390625 L 67.113281 202.621094 " fill-opacity="1" fill-rule="nonzero"/><path fill="#caddff" d="M 70.042969 76.976562 C 66.949219 76.976562 63.890625 80.113281 64.027344 83.1875 L 68.863281 193.96875 C 68.933594 195.535156 70.496094 196.859375 72.070312 196.859375 L 253.53125 196.570312 C 255.414062 196.570312 256.808594 195.003906 256.726562 193.128906 L 251.558594 80.292969 C 251.488281 78.730469 250.601562 76.976562 249.027344 76.976562 L 70.042969 76.976562 " fill-opacity="1" fill-rule="nonzero"/><path fill="#ffffff" d="M 143.371094 134.582031 L 150.558594 134.582031 L 150.378906 131.03125 L 143.195312 131.03125 L 143.371094 134.582031 " fill-opacity="1" fill-rule="nonzero"/><path fill="#ffffff" d="M 140.972656 91.984375 L 148.457031 91.984375 L 148.273438 88.289062 L 140.785156 88.289062 L 140.972656 91.984375 " fill-opacity="1" fill-rule="nonzero"/><path fill="#ffffff" d="M 141.332031 98.082031 L 148.765625 98.082031 L 148.578125 94.382812 L 141.148438 94.382812 L 141.332031 98.082031 " fill-opacity="1" fill-rule="nonzero"/><path fill="#ffffff" d="M 141.890625 104.175781 L 148.945312 104.175781 L 148.757812 100.480469 L 141.707031 100.480469 L 141.890625 104.175781 " fill-opacity="1" fill-rule="nonzero"/><path fill="#ffffff" d="M 142.15625 110.273438 L 149.335938 110.273438 L 149.152344 106.574219 L 141.972656 106.574219 L 142.15625 110.273438 " fill-opacity="1" fill-rule="nonzero"/><path fill="#ffffff" d="M 142.5 116.371094 L 149.679688 116.371094 L 149.492188 112.671875 L 142.316406 112.671875 L 142.5 116.371094 " fill-opacity="1" fill-rule="nonzero"/><path fill="#ffffff" d="M 142.917969 128.316406 L 150.035156 128.316406 L 149.847656 124.617188 L 142.734375 124.617188 L 142.917969 128.316406 " fill-opacity="1" fill-rule="nonzero"/><path fill="#ffffff" d="M 142.792969 122.21875 L 149.59375 122.21875 L 149.410156 118.523438 L 142.609375 118.523438 L 142.792969 122.21875 " fill-opacity="1" fill-rule="nonzero"/><path fill="#ffffff" d="M 144.300781 153.101562 L 151.484375 153.101562 L 151.304688 149.546875 L 144.121094 149.546875 L 144.300781 153.101562 " fill-opacity="1" fill-rule="nonzero"/><path fill="#ffffff" d="M 143.84375 146.832031 L 150.960938 146.832031 L 150.773438 143.136719 L 143.660156 143.136719 L 143.84375 146.832031 " fill-opacity="1" fill-rule="nonzero"/><path fill="#ffffff" d="M 143.71875 140.738281 L 150.519531 140.738281 L 150.335938 137.039062 L 143.535156 137.039062 L 143.71875 140.738281 " fill-opacity="1" fill-rule="nonzero"/><path fill="#ffffff" d="M 146.101562 189.160156 L 153.289062 189.160156 L 153.109375 185.609375 L 145.925781 185.609375 L 146.101562 189.160156 " fill-opacity="1" fill-rule="nonzero"/><path fill="#ffffff" d="M 144.621094 158.753906 L 151.675781 158.753906 L 151.488281 155.058594 L 144.4375 155.058594 L 144.621094 158.753906 " fill-opacity="1" fill-rule="nonzero"/><path fill="#ffffff" d="M 144.890625 164.847656 L 152.066406 164.847656 L 151.882812 161.152344 L 144.703125 161.152344 L 144.890625 164.847656 " fill-opacity="1" fill-rule="nonzero"/><path fill="#ffffff" d="M 145.230469 170.945312 L 152.410156 170.945312 L 152.226562 167.25 L 145.046875 167.25 L 145.230469 170.945312 " fill-opacity="1" fill-rule="nonzero"/><path fill="#ffffff" d="M 145.652344 182.894531 L 152.765625 182.894531 L 152.578125 179.195312 L 145.464844 179.195312 L 145.652344 182.894531 " fill-opacity="1" fill-rule="nonzero"/><path fill="#ffffff" d="M 145.523438 176.796875 L 152.324219 176.796875 L 152.140625 173.101562 L 145.339844 173.101562 L 145.523438 176.796875 " fill-opacity="1" fill-rule="nonzero"/><path fill="#ffffff" d="M 239.195312 91.976562 L 159.742188 91.976562 L 159.589844 88.277344 L 239.042969 88.277344 L 239.195312 91.976562 " fill-opacity="1" fill-rule="nonzero"/><path fill="#ffffff" d="M 239.445312 98.074219 L 159.992188 98.074219 L 159.839844 94.375 L 239.292969 94.375 L 239.445312 98.074219 " fill-opacity="1" fill-rule="nonzero"/><path fill="#ffffff" d="M 239.703125 104.167969 L 160.246094 104.167969 L 160.09375 100.472656 L 239.546875 100.472656 L 239.703125 104.167969 " fill-opacity="1" fill-rule="nonzero"/><path fill="#ffffff" d="M 239.953125 110.265625 L 160.5 110.265625 L 160.347656 106.570312 L 239.800781 106.570312 L 239.953125 110.265625 " fill-opacity="1" fill-rule="nonzero"/><path fill="#ffffff" d="M 240.207031 116.363281 L 160.753906 116.363281 L 160.597656 112.667969 L 240.054688 112.667969 L 240.207031 116.363281 " fill-opacity="1" fill-rule="nonzero"/><path fill="#ffffff" d="M 240.460938 122.460938 L 161.003906 122.460938 L 160.851562 118.765625 L 240.304688 118.765625 L 240.460938 122.460938 " fill-opacity="1" fill-rule="nonzero"/><path fill="#ffffff" d="M 240.710938 128.558594 L 161.257812 128.558594 L 161.105469 124.859375 L 240.558594 124.859375 L 240.710938 128.558594 " fill-opacity="1" fill-rule="nonzero"/><path fill="#ffffff" d="M 240.964844 134.65625 L 161.511719 134.65625 L 161.359375 130.957031 L 240.8125 130.957031 L 240.964844 134.65625 " fill-opacity="1" fill-rule="nonzero"/><path fill="#ffffff" d="M 241.207031 140.527344 L 161.753906 140.527344 L 161.601562 136.828125 L 241.054688 136.828125 L 241.207031 140.527344 " fill-opacity="1" fill-rule="nonzero"/><path fill="#ffffff" d="M 241.460938 146.625 L 162.007812 146.625 L 161.855469 142.925781 L 241.308594 142.925781 L 241.460938 146.625 " fill-opacity="1" fill-rule="nonzero"/><path fill="#ffffff" d="M 241.714844 152.722656 L 162.261719 152.722656 L 162.109375 149.023438 L 241.5625 149.023438 L 241.714844 152.722656 " fill-opacity="1" fill-rule="nonzero"/><path fill="#ffffff" d="M 241.96875 158.820312 L 162.515625 158.820312 L 162.359375 155.121094 L 241.8125 155.121094 L 241.96875 158.820312 " fill-opacity="1" fill-rule="nonzero"/><path fill="#ffffff" d="M 242.21875 164.914062 L 162.765625 164.914062 L 162.613281 161.21875 L 242.066406 161.21875 L 242.21875 164.914062 " fill-opacity="1" fill-rule="nonzero"/><path fill="#ffffff" d="M 242.472656 171.011719 L 163.019531 171.011719 L 162.867188 167.316406 L 242.320312 167.316406 L 242.472656 171.011719 " fill-opacity="1" fill-rule="nonzero"/><path fill="#ffffff" d="M 242.726562 177.109375 L 163.273438 177.109375 L 163.121094 173.410156 L 242.574219 173.410156 L 242.726562 177.109375 " fill-opacity="1" fill-rule="nonzero"/><path fill="#ffffff" d="M 242.980469 183.207031 L 163.523438 183.207031 L 163.371094 179.507812 L 242.824219 179.507812 L 242.980469 183.207031 " fill-opacity="1" fill-rule="nonzero"/><path fill="#ffffff" d="M 243.019531 189.167969 L 163.566406 189.167969 L 163.414062 185.472656 L 242.867188 185.472656 L 243.019531 189.167969 " fill-opacity="1" fill-rule="nonzero"/><path fill="#99b9ff" d="M 114.449219 91.675781 L 76.109375 91.675781 L 75.914062 87.976562 L 114.25 87.976562 L 114.449219 91.675781 " fill-opacity="1" fill-rule="nonzero"/><path fill="#99b9ff" d="M 114.769531 97.773438 L 76.433594 97.773438 L 76.238281 94.074219 L 114.574219 94.074219 L 114.769531 97.773438 " fill-opacity="1" fill-rule="nonzero"/><path fill="#99b9ff" d="M 115.09375 103.867188 L 76.757812 103.867188 L 76.558594 100.171875 L 114.898438 100.171875 L 115.09375 103.867188 " fill-opacity="1" fill-rule="nonzero"/><path fill="#99b9ff" d="M 115.417969 109.964844 L 77.078125 109.964844 L 76.882812 106.269531 L 115.222656 106.269531 L 115.417969 109.964844 " fill-opacity="1" fill-rule="nonzero"/><path fill="#99b9ff" d="M 115.742188 116.0625 L 77.402344 116.0625 L 77.207031 112.367188 L 115.542969 112.367188 L 115.742188 116.0625 " fill-opacity="1" fill-rule="nonzero"/><path fill="#99b9ff" d="M 116.0625 122.160156 L 77.726562 122.160156 L 77.53125 118.464844 L 115.867188 118.464844 L 116.0625 122.160156 " fill-opacity="1" fill-rule="nonzero"/><path fill="#ffffff" d="M 197.136719 119.515625 C 197.183594 118.980469 196.972656 118.472656 196.566406 118.148438 L 158.636719 88.351562 C 157.011719 87.050781 154.609375 87.027344 152.746094 88.292969 L 111.152344 117.546875 C 110.6875 117.867188 110.386719 118.367188 110.335938 118.898438 L 112.839844 177.953125 C 112.878906 178.917969 113.65625 179.644531 114.648438 179.652344 L 196.664062 180.234375 C 198.277344 180.246094 199.652344 178.867188 199.585938 177.296875 L 197.136719 119.515625 " fill-opacity="1" fill-rule="nonzero"/><path fill="#000000" d="M 110.886719 118.917969 L 113.390625 177.929688 C 113.417969 178.605469 113.949219 179.101562 114.652344 179.105469 L 196.667969 179.683594 C 197.308594 179.695312 197.933594 179.417969 198.394531 178.945312 C 198.828125 178.492188 199.0625 177.902344 199.039062 177.320312 L 196.589844 119.539062 C 196.585938 119.515625 196.589844 119.492188 196.589844 119.464844 C 196.621094 119.113281 196.488281 118.789062 196.226562 118.578125 L 158.296875 88.78125 C 156.863281 87.636719 154.710938 87.621094 153.054688 88.746094 L 111.46875 118 C 111.144531 118.21875 110.929688 118.558594 110.886719 118.917969 Z M 196.683594 180.78125 C 196.675781 180.78125 196.667969 180.78125 196.660156 180.78125 L 114.644531 180.203125 C 113.355469 180.191406 112.34375 179.238281 112.292969 177.976562 L 109.789062 118.921875 C 109.789062 118.898438 109.789062 118.875 109.789062 118.851562 C 109.851562 118.160156 110.246094 117.503906 110.839844 117.097656 L 152.429688 87.84375 C 154.488281 86.445312 157.179688 86.480469 158.980469 87.921875 L 196.90625 117.71875 C 197.449219 118.148438 197.738281 118.824219 197.6875 119.527344 L 200.136719 177.273438 C 200.171875 178.15625 199.824219 179.042969 199.183594 179.707031 C 198.523438 180.390625 197.613281 180.78125 196.683594 180.78125 " fill-opacity="1" fill-rule="nonzero"/><path fill="#caddff" d="M 117.417969 168.359375 L 193.886719 168.988281 L 191.011719 102.203125 C 191.074219 101.5 190.542969 100.925781 189.824219 100.917969 L 115.535156 100.394531 C 114.816406 100.390625 114.183594 100.957031 114.117188 101.660156 L 117.417969 168.359375 " fill-opacity="1" fill-rule="nonzero"/><path fill="#000000" d="M 117.9375 167.8125 L 193.3125 168.433594 L 190.460938 102.226562 C 190.460938 102.203125 190.460938 102.175781 190.464844 102.152344 C 190.480469 101.972656 190.425781 101.804688 190.3125 101.675781 C 190.191406 101.542969 190.015625 101.472656 189.820312 101.46875 L 115.53125 100.941406 C 115.53125 100.941406 115.527344 100.941406 115.527344 100.941406 C 115.109375 100.941406 114.722656 101.273438 114.667969 101.675781 Z M 193.886719 169.539062 C 193.886719 169.539062 193.882812 169.539062 193.882812 169.539062 L 117.410156 168.910156 C 117.121094 168.90625 116.882812 168.675781 116.867188 168.386719 L 113.570312 101.683594 C 113.570312 101.660156 113.570312 101.632812 113.570312 101.609375 C 113.660156 100.632812 114.535156 99.84375 115.527344 99.84375 C 115.53125 99.84375 115.535156 99.84375 115.539062 99.84375 L 189.828125 100.371094 C 190.335938 100.375 190.796875 100.574219 191.125 100.9375 C 191.441406 101.285156 191.59375 101.738281 191.5625 102.210938 L 194.4375 168.964844 C 194.441406 169.113281 194.386719 169.261719 194.28125 169.371094 C 194.179688 169.476562 194.035156 169.539062 193.886719 169.539062 " fill-opacity="1" fill-rule="nonzero"/><path fill="#ffffff" d="M 129.199219 113.425781 L 179.324219 113.804688 C 180.476562 113.8125 181.496094 112.90625 181.597656 111.777344 C 181.699219 110.652344 180.847656 109.730469 179.695312 109.722656 L 129.570312 109.339844 C 128.414062 109.332031 127.394531 110.238281 127.292969 111.367188 C 127.191406 112.496094 128.042969 113.417969 129.199219 113.425781 " fill-opacity="1" fill-rule="nonzero"/><path fill="#ffffff" d="M 147.691406 123.011719 L 180.171875 123.257812 C 181.328125 123.265625 182.34375 122.359375 182.449219 121.230469 C 182.550781 120.101562 181.699219 119.183594 180.542969 119.171875 L 148.066406 118.925781 C 146.910156 118.917969 145.890625 119.824219 145.789062 120.953125 C 145.683594 122.082031 146.539062 123 147.691406 123.011719 " fill-opacity="1" fill-rule="nonzero"/><path fill="#ffffff" d="M 110.542969 122.191406 C 110.480469 120.769531 112.191406 119.804688 113.328125 120.621094 L 152.59375 148.949219 C 152.707031 149.023438 152.828125 149.09375 152.953125 149.15625 C 154.855469 150.121094 156.6875 150.5 158.417969 149.671875 C 158.878906 149.449219 159.296875 149.140625 159.664062 148.785156 L 193.964844 121.308594 C 195.28125 120.253906 197.164062 120.96875 197.242188 122.554688 L 199.972656 178.371094 C 200.019531 179.367188 199.144531 180.25 198.117188 180.242188 L 114.589844 179.558594 C 113.738281 179.550781 113.074219 178.929688 113.039062 178.101562 L 110.542969 122.191406 " fill-opacity="1" fill-rule="nonzero"/><path fill="#000000" d="M 112.390625 120.871094 C 112.1875 120.871094 111.976562 120.925781 111.777344 121.035156 C 111.429688 121.222656 111.070312 121.617188 111.09375 122.167969 L 113.589844 178.078125 C 113.613281 178.613281 114.035156 179.003906 114.59375 179.007812 L 198.121094 179.691406 C 198.125 179.691406 198.128906 179.691406 198.132812 179.691406 C 198.480469 179.691406 198.824219 179.542969 199.074219 179.28125 C 199.3125 179.03125 199.4375 178.710938 199.425781 178.398438 L 196.691406 122.582031 C 196.667969 122.085938 196.398438 121.6875 195.949219 121.484375 C 195.425781 121.25 194.796875 121.347656 194.308594 121.738281 L 160.027344 149.199219 C 159.589844 149.613281 159.128906 149.941406 158.65625 150.167969 C 156.953125 150.984375 155.003906 150.8125 152.703125 149.644531 C 152.566406 149.574219 152.429688 149.496094 152.296875 149.414062 L 113.007812 121.066406 C 112.824219 120.9375 112.613281 120.871094 112.390625 120.871094 Z M 198.132812 180.792969 C 198.125 180.792969 198.117188 180.792969 198.109375 180.792969 L 114.585938 180.105469 C 113.441406 180.097656 112.539062 179.246094 112.492188 178.128906 L 109.996094 122.214844 C 109.957031 121.332031 110.4375 120.507812 111.25 120.070312 C 112.042969 119.640625 112.960938 119.679688 113.648438 120.175781 L 152.914062 148.503906 C 152.988281 148.550781 153.09375 148.609375 153.199219 148.664062 C 155.203125 149.683594 156.785156 149.847656 158.179688 149.175781 C 158.554688 148.996094 158.925781 148.734375 159.285156 148.386719 C 159.296875 148.378906 159.308594 148.367188 159.324219 148.355469 L 193.621094 120.882812 C 194.433594 120.230469 195.5 120.078125 196.402344 120.484375 C 197.226562 120.855469 197.746094 121.617188 197.789062 122.527344 L 200.519531 178.34375 C 200.550781 178.957031 200.3125 179.578125 199.867188 180.042969 C 199.410156 180.519531 198.777344 180.792969 198.132812 180.792969 " fill-opacity="1" fill-rule="nonzero"/><path fill="#0099ff" d="M 122.230469 169.5 C 122.085938 169.5 121.941406 169.445312 121.832031 169.332031 C 121.625 169.109375 121.636719 168.761719 121.855469 168.550781 L 142.179688 149.359375 C 142.398438 149.152344 142.746094 149.160156 142.953125 149.382812 C 143.164062 149.601562 143.152344 149.949219 142.929688 150.15625 L 122.609375 169.351562 C 122.503906 169.453125 122.367188 169.5 122.230469 169.5 " fill-opacity="1" fill-rule="nonzero"/><path fill="#0099ff" d="M 189.910156 169.683594 C 189.769531 169.683594 189.625 169.628906 189.519531 169.519531 L 170.683594 150.359375 C 170.472656 150.144531 170.476562 149.796875 170.691406 149.582031 C 170.90625 149.371094 171.257812 149.375 171.46875 149.589844 L 190.300781 168.75 C 190.515625 168.96875 190.511719 169.3125 190.292969 169.527344 C 190.1875 169.632812 190.046875 169.683594 189.910156 169.683594 " fill-opacity="1" fill-rule="nonzero"/><path fill="#0099ff" d="M 170.875 131.3125 L 156.9375 107.367188 C 156.28125 106.242188 154.578125 106.292969 153.800781 107.457031 L 138.117188 131.058594 C 137.332031 132.242188 138.074219 133.707031 139.464844 133.722656 L 169.085938 134.070312 C 170.546875 134.085938 171.566406 132.507812 170.875 131.3125 " fill-opacity="1" fill-rule="nonzero"/><path fill="#ffffff" d="M 156.339844 125.632812 L 154.441406 125.769531 C 154.183594 125.753906 153.96875 125.542969 153.957031 125.292969 L 153.382812 113.019531 C 153.367188 112.753906 153.582031 112.550781 153.855469 112.566406 L 156.648438 112.367188 C 156.921875 112.382812 157.140625 112.613281 157.132812 112.875 L 156.808594 125.214844 C 156.804688 125.464844 156.59375 125.648438 156.339844 125.632812 " fill-opacity="1" fill-rule="nonzero"/><path fill="#ffffff" d="M 154.136719 128.648438 C 154.433594 127.875 155.289062 127.539062 156.050781 127.890625 C 156.8125 128.246094 157.1875 129.15625 156.890625 129.929688 C 156.59375 130.703125 155.734375 131.042969 154.972656 130.6875 C 154.210938 130.335938 153.835938 129.421875 154.136719 128.648438 " fill-opacity="1" fill-rule="nonzero"/><path fill="#99b9ff" d="M 124.128906 293.929688 C 118.285156 271.117188 98.550781 255.59375 77.691406 274.191406 C 70.320312 288.453125 92.0625 301.296875 116.820312 302.75 C 121.59375 303.027344 125.316406 298.566406 124.128906 293.929688 " fill-opacity="1" fill-rule="nonzero"/><path fill="#ffffff" d="M 117.253906 289.3125 C 117.253906 289.3125 108.558594 291.144531 101.160156 287.945312 C 96.628906 285.984375 81.601562 288.660156 85.609375 279.664062 C 86.472656 277.726562 86.957031 276.425781 88.941406 274.726562 C 90.027344 273.796875 92.925781 271.949219 94.507812 271.441406 C 102.210938 268.984375 109.019531 268.335938 116.585938 274.558594 C 118.042969 275.757812 129.03125 279.730469 129.03125 279.730469 C 130.339844 280.027344 177.246094 292.136719 183.054688 283.261719 L 212.519531 225.210938 L 229.050781 271.417969 C 229.050781 271.417969 216.917969 290.730469 212.640625 297.015625 C 203.441406 310.539062 190.625 320.992188 181.007812 320.714844 C 162.476562 320.175781 133.628906 298.410156 122.484375 292.277344 C 122.484375 292.277344 117.652344 289.265625 117.253906 289.3125 " fill-opacity="1" fill-rule="nonzero"/><path fill="#000000" d="M 117.257812 288.761719 C 117.507812 288.761719 118.246094 288.988281 122.773438 291.808594 C 125.308594 293.203125 128.796875 295.433594 132.839844 298.015625 C 146.394531 306.671875 166.875 319.753906 181.023438 320.164062 C 181.144531 320.167969 181.265625 320.171875 181.382812 320.171875 C 190.28125 320.171875 202.597656 310.804688 212.1875 296.707031 C 216.160156 290.867188 227.070312 273.539062 228.445312 271.351562 L 212.433594 226.59375 L 183.53125 283.535156 L 183.511719 283.5625 C 181.84375 286.109375 177.15625 287.0625 171.082031 287.0625 C 158.257812 287.0625 139.253906 282.820312 129.382812 280.378906 C 129.128906 280.320312 128.96875 280.277344 128.910156 280.265625 L 128.84375 280.246094 C 127.710938 279.835938 117.722656 276.203125 116.238281 274.980469 C 109.015625 269.042969 102.632812 269.425781 94.675781 271.964844 C 93.207031 272.433594 90.371094 274.222656 89.300781 275.144531 C 87.542969 276.648438 87.042969 277.785156 86.28125 279.5 L 86.109375 279.886719 C 85.375 281.539062 85.285156 282.796875 85.84375 283.730469 C 87.078125 285.8125 91.421875 286.15625 95.253906 286.457031 C 97.679688 286.648438 99.964844 286.828125 101.378906 287.4375 C 108.523438 290.53125 117.054688 288.792969 117.140625 288.773438 L 117.1875 288.765625 C 117.210938 288.761719 117.230469 288.761719 117.257812 288.761719 Z M 181.375 321.269531 C 181.246094 321.269531 181.121094 321.269531 180.992188 321.265625 C 166.539062 320.84375 145.902344 307.664062 132.25 298.941406 C 128.222656 296.371094 124.746094 294.148438 122.21875 292.757812 C 120.140625 291.460938 117.796875 290.082031 117.25 289.875 C 116.128906 290.089844 108.035156 291.515625 100.945312 288.449219 C 99.699219 287.910156 97.496094 287.734375 95.167969 287.550781 C 91.070312 287.226562 86.425781 286.859375 84.898438 284.289062 C 84.15625 283.046875 84.226562 281.414062 85.105469 279.441406 L 85.277344 279.058594 C 86.039062 277.335938 86.640625 275.976562 88.585938 274.308594 C 89.71875 273.335938 92.703125 271.445312 94.339844 270.917969 C 102.417969 268.339844 109.351562 267.898438 116.933594 274.132812 C 117.949219 274.96875 124.804688 277.617188 129.1875 279.203125 C 129.269531 279.21875 129.421875 279.257812 129.644531 279.3125 C 152.640625 285 178.601562 288.945312 182.578125 282.984375 L 212.609375 223.824219 L 229.660156 271.484375 L 229.515625 271.710938 C 229.394531 271.90625 217.328125 291.101562 213.09375 297.324219 C 203.308594 311.714844 190.625 321.269531 181.375 321.269531 " fill-opacity="1" fill-rule="nonzero"/><path fill="#0099ff" d="M 252.867188 192.832031 C 252.867188 192.832031 222.488281 196.859375 212.398438 209.15625 C 199.621094 224.734375 190.136719 263.417969 189.183594 267.273438 L 188.324219 269.898438 C 190.949219 281.695312 206.628906 290.054688 218.6875 289.425781 L 218.085938 289.425781 C 220.035156 289.324219 223.796875 287.703125 224.625 285.933594 L 226.894531 281.085938 L 227.195312 283.183594 C 229.59375 298.683594 218.140625 323.199219 218.140625 323.199219 L 253.003906 315.066406 C 271.460938 313.214844 287.5 304.8125 301.59375 292.742188 C 309.242188 286.1875 315.203125 279.183594 317.757812 271.738281 C 322.089844 259.089844 323.179688 257.480469 324.398438 242.136719 C 325.226562 231.6875 322.160156 221.25 315.609375 213.074219 C 305.984375 201.054688 287.457031 188.445312 252.867188 192.832031 " fill-opacity="1" fill-rule="nonzero"/><path fill="#99b9ff" d="M 224.832031 287.105469 C 224.753906 287.105469 224.671875 287.089844 224.597656 287.050781 C 224.324219 286.921875 224.207031 286.59375 224.335938 286.320312 L 232.84375 268.445312 C 232.976562 268.171875 233.300781 268.054688 233.574219 268.183594 C 233.851562 268.316406 233.96875 268.644531 233.835938 268.917969 L 225.328125 286.792969 C 225.234375 286.992188 225.039062 287.105469 224.832031 287.105469 " fill-opacity="1" fill-rule="nonzero"/><path fill="#000000" d="M 248.105469 131.960938 L 245.875 130.472656 C 244.085938 129.28125 243.332031 127.015625 244.078125 124.996094 C 246.316406 118.9375 254.488281 108.378906 284.210938 116.398438 C 314.515625 124.574219 309.15625 173.222656 283.339844 183.621094 C 257.523438 194.015625 248.753906 140.574219 248.753906 140.574219 L 248.105469 131.960938 " fill-opacity="1" fill-rule="nonzero"/><path fill="#ffffff" d="M 251.832031 133.074219 C 251.484375 131.21875 249.015625 130.8125 248.082031 132.453125 C 245.816406 136.433594 244.734375 139.203125 244.371094 140.894531 C 243.882812 143.171875 245.992188 145.445312 244.855469 147.882812 C 243.722656 150.316406 241.933594 153.078125 241.773438 157.464844 C 241.613281 161.75 237.269531 181.390625 252.523438 180.773438 C 253.121094 180.746094 253.621094 181.21875 253.617188 181.820312 C 253.578125 184.808594 253.417969 193.03125 252.753906 197.484375 C 252.394531 199.910156 253.902344 202.214844 256.261719 202.882812 C 262.371094 204.609375 273.738281 207.039062 282.246094 204.269531 C 284.457031 203.550781 285.621094 201.125 284.832031 198.9375 C 283.824219 196.144531 282.421875 188.289062 283.339844 183.621094 C 283.339844 183.621094 278.246094 183.117188 272.574219 180.511719 C 263.855469 176.511719 259.5625 166.765625 261.972656 157.476562 C 262.492188 155.476562 263.609375 152.636719 262.441406 149.628906 C 259.429688 141.867188 254.925781 149.667969 254.925781 149.667969 L 251.832031 133.074219 " fill-opacity="1" fill-rule="nonzero"/><path fill="#000000" d="M 252.566406 180.222656 C 252.984375 180.222656 253.386719 180.386719 253.6875 180.675781 C 254 180.980469 254.167969 181.390625 254.164062 181.828125 C 254.125 185.082031 253.957031 193.132812 253.296875 197.566406 C 252.980469 199.703125 254.320312 201.761719 256.414062 202.355469 C 262.398438 204.046875 273.691406 206.476562 282.078125 203.746094 C 282.996094 203.449219 283.734375 202.804688 284.160156 201.933594 C 284.59375 201.050781 284.648438 200.050781 284.316406 199.125 C 283.320312 196.359375 281.960938 188.964844 282.699219 184.09375 C 281.191406 183.882812 276.984375 183.140625 272.34375 181.011719 C 263.519531 176.960938 258.933594 167.003906 261.441406 157.339844 C 261.511719 157.0625 261.59375 156.777344 261.679688 156.472656 C 262.210938 154.597656 262.875 152.257812 261.929688 149.828125 C 261.40625 148.472656 260.519531 146.839844 259.289062 146.742188 C 257.683594 146.617188 255.941406 149.011719 255.402344 149.945312 L 254.65625 151.226562 L 251.292969 133.179688 C 251.152344 132.429688 250.582031 132.078125 250.089844 131.996094 C 249.59375 131.914062 248.9375 132.0625 248.558594 132.722656 C 245.941406 137.320312 245.148438 139.890625 244.90625 141.011719 C 244.722656 141.878906 244.988281 142.796875 245.269531 143.765625 C 245.648438 145.078125 246.078125 146.566406 245.355469 148.113281 C 245.164062 148.523438 244.953125 148.945312 244.738281 149.378906 C 243.667969 151.523438 242.453125 153.949219 242.320312 157.488281 C 242.300781 158.042969 242.214844 158.820312 242.105469 159.796875 C 241.59375 164.472656 240.636719 173.171875 244.726562 177.554688 C 246.507812 179.464844 249.121094 180.359375 252.5 180.226562 C 252.523438 180.222656 252.542969 180.222656 252.566406 180.222656 Z M 273.273438 206.070312 C 266.78125 206.070312 260.222656 204.574219 256.113281 203.410156 C 253.488281 202.671875 251.8125 200.089844 252.210938 197.402344 C 252.863281 193.039062 253.027344 185.046875 253.066406 181.8125 C 253.066406 181.679688 253.015625 181.554688 252.921875 181.460938 C 252.820312 181.367188 252.683594 181.316406 252.546875 181.320312 C 248.828125 181.472656 245.933594 180.457031 243.921875 178.304688 C 239.488281 173.550781 240.484375 164.527344 241.015625 159.675781 C 241.117188 158.757812 241.203125 157.964844 241.222656 157.445312 C 241.363281 153.671875 242.6875 151.019531 243.753906 148.886719 C 243.964844 148.460938 244.171875 148.050781 244.359375 147.648438 C 244.910156 146.472656 244.570312 145.308594 244.210938 144.070312 C 243.90625 143.011719 243.589844 141.917969 243.832031 140.78125 C 244.144531 139.335938 245.046875 136.667969 247.605469 132.179688 C 248.148438 131.230469 249.191406 130.730469 250.273438 130.914062 C 251.347656 131.09375 252.171875 131.902344 252.371094 132.976562 L 255.222656 148.261719 C 256.105469 147.109375 257.660156 145.515625 259.371094 145.648438 C 260.816406 145.761719 262.023438 147.03125 262.953125 149.429688 C 264.03125 152.207031 263.28125 154.847656 262.734375 156.773438 C 262.652344 157.066406 262.574219 157.347656 262.503906 157.613281 C 260.128906 166.765625 264.460938 176.183594 272.800781 180.015625 C 278.328125 182.550781 283.34375 183.066406 283.394531 183.074219 L 283.996094 183.132812 L 283.878906 183.726562 C 282.976562 188.304688 284.378906 196.050781 285.347656 198.75 C 285.785156 199.960938 285.714844 201.261719 285.148438 202.417969 C 284.589844 203.558594 283.621094 204.402344 282.417969 204.792969 C 279.578125 205.714844 276.4375 206.070312 273.273438 206.070312 " fill-opacity="1" fill-rule="nonzero"/><path fill="#000000" d="M 296.414062 126.230469 C 296.414062 126.230469 311.324219 119.109375 322.171875 129.285156 C 333.015625 139.457031 343.523438 161.835938 327.253906 186.25 C 317.03125 201.59375 313.097656 213.71875 311.585938 220.613281 C 311.082031 222.925781 308.058594 223.5 306.746094 221.535156 C 300.199219 211.703125 288.253906 190.015625 294.039062 169.636719 C 301.835938 142.167969 296.414062 126.230469 296.414062 126.230469 " fill-opacity="1" fill-rule="nonzero"/><path fill="#000000" d="M 241.449219 155.527344 C 235.066406 151.695312 240.1875 140.882812 240.40625 140.425781 L 240.652344 139.917969 L 255.460938 147.480469 L 254.960938 148.460938 L 241.167969 141.414062 C 240.261719 143.546875 237.203125 151.695312 242.015625 154.582031 L 241.449219 155.527344 " fill-opacity="1" fill-rule="nonzero"/><path fill="#000000" d="M 241.335938 161.28125 C 241.195312 161.28125 241.054688 161.230469 240.949219 161.125 L 238.996094 159.1875 C 238.039062 158.234375 237.910156 156.746094 238.699219 155.648438 L 240.042969 153.773438 C 240.21875 153.527344 240.5625 153.46875 240.808594 153.644531 C 241.054688 153.824219 241.113281 154.167969 240.933594 154.414062 L 239.59375 156.285156 C 239.121094 156.945312 239.195312 157.835938 239.769531 158.410156 L 241.722656 160.34375 C 241.9375 160.558594 241.941406 160.90625 241.726562 161.121094 C 241.617188 161.226562 241.476562 161.28125 241.335938 161.28125 " fill-opacity="1" fill-rule="nonzero"/><path fill="#000000" d="M 257.039062 162.984375 C 255.589844 162.984375 254.5625 162.242188 254.511719 162.203125 C 254.265625 162.023438 254.214844 161.679688 254.394531 161.433594 C 254.574219 161.191406 254.914062 161.140625 255.160156 161.316406 C 255.175781 161.328125 256.355469 162.15625 257.8125 161.785156 C 259.179688 161.441406 260.394531 160.183594 261.421875 158.054688 C 261.550781 157.78125 261.882812 157.667969 262.152344 157.796875 C 262.429688 157.929688 262.542969 158.257812 262.410156 158.535156 C 261.230469 160.980469 259.769531 162.433594 258.0625 162.855469 C 257.707031 162.945312 257.363281 162.984375 257.039062 162.984375 " fill-opacity="1" fill-rule="nonzero"/><path fill="#ffffff" d="M 300.160156 124.886719 C 300.160156 124.886719 286.304688 129.0625 291.976562 142.359375 C 291.976562 142.359375 285.574219 137.738281 285.738281 130.523438 C 285.898438 123.308594 291.246094 120.957031 294.8125 121.039062 C 298.378906 121.117188 300.160156 124.886719 300.160156 124.886719 " fill-opacity="1" fill-rule="nonzero"/><path fill="#000000" d="M 294.628906 121.582031 C 292.753906 121.582031 290.792969 122.28125 289.34375 123.46875 C 287.410156 125.054688 286.351562 127.496094 286.285156 130.535156 C 286.183594 135.117188 288.898438 138.652344 290.714844 140.5 C 289.734375 137.253906 289.859375 134.300781 291.074219 131.691406 C 293.132812 127.300781 297.664062 125.226562 299.355469 124.585938 C 298.738281 123.609375 297.195312 121.640625 294.800781 121.585938 C 294.742188 121.582031 294.6875 121.582031 294.628906 121.582031 Z M 293.253906 143.960938 L 291.652344 142.804688 C 291.382812 142.609375 285.019531 137.929688 285.1875 130.507812 C 285.28125 126.257812 287.121094 123.871094 288.648438 122.617188 C 290.359375 121.214844 292.601562 120.433594 294.824219 120.488281 C 298.683594 120.574219 300.578125 124.488281 300.65625 124.652344 L 300.929688 125.226562 L 300.316406 125.414062 C 300.257812 125.429688 294.351562 127.269531 292.066406 132.164062 C 290.734375 135.019531 290.875 138.378906 292.480469 142.140625 L 293.253906 143.960938 " fill-opacity="1" fill-rule="nonzero"/><path fill="#ffffff" d="M 323.835938 241.179688 C 312.628906 248.457031 289.699219 259.054688 252.210938 257.972656 C 249.457031 257.890625 246.964844 259.605469 246.074219 262.21875 L 244.042969 271.636719 C 240.464844 288.199219 233.238281 303.753906 222.890625 317.167969 L 217.519531 324.128906 C 216.691406 325.203125 217.550781 326.742188 218.898438 326.601562 L 243.503906 323.996094 C 285.667969 317.035156 317.882812 294.734375 327.191406 255.691406 L 329.675781 245.28125 C 330.480469 241.898438 326.75 239.285156 323.835938 241.179688 " fill-opacity="1" fill-rule="nonzero"/><path fill="#000000" d="M 218.417969 327.191406 C 217.714844 327.191406 217.078125 326.820312 216.730469 326.191406 C 216.339844 325.5 216.402344 324.679688 216.886719 324.050781 L 222.453125 316.832031 C 232.6875 303.566406 239.96875 287.898438 243.503906 271.519531 L 245.539062 262.101562 C 245.542969 262.082031 245.546875 262.058594 245.558594 262.039062 C 246.523438 259.191406 249.214844 257.332031 252.226562 257.421875 C 290.207031 258.519531 313.203125 247.429688 323.539062 240.71875 C 325.082031 239.714844 326.972656 239.75 328.476562 240.808594 C 329.96875 241.863281 330.632812 243.625 330.210938 245.40625 L 327.726562 255.820312 C 323.410156 273.917969 314.085938 289.011719 300.019531 300.6875 C 286.800781 311.652344 269.785156 319.316406 249.445312 323.460938 C 249.148438 323.519531 248.859375 323.328125 248.800781 323.03125 C 248.738281 322.734375 248.929688 322.445312 249.226562 322.382812 C 290.910156 313.890625 318.40625 290.160156 326.65625 255.566406 L 329.140625 245.152344 C 329.523438 243.554688 328.71875 242.328125 327.84375 241.707031 C 326.960938 241.085938 325.523438 240.738281 324.136719 241.640625 C 313.695312 248.417969 290.460938 259.625 252.199219 258.519531 C 252.140625 258.519531 252.082031 258.519531 252.023438 258.519531 C 249.570312 258.519531 247.410156 260.046875 246.605469 262.363281 L 244.578125 271.753906 C 241.007812 288.289062 233.65625 304.109375 223.324219 317.503906 L 217.753906 324.71875 C 217.539062 325 217.515625 325.347656 217.6875 325.65625 C 217.859375 325.964844 218.175781 326.125 218.519531 326.089844 L 224.332031 325.472656 C 224.632812 325.441406 224.902344 325.660156 224.933594 325.960938 C 224.96875 326.261719 224.75 326.535156 224.449219 326.566406 L 218.632812 327.179688 C 218.5625 327.1875 218.488281 327.191406 218.417969 327.191406 " fill-opacity="1" fill-rule="nonzero"/><path fill="#000000" d="M 118.6875 49.097656 C 118.496094 49.097656 118.3125 48.996094 118.210938 48.820312 C 118.0625 48.554688 118.152344 48.21875 118.417969 48.070312 C 127.4375 42.96875 136.96875 38.980469 146.738281 36.230469 C 164.515625 31.222656 183.128906 30.253906 202.066406 33.347656 C 202.367188 33.398438 202.570312 33.679688 202.523438 33.980469 C 202.472656 34.28125 202.191406 34.480469 201.890625 34.433594 C 183.109375 31.363281 164.65625 32.324219 147.035156 37.289062 C 137.351562 40.015625 127.902344 43.964844 118.957031 49.027344 C 118.871094 49.074219 118.78125 49.097656 118.6875 49.097656 " fill-opacity="1" fill-rule="nonzero"/><path fill="#000000" d="M 99.933594 318.878906 C 99.894531 318.878906 99.859375 318.875 99.820312 318.867188 C 72.851562 313.332031 48.414062 289 48.171875 288.753906 C 47.957031 288.539062 47.960938 288.191406 48.175781 287.976562 C 48.390625 287.761719 48.738281 287.765625 48.949219 287.980469 C 49.191406 288.222656 73.402344 312.324219 100.042969 317.789062 C 100.339844 317.851562 100.53125 318.140625 100.46875 318.4375 C 100.414062 318.699219 100.1875 318.878906 99.933594 318.878906 " fill-opacity="1" fill-rule="nonzero"/><path fill="#000000" d="M 71.652344 311.84375 C 71.582031 311.84375 71.515625 311.832031 71.445312 311.804688 C 71.257812 311.726562 52.503906 303.910156 34.695312 282.464844 C 34.5 282.230469 34.535156 281.886719 34.765625 281.691406 C 35 281.5 35.347656 281.53125 35.539062 281.765625 C 53.160156 302.984375 71.675781 310.710938 71.859375 310.785156 C 72.140625 310.902344 72.277344 311.222656 72.160156 311.5 C 72.074219 311.714844 71.871094 311.84375 71.652344 311.84375 " fill-opacity="1" fill-rule="nonzero"/><path fill="#ffffff" d="M 63.675781 246.609375 C 61.296875 246.53125 59.332031 248.425781 59.289062 250.835938 C 59.246094 253.253906 61.140625 255.269531 63.519531 255.351562 C 65.898438 255.429688 67.863281 253.535156 67.90625 251.121094 C 67.949219 248.710938 66.054688 246.6875 63.675781 246.609375 " fill-opacity="1" fill-rule="nonzero"/><path fill="#000000" d="M 51.925781 237.652344 C 51.878906 237.652344 51.832031 237.644531 51.785156 237.632812 L 48.6875 236.816406 C 48.394531 236.738281 48.21875 236.4375 48.296875 236.144531 C 48.371094 235.851562 48.671875 235.679688 48.964844 235.753906 L 52.066406 236.570312 C 52.359375 236.648438 52.535156 236.949219 52.457031 237.242188 C 52.394531 237.488281 52.171875 237.652344 51.925781 237.652344 " fill-opacity="1" fill-rule="nonzero"/><path fill="#000000" d="M 59.148438 239.558594 C 59.101562 239.558594 59.054688 239.550781 59.007812 239.539062 L 55.910156 238.71875 C 55.617188 238.644531 55.441406 238.34375 55.519531 238.050781 C 55.59375 237.757812 55.894531 237.582031 56.1875 237.660156 L 59.289062 238.476562 C 59.582031 238.554688 59.757812 238.855469 59.679688 239.148438 C 59.617188 239.394531 59.394531 239.558594 59.148438 239.558594 " fill-opacity="1" fill-rule="nonzero"/><path fill="#000000" d="M 54.53125 236.132812 C 54.484375 236.132812 54.4375 236.128906 54.390625 236.113281 C 54.097656 236.039062 53.921875 235.738281 54 235.445312 L 54.816406 232.34375 C 54.894531 232.050781 55.195312 231.875 55.488281 231.949219 C 55.78125 232.027344 55.957031 232.328125 55.878906 232.621094 L 55.0625 235.726562 C 54.996094 235.972656 54.777344 236.132812 54.53125 236.132812 " fill-opacity="1" fill-rule="nonzero"/><path fill="#000000" d="M 52.628906 243.359375 C 52.582031 243.359375 52.535156 243.355469 52.488281 243.34375 C 52.195312 243.265625 52.019531 242.964844 52.097656 242.671875 L 52.914062 239.566406 C 52.992188 239.277344 53.289062 239.097656 53.585938 239.175781 C 53.878906 239.253906 54.054688 239.554688 53.976562 239.847656 L 53.15625 242.949219 C 53.09375 243.195312 52.871094 243.359375 52.628906 243.359375 " fill-opacity="1" fill-rule="nonzero"/><path fill="#000000" d="M 170.265625 42.464844 C 170.183594 42.464844 170.101562 42.445312 170.019531 42.40625 C 169.75 42.273438 169.640625 41.941406 169.773438 41.671875 C 169.820312 41.582031 170.90625 39.4375 173.097656 39.226562 C 173.816406 39.15625 174.558594 39.53125 175.347656 39.933594 C 176.117188 40.320312 176.898438 40.722656 177.613281 40.679688 C 178.148438 40.644531 178.808594 40.121094 179.445312 39.613281 C 180.304688 38.925781 181.1875 38.21875 182.234375 38.207031 C 182.242188 38.207031 182.246094 38.207031 182.253906 38.207031 C 183.074219 38.207031 183.824219 38.875 184.542969 39.519531 C 185.070312 39.992188 185.671875 40.53125 186.070312 40.546875 C 186.082031 40.550781 186.09375 40.550781 186.105469 40.550781 C 186.628906 40.550781 187.246094 40.027344 187.789062 39.566406 C 188.246094 39.183594 188.640625 38.851562 189.054688 38.734375 C 189.347656 38.652344 189.652344 38.824219 189.734375 39.113281 C 189.816406 39.40625 189.648438 39.710938 189.355469 39.792969 C 189.167969 39.84375 188.8125 40.144531 188.5 40.40625 C 187.824219 40.976562 186.996094 41.683594 186.027344 41.644531 C 185.234375 41.613281 184.507812 40.964844 183.808594 40.339844 C 183.269531 39.855469 182.65625 39.304688 182.253906 39.304688 C 182.253906 39.304688 182.25 39.304688 182.246094 39.304688 C 181.578125 39.3125 180.84375 39.902344 180.128906 40.472656 C 179.359375 41.085938 178.566406 41.71875 177.679688 41.773438 C 176.679688 41.835938 175.707031 41.34375 174.851562 40.910156 C 174.238281 40.601562 173.601562 40.28125 173.207031 40.316406 C 171.628906 40.472656 170.765625 42.144531 170.757812 42.164062 C 170.660156 42.351562 170.46875 42.464844 170.265625 42.464844 " fill-opacity="1" fill-rule="nonzero"/><path fill="#000000" d="M 255.378906 65.828125 C 255.285156 65.828125 255.1875 65.804688 255.101562 65.753906 C 254.839844 65.597656 254.753906 65.261719 254.90625 65 L 270.566406 38.535156 C 270.71875 38.277344 271.058594 38.191406 271.316406 38.34375 C 271.578125 38.5 271.664062 38.835938 271.511719 39.097656 L 255.851562 65.558594 C 255.75 65.734375 255.566406 65.828125 255.378906 65.828125 " fill-opacity="1" fill-rule="nonzero"/><path fill="#000000" d="M 260.652344 65.828125 C 260.527344 65.828125 260.40625 65.789062 260.300781 65.703125 C 260.066406 65.507812 260.035156 65.164062 260.230469 64.929688 L 272.347656 50.351562 C 272.539062 50.117188 272.886719 50.085938 273.121094 50.28125 C 273.351562 50.472656 273.386719 50.820312 273.191406 51.054688 L 261.074219 65.632812 C 260.964844 65.761719 260.808594 65.828125 260.652344 65.828125 " fill-opacity="1" fill-rule="nonzero"/><path fill="#000000" d="M 251.0625 65.828125 C 251.019531 65.828125 250.972656 65.824219 250.925781 65.8125 C 250.632812 65.734375 250.457031 65.4375 250.53125 65.140625 L 252.917969 55.980469 C 252.992188 55.683594 253.292969 55.507812 253.585938 55.585938 C 253.878906 55.660156 254.054688 55.960938 253.980469 56.253906 L 251.59375 65.417969 C 251.53125 65.664062 251.308594 65.828125 251.0625 65.828125 " fill-opacity="1" fill-rule="nonzero"/><path fill="#000000" d="M 263.28125 84.0625 C 263.09375 84.0625 262.910156 83.96875 262.808594 83.792969 C 262.652344 83.53125 262.742188 83.195312 263 83.042969 L 285.117188 69.953125 C 285.378906 69.800781 285.714844 69.886719 285.871094 70.148438 C 286.023438 70.40625 285.9375 70.746094 285.675781 70.898438 L 263.558594 83.984375 C 263.472656 84.039062 263.375 84.0625 263.28125 84.0625 " fill-opacity="1" fill-rule="nonzero"/><path fill="#000000" d="M 263.28125 78.789062 C 263.121094 78.789062 262.964844 78.722656 262.859375 78.589844 C 262.664062 78.359375 262.695312 78.011719 262.929688 77.820312 L 277.507812 65.703125 C 277.742188 65.507812 278.085938 65.539062 278.28125 65.773438 C 278.476562 66.003906 278.441406 66.351562 278.210938 66.546875 L 263.632812 78.664062 C 263.53125 78.746094 263.40625 78.789062 263.28125 78.789062 " fill-opacity="1" fill-rule="nonzero"/><path fill="#000000" d="M 263.28125 88.375 C 263.035156 88.375 262.8125 88.214844 262.75 87.964844 C 262.671875 87.671875 262.847656 87.375 263.140625 87.296875 L 282.027344 82.382812 C 282.324219 82.308594 282.621094 82.484375 282.699219 82.777344 C 282.773438 83.070312 282.597656 83.371094 282.304688 83.445312 L 263.417969 88.359375 C 263.371094 88.371094 263.324219 88.375 263.28125 88.375 " fill-opacity="1" fill-rule="nonzero"/><path fill="#000000" d="M 304.777344 62.03125 C 304.511719 62.03125 304.246094 62.082031 303.992188 62.199219 C 303 62.632812 302.546875 63.792969 302.984375 64.78125 C 303.191406 65.261719 303.578125 65.632812 304.066406 65.820312 C 304.554688 66.011719 305.089844 66.003906 305.566406 65.792969 C 306.046875 65.582031 306.414062 65.195312 306.605469 64.707031 C 306.796875 64.21875 306.785156 63.6875 306.574219 63.207031 C 306.253906 62.472656 305.53125 62.03125 304.777344 62.03125 Z M 304.777344 67.054688 C 304.402344 67.054688 304.027344 66.984375 303.664062 66.84375 C 302.90625 66.546875 302.304688 65.972656 301.976562 65.222656 C 301.296875 63.679688 302.003906 61.867188 303.550781 61.191406 C 305.097656 60.515625 306.90625 61.21875 307.582031 62.765625 C 307.910156 63.511719 307.929688 64.347656 307.628906 65.105469 C 307.332031 65.871094 306.757812 66.46875 306.007812 66.796875 C 305.613281 66.96875 305.199219 67.054688 304.777344 67.054688 " fill-opacity="1" fill-rule="nonzero"/><path fill="#000000" d="M 315.046875 74.414062 L 317.167969 76.75 L 317.898438 73.730469 C 317.199219 73.882812 316.152344 74.121094 315.046875 74.414062 Z M 317.460938 78.433594 C 317.304688 78.433594 317.160156 78.367188 317.054688 78.253906 L 313.632812 74.492188 C 313.503906 74.351562 313.457031 74.15625 313.511719 73.972656 C 313.5625 73.789062 313.703125 73.644531 313.886719 73.59375 C 316.160156 72.941406 318.503906 72.484375 318.527344 72.476562 C 318.710938 72.441406 318.898438 72.5 319.03125 72.636719 C 319.160156 72.773438 319.210938 72.964844 319.167969 73.144531 L 317.992188 78.011719 C 317.945312 78.210938 317.792969 78.363281 317.597656 78.414062 C 317.550781 78.425781 317.503906 78.433594 317.460938 78.433594 " fill-opacity="1" fill-rule="nonzero"/><path fill="#99b9ff" d="M 325.894531 52.675781 C 325.894531 52.675781 322.230469 53.390625 318.632812 54.425781 L 324.039062 60.363281 L 325.894531 52.675781 " fill-opacity="1" fill-rule="nonzero"/></svg>